<?xml version="1.0" encoding="utf-8"?>
<svg version="1.1" id="Layer_1" xmlns="http://www.w3.org/2000/svg" xmlns:xlink="http://www.w3.org/1999/xlink" x="0px" y="0px"
	 viewBox="0 0 1659.4414 1761.0887" enable-background="new 0 0 1659.4414 1761.0887" xml:space="preserve">
<g>
	<path d="M339.6259,1619.0983l-0.0002-455.6156c0-35.5577-28.8253-64.3829-64.383-64.3829H86.2547
		c-6.931,0-11.9044-6.6783-9.9184-13.3188l155.0331-518.3937c1.3662-4.5682,3.2514-9.0071,5.7975-13.0385
		c23.1924-36.7223,56.3354-63.3513,98.5428-80.7838l395.6041-184.8818c1.5866-0.7415,3.2367-1.4283,4.8884-2.0105
		c69.9321-24.649,130.1514-13.2691,177.2129,46.9c35.6005,72.3559,41.7573,152.0956,27.0341,237.0717
		c-3.287,12.2278-5.701,24.2712-6.0057,35.8689c-0.4645,17.6805,9.9113,33.8865,25.5859,42.0793l183.7054,96.0187
		c98.4819,56.1691,37.5691,162.9678-60.9128,106.7987L865.0918,724.4344c-29.1176-16.0168-46.2978-43.1136-50.5818-82.1798
		c-1.0247-9.3435-0.369-18.9181,1.5034-28.1292c7.3924-36.3666-0.8608-52.4875-31.6726-39.4108l-149.8226,68.6213
		c-26.049,13.549-25.4636,40.0107-7.6994,74.8024l116.4269,363.688c3.5591,11.1178-4.7354,22.4822-16.4089,22.4822h-232.591
		l-0.0001,514.7898C494.2457,1701.0264,339.6259,1701.0264,339.6259,1619.0983z"/>
	<circle cx="1067.2743" cy="236.6361" r="156.0917"/>
	<circle cx="1461.5353" cy="1129.8519" r="110.8367"/>
	<path d="M1583.5459,1271.3555v53.447c0,5.6028-4.5103,10.1615-10.1128,10.2213l-723.0846,7.7205
		c-15.7361,0.168-29.9269-9.9705-34.4501-25.0435c-3.2565-10.8521-2.9555-22.0835,1.2993-33.7362
		c5.0518-13.8353,18.5693-22.8308,33.2981-22.8308l722.8282-0.0002C1578.9694,1261.1335,1583.5459,1265.7101,1583.5459,1271.3555z"
		/>
	<path d="M952.7785,1225.9222c-48.1496-9.6501-74.1646-33.8281-82.2755-69.7576c-5.7397-25.4254-0.1923-52.1139,12.3533-74.9613
		c21.4106-38.9922,44.9028-74.4445,70.1667-106.8832c7.0514-9.054,5.8183-21.8646-2.8248-29.4141
		c-21.2006-18.518-68.0456-40.7787-109.2882-64.3613c-41.6951-23.8412,10.2667-108.1889,51.3392-83.2905
		c48.4801,29.389,194.79,116.1095,194.79,116.1095c16.1992,15.0374,19.5953,34.9138,5.5547,61.381
		c-22.5352,35.185-26.2253,57.3364,0,58.7966l127.8519,0.0002l0.0001-92.5259c0-61.5378,89.1199-60.9866,97.3389,0
		c2.9249,21.7037,4.5142,40.0599-0.2678,57.9247c3.3351,98.6338,0.5952,176.4602-16.9152,192.7216
		c-28.0295,26.0303-61.0876,39.1075-101.7157,38.7205l-232.3618-3.1177C961.937,1227.2034,957.2769,1226.8239,952.7785,1225.9222z"
		/>
</g>
</svg>
