<svg xmlns="http://www.w3.org/2000/svg" width="119.242" height="82.299" viewBox="0 0 119.242 82.299">
  <g id="img-menu-unload-products" transform="translate(-212 -765.001)">
    <g id="img-menu-unload-products-2" data-name="img-menu-unload-products" transform="translate(206.542 735.7)">
      <path id="Subtraction_42" data-name="Subtraction 42" d="M-6158.1-665.4a11.311,11.311,0,0,1-6.763-2.238A11.457,11.457,0,0,1-6169-673.4h-.6a6.908,6.908,0,0,1-6.9-6.9v-18.8a2.449,2.449,0,0,1,.1-1.191l0-.009v-.1l.1-.2a2.664,2.664,0,0,1,.6-1l13-18a2.868,2.868,0,0,1,2.4-1.2h18.7v-6.6a8.249,8.249,0,0,1,2.425-5.875,8.249,8.249,0,0,1,5.874-2.424h57.4a8.27,8.27,0,0,1,7.7,8.2v23.637a26.7,26.7,0,0,0-6-4.981V-727.4a2.276,2.276,0,0,0-2.3-2.3h-56.8a2.275,2.275,0,0,0-2.3,2.3v48.1h21.876a26.448,26.448,0,0,0,2.345,5.9H-6147.2a11.461,11.461,0,0,1-4.139,5.763A11.31,11.31,0,0,1-6158.1-665.4Zm0-16.9a5.442,5.442,0,0,0-5.5,5.5,5.442,5.442,0,0,0,5.5,5.5,5.441,5.441,0,0,0,5.5-5.5A5.441,5.441,0,0,0-6158.1-682.3Zm-.6-32.5h0l-11.8,16.3v18.3a1,1,0,0,0,1,1h.3a11.463,11.463,0,0,1,11.2-9,11.367,11.367,0,0,1,7.087,2.5,11.575,11.575,0,0,1,4.012,6.4h5.4v-35.5h-17.2Zm8.8,18.6h-12.4a2.25,2.25,0,0,1-2.3-2.3,2,2,0,0,1,.4-1.3l6.2-8.8a2.266,2.266,0,0,1,1.9-1h6.1a2.291,2.291,0,0,1,1.636.662,2.293,2.293,0,0,1,.663,1.637v8.8a2.1,2.1,0,0,1-.557,1.581A2.237,2.237,0,0,1-6149.9-696.2Zm-4.9-8.8h0l-3,4.1h5.6V-705h-2.6Zm45.252,3.3H-6128.8a3.053,3.053,0,0,1-3-2.9,3.211,3.211,0,0,1,.8-2.1,2.878,2.878,0,0,1,2.1-.9h25.235a26.714,26.714,0,0,0-5.881,5.9Zm4.747-10.9h-24a3.053,3.053,0,0,1-3-2.9,3.22,3.22,0,0,1,.8-2.1,2.883,2.883,0,0,1,2.1-.9h24a3.229,3.229,0,0,1,2.1.8,2.882,2.882,0,0,1,.9,2.1,3.219,3.219,0,0,1-.8,2.1A2.888,2.888,0,0,1-6104.8-712.6Z" transform="translate(6182 765)" fill="#31b2f5"/>
    </g>
    <g id="Group_515" data-name="Group 515" transform="translate(207.542 738.7)">
      <g id="Group_512" data-name="Group 512">
        <path id="Path_386" data-name="Path 386" d="M94,108.6a29.7,29.7,0,1,1,29.7-29.7A29.7,29.7,0,0,1,94,108.6Zm0-53.1a23.4,23.4,0,1,0,23.4,23.4A23.43,23.43,0,0,0,94,55.5Z" fill="#31b2f5"/>
      </g>
      <g id="Group_513" data-name="Group 513">
        <path id="Path_387" data-name="Path 387" d="M85.2,85.1l-7-.7,11.4,9.8,12.1-9.9-7.9.9c-.3-11,7.6-20.1,16.1-21.5a19.269,19.269,0,0,0-2.4-.1C95.6,64,85,73.3,85.2,85.1Z" fill="#31b2f5"/>
      </g>
    </g>
  </g>
</svg>
