<?xml version="1.0" encoding="utf-8"?>
<!-- Generator: Adobe Illustrator 22.1.0, SVG Export Plug-In . SVG Version: 6.00 Build 0)  -->
<svg version="1.1" id="Layer_1" xmlns="http://www.w3.org/2000/svg" xmlns:xlink="http://www.w3.org/1999/xlink" x="0px" y="0px"
	 viewBox="0 0 128 128" style="enable-background:new 0 0 128 128;" xml:space="preserve">
<style type="text/css">
	.st0{fill:#00B4FF;}
</style>
<g>
	<path class="st0" d="M103.6,25.4H95v-8.6c0-2.7-2.2-4.9-4.9-4.9H27.4c-2.7,0-4.9,2.2-4.9,4.9v78.6c0,2.7,2.2,4.9,4.9,4.9H36v8.6
		c0,2.7,2.2,4.9,4.9,4.9h62.6c2.7,0,4.9-2.2,4.9-4.9l0-78.6C108.5,27.6,106.3,25.4,103.6,25.4z M27.4,96.6c-0.7,0-1.2-0.6-1.2-1.2
		V16.8c0-0.7,0.6-1.2,1.2-1.2h62.6c0.7,0,1.2,0.6,1.2,1.2v8.6H40.9c-2.7,0-4.9,2.2-4.9,4.9v66.3H27.4z M104.8,108.9
		c0,0.7-0.6,1.2-1.2,1.2H40.9c-0.7,0-1.2-0.6-1.2-1.2V30.3c0-0.7,0.6-1.2,1.2-1.2h62.6c0.7,0,1.2,0.6,1.2,1.2L104.8,108.9z"/>
	<path class="st0" d="M103.6,114.5H40.9c-3.1,0-5.7-2.5-5.7-5.7V101h-7.8c-3.1,0-5.7-2.5-5.7-5.7V16.8c0-3.1,2.5-5.7,5.7-5.7h62.6
		c3.1,0,5.7,2.5,5.7,5.7v7.8h7.8c3.1,0,5.7,2.5,5.7,5.7l0,78.6C109.2,112,106.7,114.5,103.6,114.5z M27.4,12.6
		c-2.3,0-4.2,1.9-4.2,4.2v78.6c0,2.3,1.9,4.2,4.2,4.2h9.3v9.3c0,2.3,1.9,4.2,4.2,4.2h62.6c2.3,0,4.2-1.9,4.2-4.2l0-78.6
		c0-2.3-1.9-4.2-4.2-4.2h-9.3v-9.3c0-2.3-1.9-4.2-4.2-4.2H27.4z M103.6,110.9H40.9c-1.1,0-2-0.9-2-2V30.3c0-1.1,0.9-2,2-2h62.6
		c1.1,0,2,0.9,2,2l0,78.6C105.5,109.9,104.6,110.9,103.6,110.9z M40.9,29.8c-0.3,0-0.5,0.2-0.5,0.5v78.6c0,0.3,0.2,0.5,0.5,0.5h62.6
		c0.3,0,0.5-0.2,0.5-0.5l0-78.6c0-0.3-0.2-0.5-0.5-0.5H40.9z M36.8,97.3h-9.3c-1.1,0-2-0.9-2-2V16.8c0-1.1,0.9-2,2-2h62.6
		c1.1,0,2,0.9,2,2v9.3H40.9c-2.3,0-4.2,1.9-4.2,4.2V97.3z M27.4,16.3c-0.3,0-0.5,0.2-0.5,0.5v78.6c0,0.3,0.2,0.5,0.5,0.5h7.8V30.3
		c0-3.1,2.5-5.7,5.7-5.7h49.6v-7.8c0-0.3-0.2-0.5-0.5-0.5H27.4z"/>
</g>
<g>
	<path class="st0" d="M54.5,57.9h36.8c1,0,1.8-0.8,1.8-1.8c0-1-0.8-1.8-1.8-1.8H54.5c-1,0-1.8,0.8-1.8,1.8
		C52.6,57.1,53.4,57.9,54.5,57.9z"/>
	<path class="st0" d="M91.3,58.4H54.5c-1.3,0-2.3-1.1-2.3-2.3s1.1-2.3,2.3-2.3h36.8c1.3,0,2.3,1.1,2.3,2.3S92.6,58.4,91.3,58.4z
		 M54.5,54.7c-0.7,0-1.3,0.6-1.3,1.3s0.6,1.3,1.3,1.3h36.8c0.7,0,1.3-0.6,1.3-1.3s-0.6-1.3-1.3-1.3H54.5z"/>
</g>
<g>
	<path class="st0" d="M54.5,45.6h36.8c1,0,1.8-0.8,1.8-1.8c0-1-0.8-1.8-1.8-1.8H54.5c-1,0-1.8,0.8-1.8,1.8
		C52.6,44.8,53.4,45.6,54.5,45.6z"/>
	<path class="st0" d="M91.3,46.1H54.5c-1.3,0-2.3-1.1-2.3-2.3c0-1.3,1.1-2.3,2.3-2.3h36.8c1.3,0,2.3,1.1,2.3,2.3
		C93.6,45.1,92.6,46.1,91.3,46.1z M54.5,42.5c-0.7,0-1.3,0.6-1.3,1.3s0.6,1.3,1.3,1.3h36.8c0.7,0,1.3-0.6,1.3-1.3s-0.6-1.3-1.3-1.3
		H54.5z"/>
</g>
<g>
	<path class="st0" d="M54.5,70.2h36.8c1,0,1.8-0.8,1.8-1.8c0-1-0.8-1.8-1.8-1.8H54.5c-1,0-1.8,0.8-1.8,1.8
		C52.6,69.4,53.4,70.2,54.5,70.2z"/>
	<path class="st0" d="M91.3,70.7H54.5c-1.3,0-2.3-1.1-2.3-2.3s1.1-2.3,2.3-2.3h36.8c1.3,0,2.3,1.1,2.3,2.3S92.6,70.7,91.3,70.7z
		 M54.5,67c-0.7,0-1.3,0.6-1.3,1.3s0.6,1.3,1.3,1.3h36.8c0.7,0,1.3-0.6,1.3-1.3S92,67,91.3,67H54.5z"/>
</g>
<g>
	<path class="st0" d="M80.2,80c-1,0-1.8,0.8-1.8,1.8v14.7c0,1,0.8,1.8,1.8,1.8c1,0,1.8-0.8,1.8-1.8V81.9C82.1,80.8,81.2,80,80.2,80z
		"/>
</g>
<g>
	<path class="st0" d="M92.5,83.7c-1,0-1.8,0.8-1.8,1.8v11.1c0,1,0.8,1.8,1.8,1.8c1,0,1.8-0.8,1.8-1.8V85.5
		C94.4,84.5,93.5,83.7,92.5,83.7z"/>
</g>
<g>
	<path class="st0" d="M86.4,87.4c-1,0-1.8,0.8-1.8,1.8v7.4c0,1,0.8,1.8,1.8,1.8s1.8-0.8,1.8-1.8v-7.4C88.2,88.2,87.4,87.4,86.4,87.4
		z"/>
</g>
<g>
	<path class="st0" d="M61.2,77.6c-6.1,0-11,4.9-11.1,11.1c0,6.1,4.9,11,11.1,11.1c6.1,0,11-4.9,11.1-11.1
		C72.3,82.5,67.3,77.6,61.2,77.6z M53.8,88.6c0-2,0.8-3.9,2.2-5.2c1.3-1.3,3.2-2.2,5.2-2.2c2,0,3.9,0.8,5.2,2.2
		c1.3,1.3,2.1,3.1,2.2,5.2l-6.9-1.7c-0.6-0.2-1.3,0-1.7,0.5c-0.5,0.5-0.6,1.1-0.5,1.7l1.7,6.9c-2,0-3.8-0.8-5.2-2.2
		C54.7,92.5,53.8,90.7,53.8,88.6z M64.7,95.1l-1-3.9l3.9,1c-0.3,0.6-0.8,1.2-1.3,1.7C65.9,94.3,65.3,94.8,64.7,95.1z"/>
</g>
</svg>
