<?xml version="1.0" encoding="utf-8"?>
<!-- Generator: Adobe Illustrator 23.0.2, SVG Export Plug-In . SVG Version: 6.00 Build 0)  -->
<svg version="1.1" id="Layer_1" xmlns="http://www.w3.org/2000/svg" xmlns:xlink="http://www.w3.org/1999/xlink" x="0px" y="0px"
	 viewBox="0 0 128 128" style="enable-background:new 0 0 128 128;" xml:space="preserve">
<style type="text/css">
	.st0{fill:#F1F5F8;}
	.st1{fill:#888B8F;}
</style>
<circle class="st0" cx="64.4" cy="64" r="63.1"/>
<path class="st1" d="M64.5,101c20.1,0,36.5-16.4,36.5-36.5S84.6,28,64.5,28C44.4,28,28,44.4,28,64.5S44.4,101,64.5,101z M39.1,86.1
	c3.9-1.7,8.6-3,13.9-3.8c1.2,6.3,3.1,11.7,5.7,15C50.9,95.9,44,91.9,39.1,86.1z M64.5,31.4c3.1,0,6.5,6,8.4,15.7
	c-2.7,0.3-5.5,0.4-8.4,0.4c-2.9,0-5.7-0.2-8.4-0.4C58,37.4,61.4,31.4,64.5,31.4z M64.5,50.6c3,0,6-0.2,8.9-0.5
	c0.6,3.8,0.9,8.1,1,12.8H54.5c0.1-4.6,0.4-8.9,1-12.8C58.5,50.5,61.5,50.6,64.5,50.6z M64.5,97.6c-3.1,0-6.5-6-8.4-15.7
	c2.7-0.3,5.5-0.4,8.4-0.4c2.9,0,5.7,0.2,8.4,0.4C71,91.6,67.6,97.6,64.5,97.6z M64.5,78.3c-3,0-6,0.2-8.9,0.5
	c-0.6-3.8-0.9-8.1-1-12.8h19.9c-0.1,4.6-0.4,8.9-1,12.8C70.5,78.5,67.5,78.3,64.5,78.3z M77.6,66.1h20.2c-0.3,6.5-2.4,12.5-5.9,17.5
	c-4.3-2-9.5-3.5-15.3-4.3C77.2,75,77.5,70.5,77.6,66.1z M77.6,62.9c-0.1-4.5-0.4-8.9-1.1-13.1c5.8-0.9,11-2.3,15.3-4.3
	c3.5,5,5.6,11,5.9,17.5H77.6z M51.4,62.9H31.2c0.3-6.5,2.4-12.5,5.9-17.5c4.3,2,9.5,3.5,15.3,4.3C51.8,54,51.5,58.5,51.4,62.9z
	 M51.4,66.1c0.1,4.5,0.4,8.9,1.1,13.1c-5.8,0.9-11,2.3-15.3,4.3c-3.5-5-5.6-11-5.9-17.5H51.4z M70.4,97.3c2.5-3.3,4.4-8.7,5.7-15
	c5.2,0.8,10,2.1,13.9,3.8C85,91.9,78.1,95.9,70.4,97.3z M89.9,42.9c-3.9,1.7-8.6,3-13.9,3.8c-1.2-6.3-3.1-11.7-5.7-15
	C78.1,33.1,85,37.1,89.9,42.9z M58.6,31.7c-2.5,3.3-4.4,8.7-5.7,15c-5.2-0.8-10-2.1-13.9-3.8C44,37.1,50.9,33.1,58.6,31.7z"/>
</svg>
