<?xml version="1.0" encoding="utf-8"?>
<!-- Generator: Adobe Illustrator 22.1.0, SVG Export Plug-In . SVG Version: 6.00 Build 0)  -->
<svg version="1.1" id="Layer_1" xmlns="http://www.w3.org/2000/svg" xmlns:xlink="http://www.w3.org/1999/xlink" x="0px" y="0px"
	 viewBox="0 0 128 128" style="enable-background:new 0 0 128 128;" xml:space="preserve">
<style type="text/css">
	.st0{fill:#474747;}
	.st1{fill:none;}
	.st2{fill:#FFFFFF;}
</style>
<circle class="st0" cx="64" cy="64" r="64"/>
<path class="st1" d="M89.5,43.7H74.7c-0.7,0-1.4-0.5-1.6-1.2l-0.7-2.2c-0.3-1-1.3-1.7-2.3-1.7H58.4c-1.1,0-2,0.7-2.3,1.7l-0.7,2.2
	c-0.2,0.7-0.9,1.2-1.6,1.2H38.5c-2.1,0-3.8,1.7-3.8,3.8V79c0,2.1,1.7,3.8,3.8,3.8h51c2.1,0,3.8-1.7,3.8-3.8V47.5
	C93.3,45.4,91.6,43.7,89.5,43.7z M73.1,72.9c-2.2,2.2-5.6,3.8-9.3,3.8c-2.5,0-5.3-0.7-8-2.5c-1-0.6-1.9-1.5-2.5-2.5
	c-4.3-6.7-2.4-13.6,1.4-17.3S65.2,48.7,72,53c1,0.6,1.9,1.5,2.5,2.5C78.8,62.3,76.9,69.1,73.1,72.9z"/>
<path class="st1" d="M70.1,55.9c-2.2-1.4-4.3-1.9-6.2-1.9c-2.9,0-5.3,1.3-6.9,2.8c-2.6,2.6-4.4,7.6-0.9,13c0.4,0.6,0.9,1.1,1.5,1.5
	c0,0,0,0,0,0c5.5,3.5,10.5,1.7,13.1-0.9c2.6-2.6,4.4-7.6,0.9-13.1C71.2,56.8,70.7,56.3,70.1,55.9z"/>
<g>
	<path class="st2" d="M72.3,52.6c-7.1-4.5-14.2-2.5-18.2,1.4c-4,4-5.9,11.1-1.4,18.2c0.7,1,1.6,2,2.7,2.7c2.9,1.8,5.7,2.6,8.4,2.6
		c3.9,0,7.4-1.7,9.8-4c4-4,5.9-11.1,1.4-18.2C74.3,54.2,73.4,53.3,72.3,52.6z M71,70.9c-2.7,2.7-7.9,4.6-13.7,0.9c0,0,0,0,0,0
		c-0.6-0.4-1.2-0.9-1.6-1.6c-3.7-5.8-1.8-11,0.9-13.7c1.6-1.6,4.2-3,7.2-3c2,0,4.2,0.6,6.5,2c0.6,0.4,1.2,0.9,1.6,1.6
		C75.6,63,73.8,68.2,71,70.9z"/>
	<path class="st2" d="M90.8,39.3H76.5l-0.4-1.1c-0.8-2.5-3.2-4.2-5.9-4.2H58.1c-2.7,0-5,1.7-5.9,4.2l-0.4,1.1H37.2
		c-4.2,0-7.6,3.4-7.6,7.6v33.1c0,4.2,3.4,7.6,7.6,7.6h53.5c4.2,0,7.6-3.4,7.6-7.6V46.9C98.4,42.7,95,39.3,90.8,39.3z M94.7,79.9
		c0,2.2-1.8,4-4,4H37.2c-2.2,0-4-1.8-4-4V46.9c0-2.2,1.8-4,4-4h15.9c0.8,0,1.5-0.5,1.7-1.2l0.8-2.3c0.4-1.1,1.3-1.8,2.5-1.8h12.1
		c1.1,0,2.1,0.7,2.5,1.8l0.8,2.3c0.2,0.7,0.9,1.2,1.7,1.2h15.6c2.2,0,4,1.8,4,4C94.7,46.9,94.7,79.9,94.7,79.9z"/>
	<circle class="st2" cx="41" cy="47.9" r="2.1"/>
</g>
</svg>
