<?xml version="1.0" encoding="utf-8"?>
<!-- Generator: Adobe Illustrator 23.0.1, SVG Export Plug-In . SVG Version: 6.00 Build 0)  -->
<svg version="1.1" id="Layer_1" xmlns="http://www.w3.org/2000/svg" xmlns:xlink="http://www.w3.org/1999/xlink" x="0px" y="0px"
	 viewBox="0 0 128 128" style="enable-background:new 0 0 128 128;" xml:space="preserve">
<style type="text/css">
	.st0{fill:#FFAE00;}
	.st1{fill:#FFFFFF;}
</style>
<circle class="st0" cx="63.7" cy="63.6" r="63.1"/>
<g>
	<g>
		<g>
			<path d="M64.7,46.6L64.7,46.6C64.8,46.7,64.7,46.6,64.7,46.6z"/>
		</g>
	</g>
</g>
<g>
	<g>
		<g>
			<path d="M68.6,46.5L68.6,46.5L68.6,46.5z"/>
		</g>
	</g>
</g>
<g>
	<path class="st1" d="M55.9,32.1h15.5h1.1h0h2.9c1.3,0,2.4,1.1,2.4,2.4c0,1.3-1.1,2.4-2.4,2.4h-0.5v19.5l18.4,32.3
		c1.6,2.9-0.5,6.5-3.8,6.5H37.9c-3.3,0-5.4-3.6-3.8-6.5l0.1-0.2l18.3-32.1V36.9H52c-1.3,0-2.4-1.1-2.4-2.4c0-1.3,1.1-2.4,2.4-2.4
		h2.9h0.1H55L55.9,32.1L55.9,32.1z M54.1,63.4L54.1,63.4h19.2l-2.9-5C70.2,58,70,57.5,70,57V36.9H57.3V57h0c0,0.4-0.1,0.8-0.3,1.2
		L54.1,63.4L54.1,63.4z M74.9,66.3L74.9,66.3H52.4L38.7,90.3h49.9L74.9,66.3L74.9,66.3z M61,85.7L61,85.7h5.2c0.8,0,1.5-0.7,1.5-1.5
		c0-0.8-0.6-1.5-1.5-1.5H61c-0.8,0-1.5,0.7-1.5,1.5C59.6,85,60.2,85.7,61,85.7L61,85.7z M62.5,78L62.5,78h2.4c0.8,0,1.5-0.7,1.5-1.5
		c0-0.8-0.7-1.4-1.5-1.4h-2.4c-0.8,0-1.4,0.6-1.4,1.4C61,77.3,61.7,78,62.5,78L62.5,78z M62.5,62.4L62.5,62.4h2.4
		c0.8,0,1.5-0.6,1.5-1.5c0-0.8-0.7-1.5-1.5-1.5h-2.4c-0.8,0-1.4,0.7-1.4,1.5C61,61.8,61.7,62.4,62.5,62.4L62.5,62.4z M61,70.2
		L61,70.2h5.2c0.8,0,1.5-0.7,1.5-1.5c0-0.8-0.6-1.4-1.5-1.4H61c-0.8,0-1.5,0.7-1.5,1.4C59.6,69.5,60.2,70.2,61,70.2L61,70.2z
		 M61,54.6L61,54.6h5.2c0.8,0,1.5-0.7,1.5-1.5c0-0.8-0.6-1.5-1.5-1.5H61c-0.8,0-1.5,0.7-1.5,1.5C59.6,54,60.2,54.6,61,54.6L61,54.6z
		"/>
</g>
</svg>
