<?xml version="1.0" encoding="utf-8"?>
<!-- Generator: Adobe Illustrator 23.0.2, SVG Export Plug-In . SVG Version: 6.00 Build 0)  -->
<svg version="1.1" id="Layer_1" xmlns="http://www.w3.org/2000/svg" xmlns:xlink="http://www.w3.org/1999/xlink" x="0px" y="0px"
	 viewBox="0 0 128 128" style="enable-background:new 0 0 128 128;" xml:space="preserve">
<style type="text/css">
	.st0{fill:#F1F5F8;}
	.st1{fill:#888B8F;}
</style>
<circle class="st0" cx="64" cy="63.9" r="63.1"/>
<g transform="matrix( 1, 0, 0, 1, 0,0) ">
	<g>
		<g id="a">
			<g>
				<path class="st1" d="M63.9,32.3c-0.3-0.3-0.7-0.5-1.2-0.5c-0.5,0-0.9,0.2-1.2,0.5c-0.3,0.3-0.5,0.8-0.5,1.2V60l-9.6-9.6
					c-0.3-0.3-0.7-0.5-1.2-0.5c-0.5,0-0.9,0.2-1.2,0.5c-0.3,0.3-0.5,0.8-0.5,1.2c0,0.5,0.2,0.9,0.5,1.2l11.1,11.1L49,75
					c-0.3,0.3-0.5,0.8-0.5,1.2c0,0.5,0.2,0.9,0.5,1.2c0.3,0.3,0.8,0.5,1.2,0.5c0.5,0,0.9-0.2,1.2-0.5l9.6-9.6v26.4
					c0,0.5,0.2,0.9,0.5,1.2c0.3,0.3,0.8,0.5,1.2,0.5c0.5,0,0.9-0.2,1.2-0.5L79,80.4c0.3-0.3,0.5-0.7,0.5-1.2c0-0.5-0.2-0.9-0.5-1.2
					l-14-14l14-14c0.3-0.3,0.5-0.7,0.5-1.2c0-0.5-0.2-0.9-0.5-1.2L63.9,32.3 M64.4,37.7l10.9,10.9L64.4,59.6V37.7 M64.4,90.1V68.3
					l10.9,10.9L64.4,90.1z"/>
				<path class="st1" d="M62.7,96.2C62.7,96.2,62.7,96.2,62.7,96.2c-0.5,0-1-0.2-1.4-0.6c-0.4-0.4-0.5-0.8-0.5-1.4V68.4l-9.2,9.2
					c-0.4,0.4-0.8,0.6-1.4,0.6c0,0,0,0,0,0c-0.5,0-1-0.2-1.4-0.6c-0.4-0.4-0.5-0.8-0.5-1.4c0-0.5,0.2-1,0.5-1.4l11-11l-11-11
					c-0.4-0.4-0.5-0.8-0.5-1.4c0-0.5,0.2-1,0.5-1.4c0.4-0.4,0.9-0.5,1.4-0.6c0,0,0,0,0,0c0.5,0,1,0.2,1.3,0.5l9.2,9.2V33.6
					c0-0.5,0.2-1,0.5-1.4c0.4-0.4,0.9-0.5,1.4-0.6c0,0,0,0,0,0c0.5,0,1,0.2,1.3,0.5l15.1,15.1c0.4,0.4,0.6,0.9,0.6,1.4
					c0,0.5-0.2,1-0.6,1.4L65.3,63.9l13.9,13.9c0.4,0.4,0.6,0.9,0.6,1.4c0,0.5-0.2,1-0.6,1.4L64.1,95.7C63.7,96,63.3,96.2,62.7,96.2z
					 M61.2,67.3v27c0,0.4,0.1,0.8,0.4,1.1c0.3,0.3,0.7,0.5,1.1,0.5c0,0,0,0,0,0c0.4,0,0.8-0.1,1-0.4l15.1-15.1
					c0.3-0.3,0.5-0.6,0.5-1c0-0.4-0.1-0.8-0.5-1.1L64.7,63.9l14.2-14.2c0.3-0.3,0.5-0.6,0.5-1c0-0.4-0.1-0.8-0.5-1.1L63.8,32.5
					c-0.3-0.3-0.6-0.4-1-0.4c0,0,0,0,0,0c-0.4,0-0.8,0.1-1.1,0.4c-0.3,0.3-0.4,0.7-0.4,1.1v26.9l-10-10c-0.3-0.3-0.6-0.4-1-0.4
					c0,0,0,0,0,0c-0.4,0-0.8,0.1-1.1,0.4c-0.3,0.3-0.4,0.7-0.4,1.1c0,0.4,0.1,0.8,0.4,1.1l11.3,11.3L49.1,75.2
					c-0.3,0.3-0.4,0.7-0.4,1.1c0,0.4,0.1,0.8,0.4,1.1c0.3,0.3,0.7,0.5,1.1,0.5c0,0,0,0,0,0c0.4,0,0.8-0.1,1-0.4L61.2,67.3z
					 M64.2,90.7V67.8l11.4,11.4L64.2,90.7z M64.7,68.8v20.8L75,79.2L64.7,68.8z M64.2,60.1V37.2l11.4,11.5L64.2,60.1z M64.7,38.3V59
					L75,48.7L64.7,38.3z"/>
			</g>
		</g>
	</g>
</g>
</svg>
