<?xml version="1.0" encoding="utf-8"?>
<!-- Generator: Adobe Illustrator 22.1.0, SVG Export Plug-In . SVG Version: 6.00 Build 0)  -->
<svg version="1.1" id="Layer_1" xmlns="http://www.w3.org/2000/svg" xmlns:xlink="http://www.w3.org/1999/xlink" x="0px" y="0px"
	 viewBox="0 0 340 340" style="enable-background:new 0 0 340 340;" xml:space="preserve">
<style type="text/css">
	.st0{fill:#0774CA;}
	.st1{fill:#1095FF;}
	.st2{fill:#62B9FE;}
</style>
<g>
	<circle class="st0" cx="170" cy="170" r="170"/>
</g>
<g>
	<circle class="st0" cx="170" cy="170" r="152"/>
	<path class="st1" d="M170,323c-84.4,0-153-68.6-153-153S85.6,17,170,17s153,68.6,153,153S254.4,323,170,323z M170,19
		C86.7,19,19,86.8,19,170s67.7,151,151,151s151-67.7,151-151S253.3,19,170,19z"/>
</g>
<g>
	<path d="M169.4,131.6c0.1,0.1,0.1,0.2,0.2,0.2C169.7,131.9,169.6,131.8,169.4,131.6z"/>
</g>
<g>
	<path d="M178.7,131.5C178.6,131.5,178.6,131.5,178.7,131.5C178.6,131.5,178.6,131.5,178.7,131.5z"/>
</g>
<g>
	<path class="st2" d="M241.2,201c0,0-3.8-5.1-12.6-8.5c0,0-18.9-5.7-27.9-12c0,0.2,0,0.4,0,0.6c0,2.5-0.3,5.5-0.7,8.6
		c-1.1,9.3-3.2,19.6-3.2,19.6c-2.8-4.6-5.3-7.6-7.5-9.5c-3-2.7-5.5-3.3-7.4-3.1c-2.2,0.2-3.5,1.6-3.9,2
		c12.1-14.8,16.4-27.4,16.8-28.6c-0.1-0.9-0.1-1.9,0-3c0,0-0.1-1.3-0.2-1.2c3.5-4.5,6.3-8.2,8.2-13.4c3.2-3.2,4.8-11,4.8-11
		c2.7-7.5,1-10.4-0.2-11.4c1.9-6.2,6.1-23.9-3.8-35.1c0,0-6.1-8.4-21.5-11.5c0,0-5.9-2.4-8.3-8.6c0,0-5.3,0.7-5.3,5.3l-2.6-1
		l-2.4,1.7l-2.8-1.7c0,0-1-0.3-3.3,0.5c0,0-17.7,7.7-22.8,23.5c0,0-2.8,6.7,0.6,26.3c-0.8,0.3-4.5,2.4-1.1,12c0,0,1.5,7,4.4,10.5
		c1.6,5,4.1,9.9,7.2,14.2c0,0,0,0,0,0c0,0,0.4,1.9,0,4.5c0.7,1.9,6.4,16.9,16.5,28.2c-0.5-0.5-1.6-1.4-3.3-1.7
		c-1.8-0.3-4.2,0.1-7.1,2.5c-2.4,1.9-5.1,5-8.1,10.1c0,0-2.5-12.3-3.5-22.2c-0.2-2.4-0.4-4.6-0.4-6.5c0-0.4,0-0.7,0-1.1
		c-8.8,6.4-28.3,12.3-28.3,12.3c-8.9,3.4-12.6,8.5-12.6,8.5c-10.7,15.8-13.7,35.3-14.4,42h171.3C254.9,236.3,251.9,216.9,241.2,201z
		"/>
</g>
</svg>
