<?xml version="1.0" encoding="utf-8"?>
<!-- Generator: Adobe Illustrator 22.1.0, SVG Export Plug-In . SVG Version: 6.00 Build 0)  -->
<svg version="1.1" id="Layer_1" xmlns="http://www.w3.org/2000/svg" xmlns:xlink="http://www.w3.org/1999/xlink" x="0px" y="0px"
	 viewBox="0 0 128 128" style="enable-background:new 0 0 128 128;" xml:space="preserve">
<style type="text/css">
	.st0{fill:#FFFFFF;}
	.st1{fill:#00B4FF;}
	.st2{fill:none;stroke:#00B4FF;stroke-width:4;stroke-linecap:round;stroke-linejoin:round;}
</style>
<g>
	<g>
		<path class="st0" d="M89.8,103.4H21.5c-2.6,0-4.7-2.1-4.7-4.7V12c0-2.6,2.1-4.7,4.7-4.7h68.3c2.6,0,4.7,2.1,4.7,4.7v86.8
			C94.4,101.3,92.3,103.4,89.8,103.4z"/>
		<path class="st1" d="M89.8,106.4H21.5c-4.2,0-7.7-3.4-7.7-7.7V12c0-4.2,3.4-7.7,7.7-7.7h68.3c4.2,0,7.7,3.4,7.7,7.7v86.8
			C97.4,103,94,106.4,89.8,106.4z M21.5,10.3c-0.9,0-1.7,0.7-1.7,1.7v86.8c0,0.9,0.7,1.7,1.7,1.7h68.3c0.9,0,1.7-0.7,1.7-1.7V12
			c0-0.9-0.7-1.7-1.7-1.7H21.5z"/>
	</g>
	<g>
		<rect x="48.3" y="19.6" class="st1" width="35" height="6"/>
	</g>
	<g>
		<rect x="49" y="38.5" class="st1" width="35" height="6"/>
	</g>
	<g>
		<rect x="49" y="57.4" class="st1" width="35" height="6"/>
	</g>
	<g>
		<rect x="49" y="78.4" class="st1" width="35" height="6"/>
	</g>
	<g>
		<rect x="31.5" y="19.6" class="st1" width="10.3" height="6"/>
	</g>
	<g>
		<rect x="31.7" y="38.5" class="st1" width="10.3" height="6"/>
	</g>
	<g>
		<rect x="31.7" y="57.4" class="st1" width="10.3" height="6"/>
	</g>
	<g>
		<rect x="31.7" y="78.4" class="st1" width="10.3" height="6"/>
	</g>
</g>
<g>
	<circle class="st0" cx="83" cy="89.3" r="33.5"/>
	<path class="st1" d="M83,125.3c-19.9,0-36-16.2-36-36s16.2-36,36-36s36,16.2,36,36S102.8,125.3,83,125.3z M83,58.2
		c-17.1,0-31,13.9-31,31s13.9,31,31,31s31-13.9,31-31S100.1,58.2,83,58.2z"/>
</g>
<g>
	<g>
		<path class="st1" d="M92.7,83.9c-1.1,0-2-0.9-2-2v-9.7H75.8v9.7c0,1.1-0.9,2-2,2s-2-0.9-2-2V70.2c0-1.1,0.9-2,2-2h18.9
			c1.1,0,2,0.9,2,2v11.7C94.7,83,93.8,83.9,92.7,83.9z"/>
	</g>
	<g>
		<path class="st1" d="M92.7,107.4H73.8c-1.1,0-2-0.9-2-2V95.3c0-1.1,0.9-2,2-2h18.9c1.1,0,2,0.9,2,2v10.2
			C94.7,106.5,93.8,107.4,92.7,107.4z M75.8,103.4h14.9v-6.2H75.8V103.4z"/>
	</g>
	<g>
		<path class="st1" d="M100.6,102.8h-7.9c-1.1,0-2-0.9-2-2s0.9-2,2-2h5.9V84.6c0-0.4-0.4-0.8-0.8-0.8H68.7c-0.4,0-0.8,0.3-0.8,0.8
			v14.1h5.9c1.1,0,2,0.9,2,2s-0.9,2-2,2h-7.9c-1.1,0-2-0.9-2-2V84.6c0-2.6,2.2-4.8,4.8-4.8h29.1c2.6,0,4.8,2.1,4.8,4.8v16.1
			C102.6,101.9,101.7,102.8,100.6,102.8z"/>
	</g>
	<g>
		<path class="st2" d="M73,88.2"/>
	</g>
</g>
</svg>
