<?xml version="1.0" encoding="utf-8"?>
<!-- Generator: Adobe Illustrator 22.1.0, SVG Export Plug-In . SVG Version: 6.00 Build 0)  -->
<svg version="1.1" id="Layer_1" xmlns="http://www.w3.org/2000/svg" xmlns:xlink="http://www.w3.org/1999/xlink" x="0px" y="0px"
	 viewBox="0 0 340 340" style="enable-background:new 0 0 340 340;" xml:space="preserve">
<style type="text/css">
	.st0{fill:#0774CA;}
	.st1{fill:#1095FF;}
	.st2{fill:#31B2F5;}
</style>
<g>
	<g>
		<g>
			<circle class="st0" cx="170" cy="170" r="170"/>
		</g>
	</g>
</g>
<g>
	<g>
		<g>
			<circle class="st0" cx="168" cy="170" r="152"/>
		</g>
	</g>
	<g>
		<g>
			<path class="st1" d="M168,323c-84.4,0-153-68.6-153-153S83.6,17,168,17s153,68.6,153,153S252.3,323,168,323z M168,19
				C84.7,19,17,86.8,17,170s67.7,151,151,151s151-67.7,151-151S251.2,19,168,19z"/>
		</g>
	</g>
</g>
<g>
	<g>
		<g>
			<path d="M165.4,135.6c0.1,0.1,0.1,0.2,0.2,0.2C165.7,135.9,165.6,135.8,165.4,135.6z"/>
		</g>
	</g>
</g>
<g>
	<g>
		<g>
			<path d="M174.7,135.5C174.6,135.5,174.6,135.5,174.7,135.5C174.6,135.5,174.6,135.5,174.7,135.5z"/>
		</g>
	</g>
</g>
<g transform="translate(0,-1020.3622)">
	<g>
		<path class="st2" d="M105.5,1121.7c-9.9,0.2-17.9,8.3-17.9,18.2c0,1.4,1.2,2.6,2.6,2.6h28.6v85.7c0,10,8.2,18.2,18.2,18.2h57.1
			h31.1c10,0,18.2-8.2,18.2-18.2c0-1.4-1.2-2.6-2.6-2.6h-28.6v-85.7c0-10-8.2-18.2-18.2-18.2l-88.3,0H105.5z M105.8,1126.9
			c6.2,0,10.6,4.6,11.9,10.4H93.9C95.2,1131.5,99.6,1126.9,105.8,1126.9z M118.5,1126.9h75.6c7.2,0,13,5.8,13,13v85.7h-54.5
			c-1.4,0-2.6,1.2-2.6,2.6c0,7.2-5.8,13-13,13s-13-5.8-13-13v-88.3C124,1134.8,121.9,1130.2,118.5,1126.9z M143.3,1132.1v4.8
			c-1.3,0.2-2.5,0.5-3.5,0.9c-1.1,0.5-2,1.1-2.7,1.8c-0.7,0.7-1.3,1.6-1.7,2.6c-0.4,1-0.6,2.1-0.6,3.3c0,1.3,0.2,2.4,0.7,3.4
			c0.5,1,1.1,1.9,2,2.6c0.9,0.8,1.9,1.4,3.1,2c1.2,0.6,2.6,1,4.1,1.5c1.2,0.4,2.1,0.8,2.9,1.2c0.8,0.4,1.5,0.8,2,1.3
			c0.5,0.5,0.9,1,1.1,1.6c0.2,0.6,0.3,1.2,0.3,1.8c0,0.8-0.1,1.5-0.4,2.1c-0.3,0.6-0.7,1.2-1.3,1.6c-0.5,0.4-1.2,0.8-2,1
			c-0.8,0.2-1.7,0.4-2.7,0.4c-0.7,0-1.5-0.1-2.2-0.3c-0.7-0.2-1.4-0.5-2-1c-0.6-0.5-1.1-1.1-1.4-1.9c-0.4-0.8-0.5-1.8-0.5-3.1h-5.1
			c0,1.6,0.3,3.1,0.8,4.2c0.5,1.2,1.2,2.1,2.1,2.9c0.9,0.8,1.9,1.4,3,1.8c1.1,0.4,2.3,0.7,3.5,0.8v4.2h4v-4.2
			c1.4-0.1,2.7-0.4,3.9-0.9c1.2-0.4,2.1-1,2.9-1.8c0.8-0.7,1.4-1.6,1.9-2.6c0.4-1,0.7-2.1,0.7-3.4c0-1.3-0.2-2.4-0.6-3.4
			c-0.4-1-1-1.8-1.9-2.6c-0.8-0.7-1.8-1.4-3.1-1.9c-1.2-0.6-2.6-1.1-4.2-1.5c-1.2-0.4-2.3-0.8-3.1-1.2c-0.8-0.4-1.5-0.9-2-1.3
			c-0.5-0.5-0.9-1-1.1-1.5c-0.2-0.6-0.3-1.2-0.3-1.9c0-0.8,0.1-1.5,0.3-2.1c0.2-0.6,0.6-1.2,1-1.6c0.5-0.5,1-0.8,1.7-1.1
			c0.7-0.2,1.5-0.4,2.4-0.4c0.9,0,1.7,0.2,2.4,0.5c0.7,0.3,1.3,0.8,1.7,1.4c0.5,0.6,0.8,1.3,1,2.1c0.2,0.8,0.4,1.7,0.4,2.7h5
			c0-3-0.7-5.3-2.2-7c-1.5-1.7-3.5-2.8-6.2-3.1v-4.8H143.3z M167.9,1147.6c-3.5,0.2-3.2,5.4,0.3,5.2H194c3.5,0,3.5-5.2,0-5.2h-25.9
			C168.1,1147.6,168,1147.6,167.9,1147.6z M167.9,1163.2c-3.5,0.2-3.2,5.4,0.3,5.2H194c3.5,0,3.5-5.2,0-5.2h-25.9
			C168.1,1163.2,168,1163.2,167.9,1163.2z M136.7,1178.8c-3.5,0.2-3.2,5.4,0.3,5.2h57c3.5,0,3.5-5.2,0-5.2h-57
			C136.9,1178.8,136.8,1178.8,136.7,1178.8z M136.7,1194.4c-3.5,0.2-3.2,5.4,0.3,5.2h57c3.5,0,3.5-5.2,0-5.2h-57
			C136.9,1194.4,136.8,1194.4,136.7,1194.4z M136.7,1209.9c-3.5,0.2-3.2,5.4,0.3,5.2h57c3.5,0,3.5-5.2,0-5.2h-57
			C136.9,1209.9,136.8,1209.9,136.7,1209.9z M154.6,1230.7h82.5c-1.3,5.8-5.7,10.4-11.9,10.4h-31.1h-44.5
			C152.4,1238.4,154,1234.7,154.6,1230.7z"/>
	</g>
</g>
<g>
	<circle class="st0" cx="210.8" cy="198.3" r="42.8"/>
	<path class="st2" d="M210.8,243.5c-25,0-45.3-20.3-45.3-45.3s20.3-45.3,45.3-45.3s45.3,20.3,45.3,45.3S235.7,243.5,210.8,243.5z
		 M210.8,158c-22.2,0-40.3,18.1-40.3,40.3s18.1,40.3,40.3,40.3s40.3-18.1,40.3-40.3S232.9,158,210.8,158z"/>
</g>
<g>
	<g>
		<path class="st2" d="M225.5,194.1c-0.5,0-0.9,0.4-0.9,0.9v4.2c0,0.5,0.4,0.9,0.9,0.9h5.9c0.5,0,0.9-0.4,0.9-0.9
			c0-0.2-0.1-0.4-0.2-0.5l-3-4.2c-0.2-0.2-0.4-0.4-0.7-0.4H225.5z M226.4,195.9h1.6l1.8,2.5h-3.4V195.9z"/>
		<path class="st2" d="M231.4,200.3h-5.9c-0.6,0-1.1-0.5-1.1-1.1V195c0-0.6,0.5-1.1,1.1-1.1h2.9c0.4,0,0.7,0.2,0.9,0.5l3,4.2
			c0.1,0.2,0.2,0.4,0.2,0.6C232.6,199.8,232.1,200.3,231.4,200.3z M225.5,194.4c-0.3,0-0.6,0.3-0.6,0.6v4.2c0,0.3,0.3,0.6,0.6,0.6
			h5.9c0.3,0,0.6-0.3,0.6-0.6c0-0.1,0-0.3-0.1-0.4l-3-4.2c-0.1-0.2-0.3-0.3-0.5-0.3H225.5z M230.3,198.6h-4.1v-3h2L230.3,198.6z
			 M226.6,198.1h2.7l-1.4-2h-1.3V198.1z"/>
	</g>
	<g>
		<path class="st2" d="M190.3,181.7c-2,0-3.7,1.7-3.7,3.7v21.9c0,2,1.7,3.7,3.7,3.7h3.6c0.6,2.2,2.6,3.8,5,3.8c2.4,0,4.4-1.6,5-3.8
			h20.4c0.6,2.2,2.6,3.8,5,3.8c2.4,0,4.4-1.6,5-3.8h0.5c1.7,0,3-1.4,3-3v-9.1c0-0.2,0-0.3,0-0.5c0,0,0,0,0-0.1c0,0,0,0,0,0
			c0,0,0,0,0,0c-0.1-0.1-0.1-0.3-0.2-0.4l-6.2-8.6c-0.2-0.3-0.6-0.5-0.9-0.5l-9.2,0v-3.4c0-2-1.7-3.7-3.7-3.7L190.3,181.7
			L190.3,181.7z M190.3,184h27.2c0.8,0,1.4,0.6,1.4,1.4v23.3h-14.8c-0.4-2.4-2.6-4.3-5.1-4.3c-2.6,0-4.7,1.9-5.1,4.3h-3.5
			c-0.8,0-1.4-0.6-1.4-1.4v-21.9C188.9,184.6,189.6,184,190.3,184z M222.9,191.1l7,0l5.8,8v8.8c0,0.4-0.3,0.7-0.7,0.7h-0.4
			c-0.4-2.4-2.6-4.3-5.1-4.3s-4.7,1.9-5.1,4.3h-3v-17.5L222.9,191.1z M199,206.7c1.6,0,2.9,1.3,2.9,2.9v0.1c0,1.6-1.3,2.8-2.9,2.8
			c-1.6,0-2.9-1.3-2.9-2.9l0,0v0C196.1,208,197.4,206.7,199,206.7L199,206.7z M229.4,206.7c1.6,0,2.9,1.3,2.9,2.9
			c0,1.6-1.3,2.9-2.9,2.9s-2.9-1.3-2.9-2.9C226.5,208,227.8,206.7,229.4,206.7z"/>
		<path class="st2" d="M229.4,215.1c-2.4,0-4.5-1.6-5.2-3.8h-20c-0.7,2.3-2.8,3.8-5.2,3.8c-2.4,0-4.5-1.6-5.2-3.8h-3.4
			c-2.2,0-4-1.8-4-4v-21.9c0-2.2,1.8-4,4-4l27.2,0c2.2,0,4,1.8,4,4v3.2l9,0c0.5,0,0.9,0.2,1.1,0.6l6.2,8.6c0.1,0.1,0.2,0.3,0.3,0.5
			l0,0.1c0.1,0.2,0.1,0.4,0.1,0.6l0,9c0,1.8-1.5,3.3-3.3,3.3h-0.3C233.9,213.5,231.8,215.1,229.4,215.1z M203.8,210.8h20.8l0.1,0.2
			c0.6,2.1,2.6,3.6,4.8,3.6c2.2,0,4.2-1.5,4.8-3.6l0.1-0.2h0.7c1.5,0,2.8-1.3,2.8-2.8v-9.1c0-0.2,0-0.3,0-0.4l0-0.1
			c0-0.1-0.1-0.2-0.2-0.3l-6.3-8.7c-0.2-0.2-0.4-0.4-0.7-0.4l-9.5,0v-3.7c0-1.9-1.6-3.5-3.5-3.5l-27.2,0c-1.9,0-3.5,1.6-3.5,3.5
			v21.9c0,1.9,1.6,3.5,3.5,3.5h3.8l0.1,0.2c0.6,2.1,2.6,3.6,4.8,3.6c2.2,0,4.2-1.5,4.8-3.6L203.8,210.8z M229.4,212.7
			c-1.8,0-3.1-1.4-3.1-3.1c0-1.8,1.4-3.1,3.1-3.1s3.1,1.4,3.1,3.1C232.6,211.4,231.2,212.7,229.4,212.7z M229.4,207
			c-1.5,0-2.6,1.2-2.6,2.6c0,1.5,1.2,2.6,2.6,2.6s2.6-1.2,2.6-2.6C232.1,208.1,230.9,207,229.4,207z M199,212.7
			c-1.8,0-3.1-1.4-3.1-3.1c0-1.7,1.2-3,2.9-3.1v0l0.3,0c1.8,0,3.1,1.4,3.1,3.1v0.1C202.1,211.4,200.7,212.7,199,212.7z M199,207
			c-1.5,0-2.6,1.2-2.6,2.6c0,1.5,1.2,2.6,2.6,2.6c1.4,0,2.6-1.1,2.6-2.6v-0.1c0-1.4-1.1-2.6-2.5-2.6H199z M234.9,208.9h-0.6l0-0.2
			c-0.4-2.4-2.5-4.1-4.9-4.1c-2.4,0-4.5,1.7-4.9,4.1l0,0.2H221v-18l9,0l0.1,0.1l5.8,8v8.9C235.9,208.5,235.5,208.9,234.9,208.9z
			 M234.8,208.4h0.2c0.3,0,0.5-0.2,0.5-0.5v-8.8l-5.6-7.8l-8.2,0v17h2.6c0.6-2.5,2.8-4.3,5.3-4.3C232,204.1,234.2,205.9,234.8,208.4
			z M219.2,208.9h-15.3l0-0.2c-0.4-2.4-2.5-4.1-4.9-4.1c-2.4,0-4.5,1.7-4.9,4.1l0,0.2h-3.7c-0.9,0-1.6-0.7-1.6-1.6v-21.9
			c0-0.9,0.7-1.6,1.6-1.6h27.2c0.9,0,1.6,0.7,1.6,1.6V208.9z M204.3,208.4h14.4v-23c0-0.6-0.5-1.1-1.1-1.1h-27.2
			c-0.6,0-1.1,0.5-1.1,1.1v21.9c0,0.6,0.5,1.1,1.1,1.1h3.3c0.6-2.5,2.8-4.3,5.3-4.3C201.5,204.1,203.8,205.9,204.3,208.4z"/>
	</g>
	<g>
		<path class="st2" d="M203.9,189.9c-0.6,0-1.2,0.5-1.2,1.2c0,0.6,0.5,1.2,1.2,1.2c0,0,0,0,0,0h11.4c0.6,0,1.2-0.5,1.2-1.2
			c0-0.6-0.5-1.2-1.2-1.2c0,0,0,0,0,0H203.9z"/>
		<path class="st2" d="M215.4,192.4C215.4,192.4,215.4,192.4,215.4,192.4h-11.5c-0.4,0-0.8-0.2-1-0.4c-0.3-0.3-0.4-0.6-0.4-1
			c0-0.8,0.6-1.4,1.4-1.4c0,0,0,0,0,0h11.4c0.8,0,1.4,0.7,1.4,1.4C216.8,191.8,216.2,192.4,215.4,192.4z M215.4,191.9
			C215.4,191.9,215.4,191.9,215.4,191.9c0.5,0,0.9-0.4,0.9-0.9c0-0.5-0.4-0.9-0.9-0.9h-11.5c0,0,0,0,0,0c-0.5,0-0.9,0.4-0.9,0.9
			c0,0.2,0.1,0.5,0.3,0.7c0.2,0.2,0.4,0.3,0.6,0.3H215.4z"/>
	</g>
	<g>
		<path class="st2" d="M198.7,195.1c-0.6,0-1.2,0.5-1.2,1.2c0,0.6,0.5,1.2,1.2,1.2c0,0,0,0,0,0h16.7c0.6,0,1.2-0.5,1.2-1.2
			c0-0.6-0.5-1.2-1.2-1.2c0,0,0,0,0,0H198.7z"/>
		<path class="st2" d="M215.4,197.7C215.4,197.7,215.4,197.7,215.4,197.7h-16.7c-0.8,0-1.4-0.7-1.4-1.4c0-0.8,0.6-1.4,1.4-1.4
			c0,0,0,0,0,0h16.7c0.8,0,1.4,0.7,1.4,1.4C216.8,197,216.2,197.7,215.4,197.7z M215.4,197.2C215.4,197.2,215.4,197.2,215.4,197.2
			c0.5,0,0.9-0.4,0.9-0.9c0-0.5-0.4-0.9-0.9-0.9h-16.7c-0.5,0-0.9,0.4-0.9,0.9c0,0.5,0.4,0.9,0.9,0.9H215.4z"/>
	</g>
</g>
</svg>
