<?xml version="1.0" encoding="utf-8"?>
<!-- Generator: Adobe Illustrator 22.1.0, SVG Export Plug-In . SVG Version: 6.00 Build 0)  -->
<svg version="1.1" id="Layer_1" xmlns="http://www.w3.org/2000/svg" xmlns:xlink="http://www.w3.org/1999/xlink" x="0px" y="0px"
	 viewBox="0 0 128 128" style="enable-background:new 0 0 128 128;" xml:space="preserve">
<style type="text/css">
	.st0{fill:#474747;}
	.st1{fill:#FFFFFF;}
</style>
<circle class="st0" cx="64" cy="64" r="64"/>
<g>
	<g>
		<path class="st1" d="M65,91.2c-0.3,0-0.7-0.1-1-0.2c-0.9-0.4-1.5-1.3-1.5-2.3V63.4L44.6,45.5c-1-1-1-2.6,0-3.6c1-1,2.6-1,3.6,0
			l14.3,14.3V36c0-1.4,1.1-2.5,2.5-2.5c1.4,0,2.5,1.1,2.5,2.5v25.3l12.4,12.5c1,1,1,2.6,0,3.5L66.7,90.5C66.3,91,65.6,91.2,65,91.2z
			 M67.5,68.4v14.3l7.1-7.1L67.5,68.4z"/>
	</g>
	<g>
		<path class="st1" d="M65,91.2c-1.4,0-2.5-1.1-2.5-2.5V68.5L48.1,82.8c-1,1-2.6,1-3.6,0c-1-1-1-2.6,0-3.6l17.9-17.9V36.1
			c0-1,0.6-2,1.5-2.4c0.9-0.4,2-0.2,2.7,0.5l13.2,13.2c1,1,1,2.6,0,3.5L67.5,63.4v25.3C67.5,90.1,66.3,91.2,65,91.2z M67.5,42.1
			v14.3l7.1-7.1L67.5,42.1z"/>
	</g>
</g>
</svg>
