<?xml version="1.0" encoding="utf-8"?>
<!-- Generator: Adobe Illustrator 22.1.0, SVG Export Plug-In . SVG Version: 6.00 Build 0)  -->
<svg version="1.1" id="Layer_1" xmlns="http://www.w3.org/2000/svg" xmlns:xlink="http://www.w3.org/1999/xlink" x="0px" y="0px"
	 viewBox="0 0 128 128" style="enable-background:new 0 0 128 128;" xml:space="preserve">
<style type="text/css">
	.st0{fill:#474747;}
	.st1{fill:#FFFFFF;}
	.st2{fill:none;stroke:#FFFFFF;stroke-width:2;stroke-linecap:round;stroke-miterlimit:10;}
</style>
<g>
	<circle class="st0" cx="64" cy="64" r="64"/>
</g>
<g>
	<path class="st1" d="M59.8,87.9H46.1c-1.7,0-3.2-1.5-3.2-3.3V36.8c0-1.8,1.4-3.3,3.2-3.3h35.3c1.7,0,3.2,1.5,3.2,3.3V60
		c1,0.3,2,0.6,3,1V36.8c0-3.5-2.8-6.4-6.2-6.4H46.1c-3.4,0-6.2,2.9-6.2,6.4v47.8c0,3.5,2.8,6.4,6.2,6.4h15
		C60.5,90,60.1,89,59.8,87.9z"/>
	<path class="st1" d="M61.5,91.3H46.1c-3.6,0-6.5-3-6.5-6.7V36.8c0-3.7,2.9-6.7,6.5-6.7h35.3c3.6,0,6.4,3,6.4,6.7v24.6l-0.3-0.1
		c-1-0.4-2-0.7-3-1l-0.2-0.1l0-0.2V36.8c0-1.6-1.4-3.1-2.9-3.1H46.1c-1.6,0-3,1.4-3,3.1v47.8c0,1.6,1.4,3,3,3H60l0.1,0.2
		c0.3,1.1,0.7,2.1,1.3,3L61.5,91.3z M46.1,30.6c-3.3,0-6,2.8-6,6.2v47.8c0,3.4,2.7,6.2,6,6.2h14.6c-0.4-0.8-0.8-1.6-1.1-2.6H46.1
		c-1.9,0-3.5-1.6-3.5-3.5V36.8c0-2,1.5-3.6,3.5-3.6h35.3c1.9,0,3.4,1.6,3.4,3.6v23c0.8,0.2,1.7,0.5,2.5,0.8V36.8
		c0-3.4-2.7-6.2-5.9-6.2H46.1z"/>
</g>
<g>
	<path class="st1" d="M78.4,99.9c-11.5,0-20.8-9.3-20.8-20.8s9.3-20.8,20.8-20.8c11.5,0,20.8,9.3,20.8,20.8S89.9,99.9,78.4,99.9z
		 M78.4,61.3c-9.8,0-17.8,8-17.8,17.8s8,17.8,17.8,17.8c9.8,0,17.8-8,17.8-17.8S88.2,61.3,78.4,61.3z"/>
</g>
<g>
	<rect x="58.9" y="40.8" class="st1" width="20.9" height="4.5"/>
</g>
<g>
	<rect x="59.4" y="52.1" class="st1" width="20.9" height="4.5"/>
</g>
<g>
	<rect x="48.9" y="40.8" class="st1" width="6.1" height="4.5"/>
</g>
<g>
	<rect x="49" y="52.1" class="st1" width="6.1" height="4.5"/>
</g>
<g>
	<rect x="49" y="63.3" class="st1" width="6.1" height="4.5"/>
</g>
<g>
	<rect x="49" y="75.9" class="st1" width="6.1" height="4.5"/>
</g>
<path class="st1" d="M70,63.3H59.4v4.5h5.2C66.1,66,67.9,64.5,70,63.3z"/>
<path class="st1" d="M70.7,86.7c0,0.4-0.3,0.7-0.6,0.7h-2.5c-0.4,0-0.6-0.3-0.6-0.7v-2.9c0-0.4,0.3-0.7,0.6-0.7h2.5
	c0.4,0,0.6,0.3,0.6,0.7V86.7z"/>
<path class="st1" d="M76.3,86.7c0,0.4-0.3,0.7-0.6,0.7h-2.3c-0.3,0-0.6-0.3-0.6-0.7v-5.9c0-0.4,0.3-0.7,0.6-0.7h2.3
	c0.3,0,0.6,0.3,0.6,0.7V86.7z"/>
<path class="st1" d="M82.1,86.7c0,0.4-0.3,0.7-0.6,0.7h-2.3c-0.3,0-0.6-0.3-0.6-0.7v-8c0-0.4,0.3-0.7,0.6-0.7h2.3
	c0.3,0,0.6,0.3,0.6,0.7V86.7z"/>
<path class="st1" d="M87.8,86.7c0,0.4-0.3,0.7-0.6,0.7H85c-0.3,0-0.6-0.3-0.6-0.7V75c0-0.4,0.3-0.7,0.6-0.7h2.2
	c0.3,0,0.6,0.3,0.6,0.7V86.7z"/>
<polyline class="st2" points="67.5,77.3 72,74.3 75.7,75.9 80.8,72.1 85.2,72.1 87.8,68.2 "/>
</svg>
