<?xml version="1.0" encoding="utf-8"?>
<!-- Generator: Adobe Illustrator 23.0.1, SVG Export Plug-In . SVG Version: 6.00 Build 0)  -->
<svg version="1.1" id="Layer_1" xmlns="http://www.w3.org/2000/svg" xmlns:xlink="http://www.w3.org/1999/xlink" x="0px" y="0px"
	 viewBox="0 0 128 128" style="enable-background:new 0 0 128 128;" xml:space="preserve">
<style type="text/css">
	.st0{fill:#E89E00;}
	.st1{fill:#FFD16F;}
</style>
<circle class="st0" cx="64" cy="63.9" r="64"/>
<g>
	<path class="st1" d="M92.2,79c0-0.4-0.3-0.8-0.8-0.8h-6.7c-0.4,0-0.8,0.3-0.8,0.8v1.4c0,0.4,0.3,0.8,0.8,0.8h6.7
		c0.5,0,0.9-0.4,0.8-0.8V79z"/>
	<path class="st1" d="M99.1,44.4h-1.1v-3.1c0.1-1.8-1.4-3.4-3.3-3.4H29.3c-1.8,0-3.4,1.6-3.4,3.4v36.6c0,1.8,1.6,3.4,3.4,3.4H71V85
		c0,0.1,0,0.2,0,0.3H27.5c-0.7,0-1.3,0.5-1.3,1.3v1.1c0,0.7,0.5,1.3,1.3,1.3h69.3c0,0,0.1,0,0.1,0h2.2c2.2,0,4-1.8,4-4V48.4
		C103.1,46.2,101.3,44.4,99.1,44.4z M100,81.2c0,2.2-1.8,4-4,4H78.4c-2.2,0-4-1.8-4-4v-3.8v-7.5h3.2v-3l-11.5,0
		c-1.3-0.1-2.4-0.7-3.1-1.6l0,0c-0.8-0.9-1.3-2.2-1.3-3.5v-2.1l1.2,1.4l1.9-2.2L60.4,54l-4.5,5.1l1.9,2.2l1.2-1.4V62
		c0,2.1,0.7,4.1,2.1,5.6c1.3,1.5,3.1,2.3,5,2.3H71v7.5H29.6l0.1-35.9h64.8v2.9H74.9c-2.2,0-4,1.8-4,4v4.8h-4.3v3h11.5
		c1.2,0,2.1,0.5,3,1.5c0.8,0.9,1.3,2.2,1.3,3.4v2.1l-1.2-1.4l-2,2.2l4.5,5.1l4.5-5.1l-1.9-2.2l-1.2,1.4v-2.1c0-2.1-0.7-4.1-2.1-5.6
		c-1.3-1.5-3.1-2.3-5-2.3h-3.7v-1c0-2.2,1.8-4,4-4H96c2.2,0,4,1.8,4,4V81.2z"/>
</g>
</svg>
