<?xml version="1.0" encoding="utf-8"?>
<!-- Generator: Adobe Illustrator 22.1.0, SVG Export Plug-In . SVG Version: 6.00 Build 0)  -->
<svg version="1.1" id="Layer_1" xmlns="http://www.w3.org/2000/svg" xmlns:xlink="http://www.w3.org/1999/xlink" x="0px" y="0px"
	 viewBox="0 0 128 128" style="enable-background:new 0 0 128 128;" xml:space="preserve">
<style type="text/css">
	.st0{fill:#474747;}
	.st1{fill:#FFFFFF;stroke:#FFFFFF;stroke-width:0.5;stroke-miterlimit:10;}
	.st2{fill:none;stroke:#FFFFFF;stroke-width:3;stroke-miterlimit:10;}
	.st3{fill:#FFFFFF;}
</style>
<circle class="st0" cx="64" cy="64" r="64"/>
<path class="st1" d="M59.8,87.9H46.1c-1.7,0-3.2-1.5-3.2-3.3V36.8c0-1.8,1.4-3.3,3.2-3.3h35.3c1.7,0,3.2,1.5,3.2,3.3V60
	c1,0.3,2,0.6,3,1V36.8c0-3.5-2.8-6.4-6.2-6.4H46.1c-3.4,0-6.2,2.9-6.2,6.4v47.8c0,3.5,2.8,6.4,6.2,6.4h15C60.5,90,60.1,89,59.8,87.9
	z"/>
<circle class="st2" cx="78.4" cy="79.1" r="19.3"/>
<path class="st1" d="M51.4,39.8v1.9c-0.5,0.1-1,0.2-1.4,0.4c-0.4,0.2-0.8,0.4-1.1,0.7c-0.3,0.3-0.5,0.6-0.7,1
	c-0.2,0.4-0.2,0.8-0.2,1.3c0,0.5,0.1,1,0.3,1.4c0.2,0.4,0.4,0.8,0.8,1c0.4,0.3,0.8,0.6,1.2,0.8c0.5,0.2,1,0.4,1.6,0.6
	c0.5,0.2,0.8,0.3,1.2,0.5c0.3,0.2,0.6,0.3,0.8,0.5s0.4,0.4,0.4,0.6c0.1,0.2,0.1,0.5,0.1,0.7c0,0.3,0,0.6-0.2,0.8
	c-0.1,0.2-0.3,0.5-0.5,0.6c-0.2,0.2-0.5,0.3-0.8,0.4c-0.3,0.1-0.7,0.2-1.1,0.2c-0.3,0-0.6,0-0.9-0.1c-0.3-0.1-0.6-0.2-0.8-0.4
	s-0.4-0.4-0.6-0.8c-0.2-0.3-0.2-0.7-0.2-1.2h-2c0,0.6,0.1,1.2,0.3,1.7c0.2,0.5,0.5,0.8,0.8,1.2c0.4,0.3,0.8,0.6,1.2,0.7
	c0.4,0.2,0.9,0.3,1.4,0.3v1.7h1.6v-1.7c0.6,0,1.1-0.2,1.6-0.4c0.5-0.2,0.8-0.4,1.2-0.7c0.3-0.3,0.6-0.6,0.8-1
	c0.2-0.4,0.3-0.8,0.3-1.4c0-0.5-0.1-1-0.2-1.4c-0.2-0.4-0.4-0.7-0.8-1c-0.3-0.3-0.7-0.6-1.2-0.8c-0.5-0.2-1-0.4-1.7-0.6
	c-0.5-0.2-0.9-0.3-1.2-0.5c-0.3-0.2-0.6-0.4-0.8-0.5c-0.2-0.2-0.4-0.4-0.4-0.6c-0.1-0.2-0.1-0.5-0.1-0.8c0-0.3,0-0.6,0.1-0.8
	s0.2-0.5,0.4-0.6c0.2-0.2,0.4-0.3,0.7-0.4c0.3-0.1,0.6-0.2,1-0.2c0.4,0,0.7,0.1,1,0.2s0.5,0.3,0.7,0.6c0.2,0.2,0.3,0.5,0.4,0.8
	c0.1,0.3,0.2,0.7,0.2,1.1h2c0-1.2-0.3-2.1-0.9-2.8c-0.6-0.7-1.4-1.1-2.5-1.2v-1.9L51.4,39.8L51.4,39.8z"/>
<path class="st3" d="M62.4,41.2c-1.9,0.1-1.8,3.7,0.2,3.5h14.3c1.9,0,1.9-3.5,0-3.5H62.5C62.5,41.2,62.4,41.2,62.4,41.2z"/>
<path class="st3" d="M62.4,52.6c-1.9,0.1-1.8,3.7,0.2,3.5h14.3c1.9,0,1.9-3.5,0-3.5H62.5C62.5,52.6,62.4,52.6,62.4,52.6z"/>
<path class="st3" d="M50.5,63.9c-3.4,0.1-3.1,3.7,0.3,3.5h12c3.4,0,5.4-3.5,2-3.5H50.7C50.7,63.9,50.6,63.9,50.5,63.9z"/>
<path class="st3" d="M50.5,75.2c-3.4,0.1-3.1,3.7,0.3,3.5h7c3.4,0,3.4-3.5,0-3.5h-7.1C50.7,75.2,50.6,75.2,50.5,75.2z"/>
<rect x="75.7" y="68.6" transform="matrix(0.7071 0.7071 -0.7071 0.7071 78.8851 -31.8955)" class="st3" width="4.5" height="21.4"/>
<rect x="75.9" y="68.6" transform="matrix(0.7071 -0.7071 0.7071 0.7071 -33.2012 78.4369)" class="st3" width="4.5" height="21.4"/>
</svg>
