<?xml version="1.0" encoding="utf-8"?>
<!-- Generator: Adobe Illustrator 23.0.2, SVG Export Plug-In . SVG Version: 6.00 Build 0)  -->
<svg version="1.1" id="Layer_1" xmlns="http://www.w3.org/2000/svg" xmlns:xlink="http://www.w3.org/1999/xlink" x="0px" y="0px"
	 viewBox="0 0 128 128" style="enable-background:new 0 0 128 128;" xml:space="preserve">
<style type="text/css">
	.st0{fill:#F1F5F8;}
	.st1{fill:#888B8F;}
</style>
<circle class="st0" cx="63.8" cy="63.9" r="63.1"/>
<g>
	<g>
		<g>
			<path class="st1" d="M68.6,87.6h-4.7v-6.3c-1.2-2.5-1.8-5.2-1.8-8.1s0.7-5.6,1.8-8.1v-1.5h0.8c0.6-1,1.3-2,2.1-2.9h-2.9V50.2
				h14.6v4.1c0.9-0.1,1.8-0.2,2.8-0.2v-3.8h14.6v10.5h-0.1c1.1,1.3,2.1,2.8,2.9,4.4V37c0-1.8-1.4-3.3-3-3.3H29.3c-1.7,0-3,1.5-3,3.3
				v50.3c0,1.8,1.4,3.3,3,3.3h43.7C71.4,89.8,69.9,88.8,68.6,87.6z M81.3,36.7h14.4c0.1,0,0.2,0.1,0.2,0.3v10.2H81.3V36.7z
				 M63.9,36.7h14.6v10.5H63.9V36.7z M43.7,87.6H29.3c-0.1,0-0.2-0.1-0.2-0.3V77.1h14.6V87.6z M43.7,74.2H29.1V63.6h14.6V74.2z
				 M43.7,60.7H29.1V50.2h14.6V60.7z M43.7,47.2H29.1V37c0-0.2,0.1-0.3,0.2-0.3h14.4V47.2z M61.1,87.6H46.5V77.1h14.6V87.6z
				 M61.1,74.2H46.5V63.6h14.6V74.2z M61.1,60.7H46.5V50.2h14.6V60.7z M61.1,47.2H46.5V36.7h14.6V47.2z"/>
		</g>
		<g>
			<path class="st1" d="M95.9,85.7v1.6c0,0.2-0.1,0.3-0.2,0.3H94c-1.3,1.2-2.8,2.2-4.4,2.9h6.1c1.7,0,3-1.5,3-3.3v-6
				C98,82.9,97.1,84.4,95.9,85.7z"/>
		</g>
	</g>
	<g>
		<path class="st1" d="M81.3,94.1c-11.5,0-20.8-9.3-20.8-20.8c0-11.5,9.3-20.8,20.8-20.8s20.8,9.3,20.8,20.8
			C102.1,84.8,92.8,94.1,81.3,94.1z M81.3,55.6c-9.8,0-17.8,8-17.8,17.8c0,9.8,8,17.8,17.8,17.8s17.8-8,17.8-17.8
			C99.1,63.6,91.1,55.6,81.3,55.6z"/>
	</g>
	<g>
		<rect x="72" y="67.3" class="st1" width="14.8" height="3"/>
	</g>
	<g>
		<polygon class="st1" points="92.3,68.8 89.6,71.1 86.8,73.4 86.8,68.8 86.8,64.1 89.6,66.4 		"/>
	</g>
	<g>
		<g>
			<rect x="77.5" y="75.7" class="st1" width="14.8" height="3"/>
		</g>
		<g>
			<polygon class="st1" points="72,77.2 74.8,74.9 77.5,72.6 77.5,77.2 77.5,81.7 74.8,79.5 			"/>
		</g>
	</g>
</g>
</svg>
