<?xml version="1.0" encoding="utf-8"?>
<!-- Generator: Adobe Illustrator 22.1.0, SVG Export Plug-In . SVG Version: 6.00 Build 0)  -->
<svg version="1.1" id="Layer_1" xmlns="http://www.w3.org/2000/svg" xmlns:xlink="http://www.w3.org/1999/xlink" x="0px" y="0px"
	 viewBox="0 0 128 128" style="enable-background:new 0 0 128 128;" xml:space="preserve">
<style type="text/css">
	.st0{fill:#0AE0AA;}
	.st1{fill:#FFFFFF;}
</style>
<g>
	<circle class="st0" cx="64.5" cy="64" r="63.1"/>
</g>
<g>
	<path class="st1" d="M75.4,102.4c-2.4,0-4.7-1.6-6.8-3c-1.4-1-3.2-2.2-4.2-2.2c-1,0-2.7,1.2-4.2,2.2c-2.5,1.7-5.4,3.7-8.4,2.7
		c-3.1-1-4.3-4.4-5.3-7.3c-0.5-1.5-1.3-3.6-2-4.1c-0.7-0.5-2.9-0.6-4.5-0.6c-3.1-0.1-6.6-0.2-8.5-2.7c-1.9-2.6-0.9-6,0-9
		c0.5-1.6,1.1-3.7,0.8-4.5c-0.3-0.8-2-2.1-3.2-3c-2.5-1.9-5.4-4.1-5.4-7.4s2.9-5.5,5.4-7.4c1.2-0.9,2.9-2.2,3.2-3
		c0.3-0.9-0.3-2.9-0.8-4.6c-0.9-3-1.9-6.4,0-8.9c1.9-2.6,5.4-2.7,8.5-2.8c1.7,0,3.8-0.1,4.5-0.6c0.7-0.5,1.4-2.6,1.9-4.1
		c1-3,2.2-6.3,5.3-7.3c3-1,5.9,1,8.4,2.8c1.4,1,3.2,2.2,4.2,2.2c1,0,2.7-1.2,4.2-2.2c2.5-1.7,5.4-3.7,8.4-2.7c3.1,1,4.3,4.4,5.3,7.3
		c0.5,1.5,1.3,3.6,2,4.1c0.7,0.5,2.9,0.6,4.5,0.6c3.1,0.1,6.6,0.2,8.5,2.7c1.9,2.6,0.9,6,0,9c-0.5,1.6-1.1,3.7-0.8,4.5
		c0.3,0.8,2,2.1,3.2,3c2.5,1.9,5.4,4.1,5.4,7.4c0,3.3-2.9,5.5-5.4,7.4c-1.2,0.9-2.9,2.2-3.2,3c-0.3,0.9,0.3,2.9,0.8,4.6
		c0.9,3,1.9,6.4,0,8.9c-1.9,2.6-5.4,2.7-8.6,2.8c-1.7,0-3.8,0.1-4.5,0.6c-0.7,0.5-1.4,2.6-1.9,4.1c-1,3-2.2,6.3-5.3,7.3
		C76.5,102.4,76,102.4,75.4,102.4z M64.5,92.2c2.5,0,4.8,1.6,7,3.1c1.1,0.8,3.4,2.3,4,2.1c0.7-0.2,1.6-2.8,2.1-4.2
		c0.9-2.5,1.8-5,3.7-6.4c2-1.4,4.7-1.5,7.3-1.6c1.5,0,4.2-0.1,4.7-0.7c0.4-0.6-0.3-3.2-0.8-4.5c-0.8-2.5-1.5-5.2-0.8-7.5
		c0,0,0,0,0,0c0.7-2.3,2.9-3.9,4.9-5.4c1.3-1,3.4-2.6,3.4-3.4c0-0.8-2.1-2.4-3.4-3.4c-2.1-1.6-4.2-3.2-4.9-5.5c-0.8-2.3,0-5,0.8-7.5
		c0.4-1.4,1.2-4,0.8-4.6c-0.4-0.6-3.1-0.6-4.6-0.7c-2.6-0.1-5.4-0.1-7.4-1.6c-2-1.4-2.9-4-3.7-6.4c-0.5-1.5-1.4-4-2.1-4.2
		c-0.6-0.2-2.9,1.4-4,2.1c-2.2,1.5-4.5,3.1-7,3.1c-2.5,0-4.8-1.6-7-3.1c-1.1-0.8-3.4-2.3-4-2.1c-0.7,0.2-1.6,2.8-2.1,4.2
		c-0.9,2.5-1.8,5-3.7,6.4c-2,1.4-4.7,1.5-7.4,1.6c-1.5,0-4.2,0.1-4.6,0.7c-0.4,0.6,0.3,3.2,0.8,4.6c0.8,2.5,1.5,5.2,0.8,7.5
		c-0.7,2.3-2.9,3.9-4.9,5.5c-1.3,1-3.4,2.6-3.4,3.4s2.1,2.4,3.4,3.4c2.1,1.6,4.2,3.2,4.9,5.4c0.8,2.4,0,5-0.8,7.5
		c-0.4,1.4-1.2,4-0.8,4.6c0.4,0.6,3.1,0.6,4.6,0.7c2.6,0.1,5.4,0.1,7.4,1.6c2,1.4,2.9,4,3.7,6.5c0.5,1.4,1.4,4,2.1,4.2
		c0.6,0.2,2.9-1.4,4-2.1C59.7,93.8,62,92.2,64.5,92.2z"/>
</g>
<g>
	<g>
		<path class="st1" d="M44.7,70.3V57.7h2.5l5.1,8.4v-8.4h2.4v12.6h-2.5L47,62.1v8.2H44.7z"/>
	</g>
	<g>
		<path class="st1" d="M57.3,70.3V57.7h9.3v2.1h-6.8v2.8h6.3v2.1h-6.3v3.4h7v2.1H57.3z"/>
	</g>
	<g>
		<path class="st1" d="M70.8,70.3l-3-12.6h2.6l1.9,8.6l2.3-8.6h3l2.2,8.8l1.9-8.8h2.6l-3.1,12.6h-2.7l-2.5-9.4l-2.5,9.4H70.8z"/>
	</g>
</g>
</svg>
