<?xml version="1.0" encoding="utf-8"?>
<!-- Generator: Adobe Illustrator 22.1.0, SVG Export Plug-In . SVG Version: 6.00 Build 0)  -->
<svg version="1.1" id="Layer_1" xmlns="http://www.w3.org/2000/svg" xmlns:xlink="http://www.w3.org/1999/xlink" x="0px" y="0px"
	 viewBox="0 0 473 325" style="enable-background:new 0 0 473 325;" xml:space="preserve">
<style type="text/css">
	.st0{fill:#FFFFFF;}
	.st1{fill:#5F584B;}
</style>
<path class="st0" d="M442.4,318H35.4c-12.2,0-22.1-10-22.1-22.1v-267c0-12.2,10-22.1,22.1-22.1h407.1c12.2,0,22.1,10,22.1,22.1v267
	C464.6,308,454.5,318,442.4,318z"/>
<g>
	<rect x="38.9" y="28.8" class="st1" width="11.8" height="268.4"/>
	<rect x="129" y="28.8" class="st1" width="11.8" height="246.3"/>
	<rect x="62.9" y="28.8" class="st1" width="23.6" height="246.3"/>
	<rect x="93" y="28.8" class="st1" width="23.6" height="246.3"/>
	<rect x="183.3" y="28.8" class="st1" width="23.6" height="246.3"/>
	<rect x="243.3" y="28.8" class="st1" width="23.6" height="246.3"/>
	<rect x="303.5" y="28.8" class="st1" width="23.6" height="246.3"/>
	<rect x="393.8" y="28.8" class="st1" width="23.6" height="246.3"/>
	<rect x="159.1" y="28.8" class="st1" width="11.8" height="246.3"/>
	<rect x="279.3" y="28.8" class="st1" width="11.8" height="246.3"/>
	<rect x="339.5" y="28.8" class="st1" width="11.8" height="246.3"/>
	<rect x="369.6" y="28.8" class="st1" width="11.8" height="246.3"/>
	<rect x="219.3" y="28.8" class="st1" width="11.8" height="268.4"/>
	<rect x="429.7" y="28.8" class="st1" width="11.8" height="268.4"/>
</g>
</svg>
