<svg xmlns="http://www.w3.org/2000/svg" width="66.144" height="79.4" viewBox="0 0 66.144 79.4">
  <path id="img-menu-distribution-pickup" d="M-7177.4-200.2l-.1-.2V-208l-.5-20h-4.8v-23.8a8.061,8.061,0,0,1,6.24-7.888,8.061,8.061,0,0,1-6.341-7.911,8.067,8.067,0,0,1,8.1-8.1,8.067,8.067,0,0,1,8.1,8.1,8.062,8.062,0,0,1-6.066,7.846,8.476,8.476,0,0,1,4.465,2.853l9.3,8.8h3.8c1.5,0,2.9,1,4,2.6a7.032,7.032,0,0,1,1,5v2.332l15.187,31.355,17-7.837,1.254,2.726-19.98,9.208-1.255-2.724.253-.117L-7153.21-237.5h-10.29l-3.2-3.4v12.8h-.1l-.3,18v7.2a5.348,5.348,0,0,1-3.8,6.3,3.921,3.921,0,0,1-1.4.3A5.254,5.254,0,0,1-7177.4-200.2Zm-2.6-51.6v20.9h4.7l.6,21h.1v2l.1,7a2.389,2.389,0,0,0,2.8,1.5,2.231,2.231,0,0,0,1.6-2.8l-.1-.2V-210l.4-20.9v-17.5l7.5,8h8.9a3.642,3.642,0,0,0-.5-3.4c-.5-.8-1.1-1.2-1.4-1.2h-5l-10.5-9.9a5,5,0,0,0-3.4-2h-.7A5.122,5.122,0,0,0-7180-251.8Zm.1-15.8a5.122,5.122,0,0,0,5.1,5.1,5.122,5.122,0,0,0,5.1-5.1,5.122,5.122,0,0,0-5.1-5.1A5.122,5.122,0,0,0-7179.9-267.6Zm28.2,61.2a6.061,6.061,0,0,1,6.1-6.1,6.062,6.062,0,0,1,6.1,6.1,6.126,6.126,0,0,1-6.1,6.1A6.061,6.061,0,0,1-7151.7-206.4Zm3,0a3.117,3.117,0,0,0,3.1,3.1,3.115,3.115,0,0,0,3.1-3.1,3.114,3.114,0,0,0-3.1-3.1A3.115,3.115,0,0,0-7148.7-206.4Zm14.6-3.4a4.1,4.1,0,0,1-2.2-2.1l-9-20.4a8.645,8.645,0,0,1,1.3-8.9,2.969,2.969,0,0,1-1.6-.2,2.985,2.985,0,0,1-1.7-1.6l-.3-.7a3,3,0,0,1,1.6-4l7.6-3.3a3.633,3.633,0,0,1,2.3-.1,2.982,2.982,0,0,1,1.7,1.6l.3.7a2.924,2.924,0,0,1-.9,3.6,8.431,8.431,0,0,1,7.4,5l9,20.4a4.425,4.425,0,0,1,.1,3,3.77,3.77,0,0,1-2.1,2.2l-10.5,4.6a2.7,2.7,0,0,1-1.6.5A3.191,3.191,0,0,1-7134.1-209.8Zm.5-3.4a1.207,1.207,0,0,0,.5.5.845.845,0,0,0,.7,0l10.5-4.6a1.205,1.205,0,0,0,.5-.5.845.845,0,0,0,0-.7l-2.651-6.038-12.177,5.383Zm-3.6-8.152,12.181-5.384-4.4-10.015-12.2,5.392Zm-1.6-19.849-1.3.6a5.337,5.337,0,0,0-2.5,7l.021.047,12.2-5.394-.023-.052a5.426,5.426,0,0,0-6.9-2.9l-1.3.5-2.2-4.4Zm-6.1-3.8.3.8,3.8-1.6,3.8-1.7-.3-.8Zm8,17.5a4.577,4.577,0,0,1,2.3-6,4.577,4.577,0,0,1,6,2.3,4.706,4.706,0,0,1,.1,3.5,4.511,4.511,0,0,1-2.4,2.5,4.62,4.62,0,0,1-1.9.4A4.446,4.446,0,0,1-7136.9-227.5Zm3.5-3.2a1.508,1.508,0,0,0-.8,2,1.506,1.506,0,0,0,2,.8,1.553,1.553,0,0,0,.8-.8,2.461,2.461,0,0,0,0-1.2,1.509,1.509,0,0,0-1.4-.9A1.28,1.28,0,0,0-7133.4-230.7Z" transform="translate(7182.9 275.7)" fill="#31b2f5"/>
</svg>
