<?xml version="1.0" encoding="utf-8"?>
<!-- Generator: Adobe Illustrator 22.1.0, SVG Export Plug-In . SVG Version: 6.00 Build 0)  -->
<svg version="1.1" id="Layer_1" xmlns="http://www.w3.org/2000/svg" xmlns:xlink="http://www.w3.org/1999/xlink" x="0px" y="0px"
	 viewBox="0 0 128 128" style="enable-background:new 0 0 128 128;" xml:space="preserve">
<style type="text/css">
	.st0{fill:#F76A74;}
</style>
<g>
	<g>
		<path class="st0" d="M61,41.3c0-1.1,0.3-1.9,0.9-2.6c0.6-0.7,1.4-1,2.3-1c0.9,0,1.6,0.3,2.3,1c0.6,0.7,1,1.5,1,2.6v54.6
			c0,0.7-0.2,1.3-0.5,1.8c-0.3,0.5-0.7,1-1.2,1.3c-0.5,0.3-1,0.5-1.6,0.5c-0.9,0-1.7-0.4-2.3-1.1c-0.6-0.7-0.9-1.6-0.9-2.5L61,41.3
			L61,41.3z M42.4,41.3c0-1.1,0.3-1.9,0.9-2.6c0.6-0.7,1.4-1,2.2-1c0.9,0,1.6,0.3,2.2,1c0.6,0.7,0.9,1.5,0.9,2.6v54.6
			c0,1-0.3,1.8-0.9,2.5c-0.6,0.7-1.4,1.1-2.2,1.1c-0.9,0-1.6-0.4-2.2-1.1c-0.6-0.7-0.9-1.6-0.9-2.5V41.3z M78,41.3
			c0-0.4,0.1-0.7,0.2-1c0.1-0.3,0.2-0.6,0.4-0.8c0.1-0.3,0.3-0.5,0.5-0.7c0.2-0.2,0.4-0.4,0.7-0.6c0.2-0.1,0.5-0.3,0.8-0.3
			s0.5-0.1,0.8-0.1c0.9,0,1.7,0.3,2.3,1c0.6,0.7,0.9,1.5,0.9,2.6v54.6c0,0.7-0.1,1.3-0.4,1.8c-0.3,0.5-0.7,1-1.2,1.3
			c-0.5,0.3-1.1,0.5-1.7,0.5c-0.9,0-1.6-0.4-2.3-1.1c-0.6-0.7-1-1.6-1-2.5L78,41.3L78,41.3z M106.7,22.7H87.3v-4.5
			c0-1.7-0.7-3.2-2.1-4.4c-1.4-1.2-3.1-1.9-5.1-1.9H46.8c-2,0-3.7,0.6-5.1,1.9c-1.4,1.2-2.1,2.7-2.1,4.4v4.5h-20
			c-1,0-1.8,0.4-2.5,1.1c-0.7,0.7-1.1,1.4-1.1,2.4c0,1,0.4,1.9,1.1,2.5c0.7,0.7,1.6,1,2.5,1h7.6v75.9c0,1.9,0.7,3.6,2.1,5
			c1.4,1.4,3.1,2.1,5.1,2.1h58c1.3,0,2.5-0.3,3.6-1c1.1-0.6,2-1.5,2.6-2.6c0.6-1.1,1-2.3,1-3.5V29.7h7c1,0,1.8-0.3,2.5-1
			c0.7-0.7,1.1-1.5,1.1-2.5c0-1-0.4-1.6-1.1-2.4C108.5,23.1,107.6,22.7,106.7,22.7z M45.6,16.7h35.9v6.1H45.6V16.7z M90.3,107
			c-32.7,0.1-50.4,0.1-53.2,0.1c-1.3,0-2.2-0.3-2.8-1c-0.6-0.7-1-1.4-1.1-2.1V33.3c0-1.2,0.3-2.1,0.9-2.8c0.6-0.6,1.2-0.9,1.8-0.8
			h54.5c0.2,0,0.5,0.1,1,0.2c0.5,0.1,1,0.3,1.4,0.5c0.4,0.2,0.7,0.6,1.1,1.1c0.3,0.5,0.5,1.1,0.5,1.8v70.1c0,1.1-0.3,1.9-1,2.5
			c-0.7,0.6-1.3,1-2,1L90.3,107z"/>
	</g>
</g>
</svg>
