<?xml version="1.0" encoding="utf-8"?>
<!-- Generator: Adobe Illustrator 22.1.0, SVG Export Plug-In . SVG Version: 6.00 Build 0)  -->
<svg version="1.1" id="Layer_1" xmlns="http://www.w3.org/2000/svg" xmlns:xlink="http://www.w3.org/1999/xlink" x="0px" y="0px"
	 viewBox="0 0 128 128" style="enable-background:new 0 0 128 128;" xml:space="preserve">
<style type="text/css">
	.st0{fill:#00B4FF;}
</style>
<path class="st0" d="M95.6,43.1c-4.9-12.7-17-21.7-31.4-21.7c-17.6,0-32,13.7-33.5,30.9c-11.4,1.4-20.2,11-20.2,22.8
	c0,12.7,10.3,23,23,23h59.8c15.2,0,27.6-12.4,27.6-27.6C120.9,56,109.7,44.3,95.6,43.1z M93.3,91.9H33.5c-9.4,0-16.9-7.5-16.9-16.9
	s7.5-16.9,16.9-16.9c1.7,0,3.1-1.4,3.1-3.1c0-15.3,12.3-27.6,27.6-27.6c12.4,0,22.8,8.1,26.3,19.3c0.4,1.3,1.6,2.2,2.9,2.2
	c11.9,0,21.4,9.6,21.4,21.5C114.8,82.4,105.2,91.9,93.3,91.9z"/>
<path class="st0" d="M66,84.3c1.6-0.2,2.8-1.5,2.7-3.1V50.5l7.4,5.6c0.6,0.4,1.3,0.6,2,0.6c1.7-0.1,3-1.5,3-3.2c0-1-0.5-1.8-1.3-2.4
	l-12.3-9.2c-1.1-0.8-2.6-0.8-3.6,0l-12.3,9.2c-1.4,1-1.7,2.9-0.7,4.3s2.9,1.7,4.3,0.7c0,0,0,0,0.1,0l7.4-5.6v30.7
	c0,1.7,1.3,3.1,3,3.1C65.8,84.3,65.9,84.3,66,84.3z"/>
</svg>
