<?xml version="1.0" encoding="utf-8"?>
<!-- Generator: Adobe Illustrator 22.1.0, SVG Export Plug-In . SVG Version: 6.00 Build 0)  -->
<svg version="1.1" id="Layer_1" xmlns="http://www.w3.org/2000/svg" xmlns:xlink="http://www.w3.org/1999/xlink" x="0px" y="0px"
	 viewBox="0 0 128 128" style="enable-background:new 0 0 128 128;" xml:space="preserve">
<style type="text/css">
	.st0{fill:#FFFFFF;}
	.st1{fill:#00B4FF;}
	.st2{fill:none;stroke:#00B4FF;stroke-width:6;stroke-miterlimit:10;}
	.st3{fill:none;stroke:#00B4FF;stroke-width:4;stroke-linecap:round;stroke-linejoin:round;}
</style>
<g>
	<g>
		<path class="st0" d="M90.3,103.5H21.6c-2.6,0-4.7-2.1-4.7-4.7V11.6c0-2.6,2.1-4.7,4.7-4.7h68.7c2.6,0,4.7,2.1,4.7,4.7v87.2
			C94.9,101.4,92.8,103.5,90.3,103.5z"/>
		<path class="st1" d="M90.3,106.5H21.6c-4.2,0-7.7-3.4-7.7-7.7V11.6c0-4.2,3.4-7.7,7.7-7.7h68.7c4.2,0,7.7,3.4,7.7,7.7v87.2
			C97.9,103,94.5,106.5,90.3,106.5z M21.6,9.9c-0.9,0-1.7,0.7-1.7,1.7v87.2c0,0.9,0.7,1.7,1.7,1.7h68.7c0.9,0,1.7-0.7,1.7-1.7V11.6
			c0-0.9-0.7-1.7-1.7-1.7H21.6z"/>
	</g>
	<g>
		<path class="st2" d="M83.7,22.3"/>
	</g>
	<g>
		<path class="st2" d="M48.5,22.3"/>
	</g>
	<g>
		<path class="st2" d="M84.4,41.3"/>
	</g>
	<g>
		<path class="st2" d="M49.2,41.3"/>
	</g>
	<g>
		<path class="st2" d="M84.4,60.2"/>
	</g>
	<g>
		<rect x="49.2" y="78.3" class="st1" width="35.1" height="6"/>
	</g>
	<g>
		<path class="st2" d="M42,22.3"/>
	</g>
	<g>
		<path class="st2" d="M31.7,22.3"/>
	</g>
	<g>
		<path class="st2" d="M42.2,41.3"/>
	</g>
	<g>
		<path class="st2" d="M31.9,41.3"/>
	</g>
	<g>
		<path class="st2" d="M31.9,60.2"/>
	</g>
	<g>
		<path class="st2" d="M42.2,81.3"/>
	</g>
	<g>
		<path class="st2" d="M31.9,81.3"/>
	</g>
</g>
<g>
	<circle class="st0" cx="83.4" cy="89.3" r="33.7"/>
	<path class="st1" d="M83.4,125.4c-20,0-36.2-16.2-36.2-36.2c0-20,16.2-36.2,36.2-36.2s36.2,16.2,36.2,36.2
		C119.6,109.2,103.4,125.4,83.4,125.4z M83.4,58.1c-17.2,0-31.2,14-31.2,31.2c0,17.2,14,31.2,31.2,31.2s31.2-14,31.2-31.2
		C114.6,72.1,100.6,58.1,83.4,58.1z"/>
</g>
<g>
	<g>
		<path class="st1" d="M93.2,83.8c-1.1,0-2-0.9-2-2v-9.8h-15v9.8c0,1.1-0.9,2-2,2s-2-0.9-2-2V70.1c0-1.1,0.9-2,2-2h19
			c1.1,0,2,0.9,2,2v11.8C95.2,82.9,94.3,83.8,93.2,83.8z"/>
	</g>
	<g>
		<path class="st1" d="M93.2,107.5h-19c-1.1,0-2-0.9-2-2V95.3c0-1.1,0.9-2,2-2h19c1.1,0,2,0.9,2,2v10.2
			C95.2,106.6,94.3,107.5,93.2,107.5z M76.2,103.5h15v-6.2h-15V103.5z"/>
	</g>
	<g>
		<path class="st1" d="M101.1,102.8h-7.9c-1.1,0-2-0.9-2-2s0.9-2,2-2h5.9V84.6c0-0.4-0.4-0.8-0.8-0.8H69.1c-0.4,0-0.8,0.4-0.8,0.8
			v14.2h5.9c1.1,0,2,0.9,2,2s-0.9,2-2,2h-7.9c-1.1,0-2-0.9-2-2V84.6c0-2.6,2.2-4.8,4.8-4.8h29.2c2.6,0,4.8,2.1,4.8,4.8v16.2
			C103.1,101.9,102.2,102.8,101.1,102.8z"/>
	</g>
	<g>
		<path class="st3" d="M73.4,88.2"/>
	</g>
</g>
<g>
	<path class="st1" d="M62,17.5c5.1,8.3,10.2,16.5,15.3,24.7C71.1,53.8,56.7,55.5,46,61.6L53,73l-1.9,1.2L28.8,37.8l1.9-1.2l0.1,0.2
		C41.4,30.7,53.9,28.5,62,17.5z M31.4,37.7l3.1,5.1c1.8-1,3.7-1.9,5.6-2.7c-1.1-1.7-2.2-3.4-3.3-5.2C35,35.8,33.1,36.7,31.4,37.7z
		 M41.5,40.5c1.1,1.7,2.1,3.4,3.2,5.1c2-0.9,4-1.7,6-2.5c-1-1.6-2.1-3.3-3.2-5C45.5,38.9,43.5,39.7,41.5,40.5z M44.5,31.6
		c1.2,1.8,2.3,3.6,3.4,5.3c2-0.8,3.9-1.7,5.8-2.7c-1.1-1.7-2.3-3.4-3.5-5.3C48.4,29.9,46.5,30.7,44.5,31.6z M55.2,34.5
		c1.1,1.7,2.1,3.3,3.1,4.9c1.9-1,3.6-2.2,5.3-3.5c-1-1.6-2.1-3.2-3.1-4.9C58.8,32.3,57,33.4,55.2,34.5z M61.8,19.4
		c-1.4,1.9-2.9,3.4-4.6,4.8c1.2,1.8,2.4,3.6,3.5,5.3c1.6-1.4,3.1-3,4.3-5C64,22.8,62.9,21.1,61.8,19.4z M72.4,36.3
		c-1.1-1.7-2.1-3.4-3.2-5.1c-1.3,1.8-2.7,3.4-4.4,4.8c1,1.6,2.1,3.3,3.1,5C69.6,39.6,71.1,38.1,72.4,36.3z M71.2,47.8
		c-1.2-1.9-2.4-3.7-3.4-5.4c-1.6,1.3-3.4,2.5-5.3,3.5c1.1,1.7,2.2,3.5,3.5,5.4C67.8,50.3,69.6,49.1,71.2,47.8z M61.1,45.6
		c-1.1-1.7-2.1-3.3-3.1-4.9c-1.9,1-3.8,1.9-5.8,2.8c1,1.6,2.1,3.3,3.1,5C57.2,47.5,59.2,46.6,61.1,45.6z M58.2,54.9
		c-1.2-1.8-2.3-3.6-3.4-5.3c-2,0.9-4,1.7-6,2.6c1.1,1.7,2.1,3.4,3.2,5.2C54.1,56.6,56.1,55.7,58.2,54.9z M47.4,51.9
		c-1.1-1.7-2.1-3.4-3.1-5.1c-1.9,0.9-3.8,1.8-5.6,2.8l3.1,5.1C43.6,53.7,45.5,52.7,47.4,51.9z"/>
</g>
</svg>
