<?xml version="1.0" encoding="utf-8"?>
<!-- Generator: Adobe Illustrator 23.0.1, SVG Export Plug-In . SVG Version: 6.00 Build 0)  -->
<svg version="1.1" id="Layer_1" xmlns="http://www.w3.org/2000/svg" xmlns:xlink="http://www.w3.org/1999/xlink" x="0px" y="0px"
	 viewBox="0 0 128 128" style="enable-background:new 0 0 128 128;" xml:space="preserve">
<style type="text/css">
	.st0{fill:#FFAE00;}
	.st1{fill-rule:evenodd;clip-rule:evenodd;fill:#FFFFFF;}
</style>
<circle class="st0" cx="63.8" cy="64" r="63.1"/>
<g>
	<g>
		<g>
			<path d="M64.7,46.6L64.7,46.6C64.8,46.7,64.7,46.6,64.7,46.6z"/>
		</g>
	</g>
</g>
<g>
	<g>
		<g>
			<path d="M68.6,46.5L68.6,46.5L68.6,46.5z"/>
		</g>
	</g>
</g>
<g>
	<path class="st1" d="M33.3,93.9l0.8,0.8l14.1-3.3l1.1-1.1L37.7,78.7l-1.1,1.1L33.3,93.9z M77.1,39.3l11.6,11.6l4.1-4.1
		c2.5-2.5,2.5-6.3,0-8.6l-3-3c-2.2-2.5-6.1-2.5-8.6,0L77.1,39.3z M41.8,74.6l11.6,11.6L84,55.5L72.5,44L41.8,74.6z"/>
</g>
</svg>
