<?xml version="1.0" encoding="utf-8"?>
<!-- Generator: Adobe Illustrator 22.1.0, SVG Export Plug-In . SVG Version: 6.00 Build 0)  -->
<svg version="1.1" id="Layer_1" xmlns="http://www.w3.org/2000/svg" xmlns:xlink="http://www.w3.org/1999/xlink" x="0px" y="0px"
	 viewBox="0 0 128 128" style="enable-background:new 0 0 128 128;" xml:space="preserve">
<style type="text/css">
	.st0{fill:#00B4FF;}
	.st1{fill:#FFFFFF;}
</style>
<g>
	<g>
		<path class="st0" d="M103.4,43L103.4,43c1.8,1.9,2.8,4.1,2.8,6.7c0,2.6-0.9,4.8-2.8,6.7c-1.8,1.8-4.1,2.8-6.7,2.8h-9.9
			c-0.6,0-1.1-0.2-1.6-0.6c-0.4-0.4-0.6-1-0.6-1.6c0-0.6,0.2-1.1,0.6-1.6c0.4-0.4,1-0.6,1.6-0.6h9.9c1.4,0,2.6-0.5,3.6-1.5
			c1-1,1.5-2.2,1.5-3.6c0-1.4-0.5-2.6-1.5-3.6l0,0c-1-1-2.2-1.5-3.6-1.5h-8.2l1.9,1.5c0.5,0.4,0.7,0.9,0.8,1.5
			c0.1,0.6-0.1,1.1-0.5,1.6c-0.4,0.5-0.9,0.7-1.5,0.8c-0.6,0.1-1.1-0.1-1.6-0.5L81,44.2c0,0,0,0,0,0c0,0,0,0,0,0c0,0,0,0,0,0
			L80.8,44c-0.3-0.2-0.4-0.5-0.5-0.8c0-0.1,0-0.1-0.1-0.2c0-0.1,0-0.1,0-0.2c0-0.1,0-0.2,0-0.4c0-0.1,0-0.3,0-0.4l0.1-0.4
			c0,0,0-0.1,0-0.1l0.2-0.5c0.1-0.1,0.2-0.2,0.3-0.3c0,0,0,0,0,0l0.1-0.1c0,0,0,0,0.1-0.1c0,0,0.1,0,0.1-0.1l6.4-5.1
			c0.5-0.4,1-0.5,1.6-0.5c0.6,0.1,1.1,0.3,1.5,0.8c0.4,0.5,0.5,1,0.5,1.6c-0.1,0.6-0.3,1.1-0.8,1.5l-1.6,1.3h8.1
			C99.3,40.2,101.6,41.2,103.4,43z"/>
		<path class="st1" d="M96.7,59.4h-9.9c-0.7,0-1.3-0.2-1.7-0.7c-0.5-0.5-0.7-1.1-0.7-1.7c0-0.7,0.2-1.3,0.7-1.7
			c0.5-0.5,1.1-0.7,1.7-0.7h9.9c1.3,0,2.5-0.5,3.4-1.4c0.9-0.9,1.4-2.1,1.4-3.4c0-1.3-0.5-2.5-1.4-3.4c-0.9-0.9-2.1-1.4-3.4-1.4
			h-7.4l1.3,1c0.5,0.4,0.8,1,0.9,1.7c0.1,0.7-0.1,1.3-0.5,1.8c-0.4,0.5-1,0.8-1.6,0.9c-0.7,0.1-1.3-0.1-1.8-0.5l-6.9-5.6
			c-0.3-0.3-0.5-0.6-0.6-0.9c0-0.1,0-0.1-0.1-0.2c0-0.1,0-0.1,0-0.2c0-0.1,0-0.3,0-0.4c0-0.2,0-0.3,0-0.5l0.1-0.4c0-0.1,0-0.1,0-0.1
			l0.2-0.5c0.1-0.2,0.2-0.3,0.3-0.4l0.2-0.2c0,0,0.1-0.1,0.1-0.1l6.4-5.1c0.5-0.4,1.1-0.6,1.8-0.5c0.7,0.1,1.2,0.4,1.6,0.9
			c0.4,0.5,0.6,1.1,0.5,1.8c-0.1,0.7-0.4,1.2-0.9,1.6l-1,0.8h7.4c0,0,0,0,0,0c2.7,0,5,1,6.9,2.8l0,0c1.9,1.9,2.8,4.2,2.8,6.9
			c0,2.7-1,5-2.8,6.9S99.4,59.4,96.7,59.4z M86.9,55c-0.5,0-1,0.2-1.4,0.6c-0.4,0.4-0.6,0.8-0.6,1.4c0,0.5,0.2,1,0.6,1.4
			c0.4,0.4,0.8,0.6,1.4,0.6h9.9c2.5,0,4.7-0.9,6.5-2.7c1.8-1.8,2.7-4,2.7-6.5s-0.9-4.7-2.7-6.5l0.2-0.2l-0.2,0.2
			c-1.8-1.8-4-2.7-6.5-2.7c0,0,0,0,0,0h-8.8l2.1-1.7c0.4-0.3,0.7-0.8,0.7-1.3c0.1-0.5-0.1-1-0.4-1.4c-0.3-0.4-0.8-0.7-1.3-0.7
			c-0.5-0.1-1,0.1-1.4,0.4l-6.7,5.3c-0.1,0.1-0.2,0.2-0.3,0.3l-0.2,0.5l-0.1,0.3c0,0.1,0,0.2,0,0.3c0,0.1,0,0.2,0,0.3
			c0,0,0,0.1,0,0.1c0,0,0,0.1,0,0.1c0.1,0.3,0.3,0.5,0.5,0.7l0.1,0.1l-0.1,0.2l0.2-0.2c0,0,0,0,0,0l6.6,5.3c0.4,0.3,0.9,0.5,1.4,0.4
			c0.5-0.1,1-0.3,1.3-0.7c0.3-0.4,0.5-0.9,0.4-1.4c-0.1-0.5-0.3-1-0.7-1.3l-2.4-1.9h8.9c1.5,0,2.7,0.5,3.7,1.5c1,1,1.6,2.3,1.6,3.8
			c0,1.5-0.5,2.7-1.6,3.7c-1,1-2.3,1.6-3.7,1.6H86.9z"/>
	</g>
	<g>
		<g>
			<g>
				<g>
					<path class="st0" d="M68.1,44.7c-1.4,0-2.6,1.2-2.6,2.6c0,2.5,0.3,5.1,1.1,7.5c1.7,5.8,5.4,10.9,10.3,14.4
						c5,3.6,11.3,5.4,17.4,4.9c7.3-0.6,14.4-4,19-9.9c2.4-3,4.2-6.4,5.1-10.1c0.9-3.7,1.1-7.4,0.5-11.1c-0.9-5.8-3.8-11.3-8.2-15.3
						c-4.5-4.2-10.3-6.7-16.4-7.2c-7.4-0.6-14.9,2.1-20.3,7.2c-5.4,5.1-8.4,12.2-8.5,19.6c0,1.4,1.2,2.6,2.6,2.6
						c1.4,0,2.6-1.2,2.6-2.6c0-1,0.1-2.1,0.2-3.1c-0.1,0.6,0-0.1,0-0.2c0-0.2,0.1-0.4,0.1-0.7c0.1-0.4,0.2-0.8,0.3-1.2
						c0.2-0.8,0.4-1.5,0.7-2.3c0.1-0.4,0.3-0.7,0.4-1.1c-0.3,0.6,0,0,0-0.1c0.1-0.2,0.2-0.4,0.3-0.5c0.7-1.4,1.5-2.8,2.4-4
						c0.4-0.5-0.4,0.4,0.1-0.1c0.1-0.2,0.2-0.3,0.4-0.5c0.3-0.3,0.5-0.6,0.8-0.9c0.5-0.6,1.1-1.1,1.7-1.6c0.3-0.3,0.6-0.5,0.9-0.8
						c0.6-0.5-0.4,0.3,0.2-0.1c0.2-0.1,0.4-0.3,0.6-0.4c0.7-0.5,1.4-0.9,2.2-1.3c0.7-0.4,1.5-0.8,2.2-1.1c-0.6,0.3,0,0,0.1,0
						c0.2-0.1,0.4-0.1,0.6-0.2c0.4-0.1,0.8-0.3,1.2-0.4c0.8-0.2,1.6-0.4,2.5-0.6c0.2,0,0.4-0.1,0.6-0.1c0.1,0,0.8-0.1,0.1,0
						c0.4-0.1,0.9-0.1,1.3-0.1c1.5-0.1,3-0.1,4.5,0.1c0.1,0,0.2,0,0.3,0c-0.4-0.1-0.5-0.1-0.2,0c0.2,0,0.3,0.1,0.5,0.1
						c0.3,0.1,0.7,0.1,1,0.2c0.7,0.1,1.3,0.3,2,0.5c0.7,0.2,1.4,0.5,2,0.7c0.6,0.2-0.6-0.2,0,0c0.2,0.1,0.3,0.1,0.5,0.2
						c0.3,0.1,0.6,0.3,0.9,0.4c1.2,0.6,2.4,1.4,3.5,2.2c0.2,0.2,0.2,0.1-0.1-0.1c0.1,0.1,0.2,0.1,0.3,0.2c0.1,0.1,0.3,0.2,0.4,0.3
						c0.2,0.2,0.5,0.4,0.7,0.6c0.5,0.4,1,0.9,1.4,1.4c0.3,0.3,0.5,0.6,0.8,0.9c0.1,0.2,0.8,1,0.3,0.4c0.4,0.5,0.8,1.1,1.1,1.6
						c0.4,0.6,0.8,1.2,1.1,1.9c0.2,0.3,0.3,0.6,0.4,0.9c0.1,0.2,0.5,1.2,0.2,0.4c0.5,1.3,1,2.6,1.3,4c0.1,0.4,0.2,0.8,0.2,1.2
						c0,0.2,0.1,0.3,0.1,0.5c0.1,0.6-0.1-0.6,0,0c0.1,0.7,0.1,1.4,0.2,2.1c0,0.9,0,1.8-0.1,2.7c0,0.2,0,0.5-0.1,0.7
						c0,0.1-0.1,0.8,0,0.2c-0.1,0.4-0.1,0.9-0.2,1.3c-0.2,0.9-0.4,1.9-0.7,2.8c-0.1,0.4-0.3,0.8-0.4,1.2c0,0.1-0.3,0.7-0.1,0.2
						c-0.1,0.2-0.2,0.4-0.3,0.6c-0.7,1.5-1.6,3-2.6,4.3c0.4-0.6-0.1,0.1-0.2,0.2c-0.1,0.1-0.2,0.3-0.4,0.4c-0.3,0.3-0.5,0.6-0.8,0.9
						c-0.5,0.6-1.1,1.1-1.7,1.6c-0.2,0.2-0.4,0.3-0.6,0.5c-0.1,0.1-0.6,0.5-0.1,0.1c-0.3,0.2-0.6,0.5-0.9,0.7
						c-0.6,0.4-1.3,0.9-2,1.2c-0.4,0.2-0.8,0.4-1.2,0.6c-0.2,0.1-0.4,0.2-0.5,0.3c-0.1,0-0.8,0.3-0.2,0.1c-0.8,0.3-1.7,0.6-2.5,0.9
						c-0.9,0.3-1.9,0.5-2.8,0.6c-0.1,0-0.8,0.1-0.2,0c-0.2,0-0.5,0.1-0.7,0.1c-0.5,0-0.9,0.1-1.4,0.1c-0.8,0-1.7,0-2.5,0
						c-0.3,0-0.7-0.1-1-0.1c-0.2,0-0.3,0-0.5-0.1c0.8,0.1,0.2,0,0,0c-1.4-0.2-2.8-0.6-4.1-1c-0.4-0.1-0.7-0.3-1.1-0.4
						c-0.1-0.1-0.7-0.3,0,0c-0.2-0.1-0.3-0.1-0.5-0.2c-0.6-0.3-1.2-0.6-1.8-0.9c-0.6-0.4-1.2-0.7-1.8-1.1c-0.3-0.2-0.5-0.4-0.8-0.6
						c-0.1-0.1-0.6-0.5,0,0c-0.1-0.1-0.3-0.2-0.4-0.3c-1.1-0.9-2-1.8-2.9-2.9c-0.3-0.3-0.5-0.6-0.7-0.9c0.5,0.7-0.2-0.2-0.3-0.4
						c-0.4-0.5-0.7-1.1-1.1-1.7c-0.4-0.6-0.7-1.2-1-1.9c-0.1-0.3-0.3-0.6-0.4-0.9c0.3,0.8-0.1-0.3-0.2-0.5c-0.5-1.3-0.9-2.7-1.1-4.1
						c0-0.2-0.1-0.4-0.1-0.7c0-0.2-0.1-0.8,0,0c0-0.3-0.1-0.7-0.1-1c-0.1-0.7-0.1-1.4-0.1-2.1C70.7,45.9,69.5,44.7,68.1,44.7z"/>
				</g>
			</g>
		</g>
		<g>
			<g>
				<g>
					<path class="st0" d="M13.8,73.5c-1.3,0-2.4,1.1-2.4,2.4c0,1.9,0,3.8,0,5.6c0,3.1,0,6.1,0,9.2c0,2.5,1.4,5.1,3.8,6.1
						c1.8,0.8,3.7,0.6,5.6,0.6c1.4,0,2.4-1.1,2.4-2.4c0-0.2,0-0.4,0-0.6c-0.1,0.8,0,0,0-0.1c0-0.2,0.1-0.4,0.2-0.6
						c0.1-0.2,0.3-0.8,0-0.1c0.2-0.4,0.4-0.7,0.6-1.1c0.2-0.2,0.1-0.2-0.1,0.1c0.1-0.1,0.1-0.2,0.2-0.2c0.1-0.2,0.3-0.3,0.4-0.4
						c0.1-0.1,0.3-0.3,0.5-0.4c-0.6,0.5,0,0,0.1-0.1c0.2-0.1,0.3-0.2,0.5-0.3c0.1-0.1,0.8-0.3,0.1-0.1c0.4-0.1,0.8-0.3,1.2-0.3
						c0.3,0,0.2,0-0.2,0c0.1,0,0.2,0,0.3,0c0.2,0,0.3,0,0.5,0c0.2,0,0.4,0,0.6,0c0.3,0,0.2,0-0.2,0c0.1,0,0.2,0,0.3,0.1
						c0.2,0,0.4,0.1,0.6,0.2c0.2,0,0.8,0.3,0.1,0c0.4,0.2,0.7,0.4,1.1,0.6c0.1,0.1,0.2,0.1,0.2,0.2c-0.3-0.2-0.3-0.3-0.1-0.1
						c0.2,0.1,0.3,0.3,0.4,0.4c0.1,0.1,0.3,0.3,0.4,0.5c0.2,0.2,0.1,0.2-0.1-0.1c0.1,0.1,0.1,0.2,0.2,0.3c0.1,0.2,0.2,0.3,0.3,0.5
						c0.1,0.1,0.3,0.8,0.1,0.1c0.2,0.4,0.3,0.8,0.4,1.2c0,0.1,0,0.2,0.1,0.3c0-0.4-0.1-0.4,0-0.2c0,0.2,0,0.3,0,0.5
						c0,1.3,1.1,2.4,2.4,2.4c2.3,0,4.6,0,7,0c1.3,0,2.4-1.1,2.4-2.4c0-0.9,0-1.8,0-2.7c0-6.8,0-13.6,0-20.4c0-4.7,0-9.3,0-14
						c0-1.3-1.1-2.4-2.4-2.4c-0.8,0-1.7,0-2.5,0c-3.6,0-7.1,0-10.7,0c-1,0-2.1,0-3.1,0c-2.6,0-5.3,1.1-7,3.1c-0.9,1.1-1.6,2.2-2,3.6
						c-0.1,0.3-0.2,0.6-0.3,0.9c-0.5,1.5-1.1,3-1.6,4.5c-0.9,2.5-1.8,5.1-2.8,7.6c-0.5,1.3,0.5,2.7,1.7,3c1.4,0.4,2.5-0.5,3-1.7
						c0.2-0.6,0.4-1.2,0.7-1.8c1.2-3.3,2.4-6.5,3.5-9.8c0.2-0.4,0.3-0.9,0.5-1.3c0-0.1,0-0.1,0.1-0.2c0-0.1,0.3-0.6,0,0
						c0.1-0.1,0.1-0.3,0.2-0.4c0.1-0.3,0.3-0.6,0.5-0.8c0.2-0.2,0.1-0.2-0.1,0.1c0.1-0.1,0.1-0.2,0.2-0.2c0.1-0.1,0.2-0.2,0.3-0.3
						c0.1-0.1,0.2-0.2,0.3-0.3c0.1-0.1,0.5-0.4,0,0c0.3-0.2,0.5-0.4,0.8-0.5c0.1-0.1,0.3-0.1,0.4-0.2c-0.6,0.3-0.1,0.1,0,0
						c0.4-0.1,0.7-0.2,1.1-0.3c-0.7,0.1-0.1,0,0,0c0.2,0,0.3,0,0.5,0c0.1,0,0.1,0,0.2,0c5.4,0,10.8,0,16.2,0
						c-0.8-0.8-1.6-1.6-2.4-2.4c0,0.9,0,1.8,0,2.7c0,6.8,0,13.6,0,20.4c0,4.7,0,9.3,0,14c0.8-0.8,1.6-1.6,2.4-2.4c-2.3,0-4.6,0-7,0
						c0.8,0.8,1.6,1.6,2.4,2.4c-0.1-2.4-1-4.9-2.8-6.6c-1.7-1.6-4.1-2.7-6.5-2.6c-5.1,0.1-9.2,4.1-9.3,9.2c0.8-0.8,1.6-1.6,2.4-2.4
						c-0.9,0-1.9,0-2.8,0c-0.1,0-0.2,0-0.4,0c0.7,0.1,0.1,0-0.1,0c-0.1,0-0.2-0.1-0.3-0.1c0.3,0.2,0.4,0.2,0.2,0.1
						c-0.2-0.1-0.4-0.2-0.5-0.3c0.6,0.4-0.1-0.1-0.2-0.2c-0.2-0.2-0.1-0.1,0.1,0.1c-0.1-0.1-0.1-0.2-0.2-0.2
						c-0.1-0.2-0.4-0.8-0.1-0.1c-0.1-0.2-0.1-0.4-0.2-0.6c0-0.1,0-0.2-0.1-0.3c0,0.4,0.1,0.4,0,0.2c0-0.1,0-0.1,0-0.2c0,0,0,0,0-0.1
						c0-0.1,0-0.2,0-0.4c0-0.5,0-1.1,0-1.6c0-1.7,0-3.5,0-5.2c0-2.6,0-5.2,0-7.8C16.2,74.6,15.1,73.5,13.8,73.5z"/>
				</g>
			</g>
		</g>
		<g>
			<g>
				<g>
					<path class="st0" d="M41.5,47c-1.3,0-2.4,1.1-2.4,2.4c0,3.7,0,7.5,0,11.2c0,7.4,0,14.9,0,22.3c0,4.1,0,8.1,0,12.2
						c0,1.3,1.1,2.4,2.4,2.4c0.5,0,1,0,1.6,0c6.5,0,13,0,19.5,0c4.8,0,9.6,0,14.3,0c1.4,0,2.4-1.1,2.4-2.4c0-0.2,0-0.4,0-0.6
						c-0.1,0.8,0,0,0-0.1c0-0.2,0.1-0.4,0.2-0.6c0.1-0.2,0.3-0.8,0-0.1c0.2-0.4,0.4-0.7,0.6-1.1c0.2-0.2,0.1-0.2-0.1,0.1
						c0.1-0.1,0.1-0.2,0.2-0.2c0.1-0.2,0.3-0.3,0.4-0.4s0.3-0.3,0.5-0.4c-0.6,0.5,0,0,0.1-0.1c0.2-0.1,0.3-0.2,0.5-0.3
						c0.1-0.1,0.8-0.3,0.1-0.1c0.4-0.1,0.8-0.3,1.2-0.3c0.3,0,0.2,0-0.2,0c0.1,0,0.2,0,0.3,0c0.2,0,0.3,0,0.5,0c0.2,0,0.4,0,0.6,0
						c0.3,0,0.2,0-0.2,0c0.1,0,0.2,0,0.3,0.1c0.2,0,0.4,0.1,0.6,0.2c0.2,0,0.8,0.3,0.1,0c0.4,0.2,0.7,0.4,1.1,0.6
						c0.1,0.1,0.2,0.1,0.2,0.2c-0.3-0.2-0.3-0.3-0.1-0.1c0.2,0.1,0.3,0.3,0.4,0.4c0.1,0.1,0.3,0.3,0.4,0.5c0.2,0.2,0.1,0.2-0.1-0.1
						c0.1,0.1,0.1,0.2,0.2,0.3c0.1,0.2,0.2,0.3,0.3,0.5c0.1,0.1,0.4,0.8,0.1,0.1c0.2,0.4,0.3,0.8,0.4,1.2c0,0.1,0,0.2,0.1,0.3
						c0-0.4-0.1-0.4,0-0.2c0,0.2,0,0.3,0,0.5c0,1.3,1.1,2.4,2.4,2.4c0,0,0.1,0,0.1,0c1.6,0,3.2,0,4.8,0c0.5,0,1,0,1.6,0
						c1.7,0,3.3-0.7,4.5-1.8c1.5-1.4,2-3.2,2-5.2c0-1.1,0-2.3,0-3.4c0-5.8,0-11.6,0-17.3c0-0.9-0.5-1.7-1.2-2.1
						c-0.8-0.5-1.6-0.4-2.5,0c-0.1,0-0.7,0.3-0.2,0.1c-0.2,0.1-0.4,0.2-0.6,0.2c-0.3,0.1-0.6,0.2-1,0.3c-0.7,0.2-1.3,0.4-2,0.6
						c-0.4,0.1-0.8,0.2-1.2,0.2c-0.2,0-0.4,0.1-0.6,0.1c0.3,0,0.3,0,0,0c-0.7,0.1-1.4,0.1-2.1,0.1c-0.6,0-1.3,0-1.9,0
						c-0.3,0-0.5,0-0.8-0.1c-0.2,0-1.1-0.1-0.3,0c-1-0.2-2.1-0.4-3.1-0.7c-0.6-0.2-1.3-0.4-1.9-0.7c-0.1-0.1-0.3-0.1-0.4-0.2
						c0.7,0.3,0.2,0.1,0,0c-0.3-0.1-0.6-0.3-0.8-0.4c-1.1-0.6-2.2-1.2-3.2-2c-0.1-0.1-0.7-0.5-0.1-0.1c-0.1-0.1-0.2-0.2-0.4-0.3
						c-0.2-0.2-0.5-0.4-0.7-0.6c-0.5-0.4-0.9-0.8-1.3-1.3c-0.5-0.5-2.5-1-2.9-1.5c-0.3-0.4,0.3,0.4,0,0c-0.1-0.1-0.2-0.2-0.3-0.4
						c-0.2-0.2-0.4-0.5-0.5-0.7c-0.7-1.1-1.3-2.2-1.8-3.3C71.8,57,71.8,57,72,57.4c0-0.1-0.1-0.2-0.1-0.3c-0.1-0.1-0.1-0.3-0.2-0.4
						c-0.1-0.3-0.2-0.6-0.3-0.9c-0.2-0.6-0.4-1.2-0.5-1.8c-0.2-0.7-0.3-1.3-0.4-2c0.1,0.8,0-0.3,0-0.5c0-0.3-0.1-0.6-0.1-1
						c0-0.8,0-1.6,0-2.5c0-0.4,0.1-0.9,0.1-1.3c0.1-0.7-0.1,0.5,0-0.2c0-0.2,0.1-0.4,0.1-0.6c0.3-1.5-0.7-3.1-2.4-3.1
						c-4.3,0-6.9,0-11.2,0c-3.3,0-6.5,0-9.8,0c-0.6,0-1.2,0-1.8,0c-3.6,0-6.5,3-6.5,6.5c0,1.3,1.1,2.4,2.4,2.4
						c1.3,0,2.4-1.1,2.4-2.4c0-0.2,0.1-0.7,0,0c0-0.1,0-0.2,0.1-0.3c0-0.1,0.1-0.3,0.1-0.4c-0.2,0.3-0.2,0.4-0.1,0.2
						c0.1-0.2,0.6-0.8,0.1-0.3c0.1-0.2,0.3-0.3,0.4-0.4c0.1-0.1,0.5-0.4,0,0c0.1-0.1,0.2-0.1,0.3-0.2c0.1-0.1,0.3-0.1,0.4-0.2
						c-0.4,0.1-0.4,0.2-0.2,0.1c0.2-0.1,1-0.1,0.3-0.1c0.1,0,0.2,0,0.3,0c0.4,0,0.7,0,1.1,0c2.1,0,4.2,0,6.3,0c5.7,0,11.3,0,17,0
						c-0.8-1-1.6-2.1-2.4-3.1c-1.1,6.1-0.1,12.5,3.2,17.7c3,4.8,7.4,8.4,12.6,10.3c6.2,2.3,13.1,1.9,19.1-0.8
						c-1.2-0.7-2.4-1.4-3.7-2.1c0,5.6,0,11.2,0,16.9c0,1.2,0,2.4,0,3.6c0,0.2,0,0.5,0,0.7c0,0.1,0,0.2,0,0.3c0.1-0.7,0-0.2,0,0
						c0,0.1-0.1,0.3-0.1,0.4c0.2-0.6,0.1-0.2,0,0c-0.1,0.1-0.1,0.3-0.2,0.4c0.4-0.6-0.1,0.1-0.3,0.3c-0.2,0.2-0.2,0.1,0.1-0.1
						c-0.1,0.1-0.2,0.1-0.3,0.2c-0.1,0.1-0.3,0.1-0.4,0.2c0.7-0.3-0.2,0-0.4,0.1c0.7-0.1,0,0-0.2,0c-0.7,0-1.4,0-2.1,0
						c-1.4,0-2.8,0-4.1,0c0.8,0.8,1.6,1.6,2.4,2.4c-0.1-2.4-1-4.9-2.8-6.6c-1.7-1.6-4.1-2.7-6.5-2.6c-5.1,0.1-9.2,4.1-9.3,9.2
						c0.8-0.8,1.6-1.6,2.4-2.4c-0.5,0-1,0-1.6,0c-6.5,0-13,0-19.5,0c-4.8,0-9.6,0-14.3,0c0.8,0.8,1.6,1.6,2.4,2.4
						c0-3.7,0-7.5,0-11.2c0-7.4,0-14.9,0-22.3c0-4.1,0-8.1,0-12.2C44,48.1,42.8,47,41.5,47z"/>
				</g>
			</g>
		</g>
		<g>
			<g>
				<g>
					<path class="st0" d="M20.7,92.8c-1.3,0-2.5,1.1-2.4,2.4c0,3.3,1.8,6.6,4.8,8.2c3,1.6,6.8,1.6,9.6-0.3c2.6-1.8,4.4-4.8,4.3-8.1
						c-0.2-3.2-1.9-6.3-4.8-7.9c-2.9-1.5-6.5-1.6-9.4,0.2c-2.8,1.7-4.5,4.7-4.5,8c0,1.3,1.1,2.4,2.4,2.4c1.3,0,2.4-1.1,2.4-2.4
						c0-0.2,0-0.4,0-0.6c0.1-0.6-0.1,0.6,0,0c0.1-0.4,0.2-0.7,0.3-1.1c0-0.1,0.1-0.2,0.1-0.3c-0.1,0.3-0.2,0.4-0.1,0.2
						c0.1-0.1,0.1-0.3,0.2-0.4c0.1-0.2,0.2-0.4,0.3-0.5c0.3-0.4-0.4,0.4,0,0c0.2-0.3,0.5-0.5,0.7-0.8c0.1-0.1,0.2-0.1,0.2-0.2
						c-0.3,0.2-0.3,0.3-0.1,0.1c0.1-0.1,0.3-0.2,0.4-0.3c0.2-0.1,0.4-0.2,0.5-0.3c0.1-0.1,0.6-0.2,0,0c0.3-0.1,0.7-0.2,1-0.3
						c0.1,0,0.2,0,0.3-0.1c-0.4,0-0.4,0.1-0.2,0c0.2,0,0.3,0,0.5,0c0.3,0,0.7,0,1,0c-0.8-0.1,0.2,0.1,0.4,0.1c0.1,0,0.3,0.1,0.4,0.1
						c0.5,0.2-0.5-0.2,0,0c0.3,0.2,0.6,0.3,0.9,0.5c0.1,0.1,0.5,0.4,0,0c0.1,0.1,0.2,0.2,0.3,0.3c0.2,0.2,0.4,0.4,0.6,0.7
						c0.3,0.4-0.3-0.5,0,0c0.1,0.1,0.2,0.3,0.2,0.4c0.1,0.2,0.2,0.4,0.3,0.5c0.2,0.5-0.2-0.5,0,0c0.1,0.3,0.2,0.6,0.3,0.9
						c0,0.2,0.1,0.3,0.1,0.5c-0.1-0.7,0-0.2,0,0c0,0.3,0,0.6,0,0.9c0,0.1,0,0.2,0,0.3c0.1-0.4,0.1-0.4,0-0.2c0,0.2-0.1,0.3-0.1,0.5
						c-0.1,0.2-0.4,1.1-0.1,0.4c-0.1,0.3-0.3,0.6-0.4,0.8c-0.1,0.1-0.2,0.3-0.2,0.4c-0.3,0.4,0.4-0.4,0,0c-0.2,0.3-0.5,0.5-0.7,0.8
						c-0.1,0.1-0.5,0.4,0,0c-0.1,0.1-0.2,0.2-0.4,0.3c-0.3,0.2-0.5,0.3-0.8,0.4c-0.5,0.2,0.5-0.2,0,0c-0.1,0.1-0.3,0.1-0.4,0.1
						c-0.2,0.1-0.4,0.1-0.6,0.1c-0.6,0.1,0.6,0,0,0c-0.3,0-0.6,0-1,0c-0.2,0-0.3,0-0.5,0c0.7,0.1,0.2,0,0,0
						c-0.3-0.1-0.6-0.1-0.9-0.3c-0.2-0.1-0.2-0.1,0.2,0.1c-0.1,0-0.2-0.1-0.3-0.1c-0.1-0.1-0.3-0.1-0.4-0.2c-0.2-0.1-1-0.7-0.4-0.2
						c-0.2-0.2-0.5-0.4-0.7-0.6c-0.1-0.1-0.2-0.2-0.3-0.3c-0.3-0.4,0.3,0.5,0,0c-0.2-0.3-0.4-0.6-0.5-0.9c-0.1-0.1-0.2-0.6,0,0
						c-0.1-0.1-0.1-0.3-0.2-0.4c-0.1-0.3-0.2-0.6-0.2-0.9c0.1,0.8,0-0.3,0-0.5C23.2,93.9,22.1,92.8,20.7,92.8z"/>
				</g>
			</g>
		</g>
		<g>
			<g>
				<g>
					<path class="st0" d="M76.9,92.8c-1.3,0-2.5,1.1-2.4,2.4c0,3.3,1.8,6.6,4.8,8.2c3,1.6,6.8,1.6,9.6-0.3c2.6-1.8,4.4-4.8,4.3-8.1
						c-0.2-3.2-1.9-6.3-4.8-7.9c-2.9-1.5-6.5-1.6-9.4,0.2c-2.8,1.7-4.5,4.7-4.5,8c0,1.3,1.1,2.4,2.4,2.4c1.3,0,2.4-1.1,2.4-2.4
						c0-0.2,0-0.4,0-0.6c0.1-0.6-0.1,0.6,0,0c0.1-0.4,0.2-0.7,0.3-1.1c0-0.1,0.1-0.2,0.1-0.3c-0.1,0.3-0.2,0.4-0.1,0.2
						c0.1-0.1,0.1-0.3,0.2-0.4c0.1-0.2,0.2-0.4,0.3-0.5c0.3-0.4-0.4,0.4,0,0c0.2-0.3,0.5-0.5,0.7-0.8c0.1-0.1,0.2-0.1,0.2-0.2
						c-0.3,0.2-0.3,0.3-0.1,0.1c0.1-0.1,0.3-0.2,0.4-0.3c0.2-0.1,0.4-0.2,0.5-0.3c0.1-0.1,0.6-0.2,0,0c0.3-0.1,0.7-0.2,1-0.3
						c0.1,0,0.2,0,0.3-0.1c-0.4,0-0.4,0.1-0.2,0c0.2,0,0.3,0,0.5,0c0.3,0,0.7,0,1,0c-0.8-0.1,0.2,0.1,0.4,0.1c0.1,0,0.3,0.1,0.4,0.1
						c0.5,0.2-0.5-0.2,0,0c0.3,0.2,0.6,0.3,0.9,0.5c0.1,0.1,0.5,0.4,0,0c0.1,0.1,0.2,0.2,0.3,0.3c0.2,0.2,0.4,0.4,0.6,0.7
						c0.3,0.4-0.3-0.5,0,0c0.1,0.1,0.2,0.3,0.2,0.4c0.1,0.2,0.2,0.4,0.3,0.5c0.2,0.5-0.2-0.5,0,0c0.1,0.3,0.2,0.6,0.3,0.9
						c0,0.2,0.1,0.3,0.1,0.5c-0.1-0.7,0-0.2,0,0c0,0.3,0,0.6,0,0.9c0,0.1,0,0.2,0,0.3c0.1-0.4,0.1-0.4,0-0.2c0,0.2-0.1,0.3-0.1,0.5
						c-0.1,0.2-0.4,1.1-0.1,0.4c-0.1,0.3-0.3,0.6-0.4,0.8c-0.1,0.1-0.2,0.3-0.2,0.4c-0.3,0.4,0.4-0.4,0,0c-0.2,0.3-0.5,0.5-0.7,0.8
						c-0.1,0.1-0.5,0.4,0,0c-0.1,0.1-0.2,0.2-0.4,0.3c-0.3,0.2-0.5,0.3-0.8,0.4c-0.5,0.2,0.5-0.2,0,0c-0.1,0.1-0.3,0.1-0.4,0.1
						c-0.2,0.1-0.4,0.1-0.6,0.1c-0.6,0.1,0.6,0,0,0c-0.3,0-0.6,0-1,0c-0.2,0-0.3,0-0.5,0c0.7,0.1,0.2,0,0,0
						c-0.3-0.1-0.6-0.1-0.9-0.3c-0.2-0.1-0.2-0.1,0.2,0.1c-0.1,0-0.2-0.1-0.3-0.1c-0.1-0.1-0.3-0.1-0.4-0.2c-0.2-0.1-1-0.7-0.4-0.2
						c-0.2-0.2-0.5-0.4-0.7-0.6c-0.1-0.1-0.2-0.2-0.3-0.3c-0.3-0.4,0.3,0.5,0,0c-0.2-0.3-0.4-0.6-0.5-0.9c-0.1-0.1-0.2-0.6,0,0
						c-0.1-0.1-0.1-0.3-0.2-0.4c-0.1-0.3-0.2-0.6-0.2-0.9c0.1,0.8,0-0.3,0-0.5C79.3,93.9,78.2,92.8,76.9,92.8z"/>
				</g>
			</g>
		</g>
		<g>
			<g>
				<g>
					<path class="st0" d="M19.6,76c0,1.3,1.1,2.4,2.4,2.4c4,0,8,0,12,0c1.3,0,2.4-1.1,2.4-2.4c0-3.6,0-7.1,0-10.7
						c0-1.3-1.1-2.4-2.4-2.4c-0.8,0-1.6,0-2.4,0c-1.4,0-2.8,0-4.2,0c-2.1,0-3.8,1.3-4.5,3.2c-0.1,0.4-0.3,0.8-0.4,1.2
						c-1,2.7-1.9,5.4-2.9,8.1c-0.4,1.3,0.5,2.7,1.7,3c1.4,0.4,2.6-0.5,3-1.7c0.1-0.3,0.2-0.6,0.3-1c0.6-1.7,1.2-3.3,1.8-5
						c0.3-0.7,0.5-1.4,0.8-2.2c0.1-0.2,0.1-0.4,0.2-0.6c0.1-0.2,0.3-0.8,0-0.1c0.1-0.2,0.5-0.6,0-0.1c0.2-0.2,0.5-0.3-0.1,0
						c0.2-0.1,0.5-0.2-0.1,0c0.2-0.1,0.6,0-0.1,0c0.2,0,0.3,0,0.5,0c0.7,0,1.5,0,2.2,0c1.4,0,0.3,0,1.7,0l0,0c0,3.6,0,5.8,0,5.8l0,0
						c-4,0-5.6,0-9.6,0C20.8,73.5,19.6,74.6,19.6,76z"/>
				</g>
			</g>
		</g>
		<g>
			<g>
				<g>
					<path class="st0" d="M52.2,62.8c-1.3,0-2.4,1.1-2.4,2.4s1.1,2.4,2.4,2.4c3.6,0,7.2,0,10.8,0c1.3,0,2.4-1.1,2.4-2.4
						s-1.1-2.4-2.4-2.4C59.4,62.8,55.8,62.8,52.2,62.8L52.2,62.8z"/>
				</g>
			</g>
		</g>
		<g>
			<g>
				<g>
					<path class="st0" d="M51.7,73.5c-1,0-1.9,1.1-1.9,2.4c0,1.3,0.9,2.4,1.9,2.4c0,0,0,0,0,0c4.1,0,8.3,0,12.4,0c4,0,8,0,12,0
						c1,0,1.9-1.1,1.9-2.4c0-1.3-0.9-2.4-1.9-2.4c0,0,0,0,0,0c-4.1,0-8.3,0-12.4,0C59.7,73.5,55.7,73.5,51.7,73.5L51.7,73.5z"/>
				</g>
			</g>
		</g>
	</g>
</g>
</svg>
