<?xml version="1.0" encoding="utf-8"?>
<!-- Generator: Adobe Illustrator 23.0.2, SVG Export Plug-In . SVG Version: 6.00 Build 0)  -->
<svg version="1.1" id="Layer_1" xmlns="http://www.w3.org/2000/svg" xmlns:xlink="http://www.w3.org/1999/xlink" x="0px" y="0px"
	 viewBox="0 0 128 128" style="enable-background:new 0 0 128 128;" xml:space="preserve">
<style type="text/css">
	.st0{fill:#F1F5F8;}
	.st1{fill:#888B8F;}
</style>
<circle class="st0" cx="64" cy="64" r="63.1"/>
<g>
	<path class="st1" d="M45.8,96.3c-1.1,0-2-0.9-2-2V80.1h-6.1c-3.3,0-6.1-2.7-6.1-6.1V53.8c0-3.3,2.7-6.1,6.1-6.1h6.1V37.7
		c0-3.3,2.7-6.1,6.1-6.1h28.3c3.3,0,6.1,2.7,6.1,6.1v10.1h6.1c3.3,0,6.1,2.7,6.1,6.1v20.2c0,3.3-2.7,6.1-6.1,6.1h-6.1v14.2
		c0,1.1-0.9,2-2,2H45.8z M80.1,92.3V68H47.8v24.3H80.1z M90.3,76.1c1.1,0,2-0.9,2-2V53.8c0-1.1-0.9-2-2-2H37.7c-1.1,0-2,0.9-2,2
		v20.2c0,1.1,0.9,2,2,2h6.1V66c0-1.1,0.9-2,2-2h36.4c1.1,0,2,0.9,2,2v10.1H90.3z M80.1,47.8V37.7c0-1.1-0.9-2-2-2H49.8
		c-1.1,0-2,0.9-2,2v10.1H80.1z"/>
	<path class="st1" d="M41.7,59.9c-1.1,0-2-0.9-2-2c0-1.1,0.9-2,2-2h4c1.1,0,2,0.9,2,2c0,1.1-0.9,2-2,2H41.7z"/>
	<path class="st1" d="M53.9,76.1c-1.1,0-2-0.9-2-2s0.9-2,2-2h20.2c1.1,0,2,0.9,2,2s-0.9,2-2,2H53.9z"/>
	<path class="st1" d="M53.9,84.2c-1.1,0-2-0.9-2-2c0-1.1,0.9-2,2-2H68c1.1,0,2,0.9,2,2c0,1.1-0.9,2-2,2H53.9z"/>
</g>
</svg>
