<svg xmlns="http://www.w3.org/2000/svg" width="128" height="128" viewBox="0 0 128 128">
  <g id="Group_10" data-name="Group 10" transform="translate(-519 -273)">
    <circle id="Ellipse_2" data-name="Ellipse 2" cx="64" cy="64" r="64" transform="translate(519 273)" fill="#f1f5f8"/>
    <g id="Group_16" data-name="Group 16" transform="translate(475.347 230.587)">
      <g id="Group_13" data-name="Group 13" transform="translate(68.794 69.413)">
        <path id="Path_9" data-name="Path 9" d="M121.723,111.011a11.219,11.219,0,0,0-8.963,4.337L91.075,104.939a10.843,10.843,0,0,0,0-6.072L112.76,88.458A11.718,11.718,0,1,0,114.5,71.977a11.282,11.282,0,0,0-3.759,12.433L89.34,94.819a11.538,11.538,0,1,0-2.024,16.192,13.357,13.357,0,0,0,2.024-2.024l21.4,10.409a11.882,11.882,0,0,0,7.807,14.457c6.072,2.024,12.433-1.735,14.457-7.807a11.882,11.882,0,0,0-7.807-14.457A7.334,7.334,0,0,0,121.723,111.011Z" transform="translate(-68.794 -69.413)" fill="#888b8f"/>
      </g>
    </g>
    <g id="Group_7" data-name="Group 7" transform="translate(136.249 -33.667)">
      <g id="Ellipse_3" data-name="Ellipse 3" transform="translate(442.751 368.667)" fill="#f1f5f8" stroke="#888b8f" stroke-width="3">
        <circle cx="20" cy="20" r="20" stroke="none"/>
        <circle cx="20" cy="20" r="18.5" fill="none"/>
      </g>
      <g id="noun_database_1021176" transform="translate(427.592 357.417)">
        <path id="Path_3" data-name="Path 3" d="M35.759,33.378A38.866,38.866,0,0,1,29.3,32.9a7.089,7.089,0,0,1-2.544-.8v3.905h.027c.393,1.168,5.5,1.6,8.973,1.6s8.581-.429,8.973-1.6h.027V32.1a7.1,7.1,0,0,1-2.544.8A38.888,38.888,0,0,1,35.759,33.378Z" transform="translate(0 -6.893)" fill="none" stroke="#888b8f" stroke-width="2"/>
        <path id="Path_4" data-name="Path 4" d="M35.759,50.73a38.866,38.866,0,0,1-6.456-.476,7.089,7.089,0,0,1-2.544-.8v3.9h.027c.393,1.168,5.5,1.6,8.973,1.6s8.581-.429,8.973-1.6h.027v-3.9a7.1,7.1,0,0,1-2.544.8A38.853,38.853,0,0,1,35.759,50.73Z" transform="translate(0 -19.349)" fill="none" stroke="#888b8f" stroke-width="2"/>
        <path id="Path_5" data-name="Path 5" d="M35.759,68.08A38.866,38.866,0,0,1,29.3,67.6a7.089,7.089,0,0,1-2.544-.8v3.905h.027c.393,1.168,5.5,1.6,8.973,1.6s8.581-.429,8.973-1.6h.027V66.8a7.1,7.1,0,0,1-2.544.8A38.888,38.888,0,0,1,35.759,68.08Z" transform="translate(0 -31.805)" fill="none" stroke="#888b8f" stroke-width="2"/>
        <path id="Path_6" data-name="Path 6" d="M44.721,23.952c-.414-.814-4.267-1.452-8.961-1.452s-8.548.638-8.961,1.452a.322.322,0,0,0-.039.145c0,.882,4.029,1.6,9,1.6s9-.715,9-1.6A.322.322,0,0,0,44.721,23.952Z" transform="translate(-0.001)" fill="none" stroke="#888b8f" stroke-width="2"/>
      </g>
    </g>
  </g>
</svg>
