<?xml version="1.0" encoding="utf-8"?>
<!-- Generator: Adobe Illustrator 23.0.1, SVG Export Plug-In . SVG Version: 6.00 Build 0)  -->
<svg version="1.1" id="Layer_1" xmlns="http://www.w3.org/2000/svg" xmlns:xlink="http://www.w3.org/1999/xlink" x="0px" y="0px"
	 viewBox="0 0 128 128" style="enable-background:new 0 0 128 128;" xml:space="preserve">
<style type="text/css">
	.st0{fill:#8B8B8B;}
</style>
<g>
	<path class="st0" d="M62.2,97.7c-18.5-0.9-33.3-16.3-33.3-35.1c0-18.8,14.7-34.1,33.2-35L71,15.8L62.2,4.2
		C30.7,5.1,5.5,30.9,5.5,62.6c0,31.7,25.2,57.5,56.6,58.5l-8.8-11.7L62.2,97.7z"/>
	<path class="st0" d="M65.9,4.2l8.8,11.7l-8.9,11.7c18.5,0.9,33.3,16.3,33.3,35.1c0,18.8-14.7,34.1-33.2,35L57,109.4l8.8,11.7
		c31.5-1,56.7-26.8,56.7-58.5C122.5,31,97.3,5.2,65.9,4.2z"/>
</g>
</svg>
