<?xml version="1.0" encoding="utf-8"?>
<!-- Generator: Adobe Illustrator 22.1.0, SVG Export Plug-In . SVG Version: 6.00 Build 0)  -->
<svg version="1.1" id="Layer_1" xmlns="http://www.w3.org/2000/svg" xmlns:xlink="http://www.w3.org/1999/xlink" x="0px" y="0px"
	 viewBox="0 0 128 128" style="enable-background:new 0 0 128 128;" xml:space="preserve">
<style type="text/css">
	.st0{fill:#FFAE00;}
</style>
<g>
	<path class="st0" d="M52.2,49.4c0,2.1-1.7,3.8-3.8,3.8s-3.8-1.7-3.8-3.8c0-10.4,8.5-18.9,18.9-18.9s18.9,8.5,18.9,18.9
		c0,6-2.8,11.6-7.6,15.1l-3,2.3c-2.9,2.1-4.5,5.5-4.5,9.1c0,2.1-1.7,3.8-3.8,3.8c-2.1,0-3.8-1.7-3.8-3.8c0-6,2.8-11.6,7.6-15.1
		l3-2.3c2.9-2.1,4.5-5.5,4.5-9.1c0-6.3-5.1-11.3-11.3-11.3S52.2,43.1,52.2,49.4z"/>
	<path class="st0" d="M59.7,91c0-2.1,1.7-3.8,3.8-3.8c2.1,0,3.8,1.7,3.8,3.8v3.8c0,2.1-1.7,3.8-3.8,3.8c-2.1,0-3.8-1.7-3.8-3.8V91z"
		/>
	<path class="st0" d="M63.5,117.4c29.2,0,52.9-23.7,52.9-52.9S92.7,11.6,63.5,11.6S10.6,35.3,10.6,64.5S34.3,117.4,63.5,117.4z
		 M63.5,125C30.1,125,3,97.9,3,64.5S30.1,4,63.5,4S124,31.1,124,64.5S96.9,125,63.5,125z"/>
</g>
</svg>
