<!--?xml version="1.0" encoding="utf-8"?-->
<!-- Generator: Adobe Illustrator 15.0.0, SVG Export Plug-In . SVG Version: 6.00 Build 0)  -->

<svg xmlns="http://www.w3.org/2000/svg" xmlns:xlink="http://www.w3.org/1999/xlink" width="500px" height="500px" viewBox="0 0 500 500">
<path fill-rule="evenodd" clip-rule="evenodd" fill="#0F5801" d="M239.453,28c7.536,0,15.069,0,22.605,0
	c27.198,13.989,50.213,32.165,48.22,75.346c-2.497,2.599-2.497,15.484,0,18.083c6.284,47.463,75.512,31.982,88.909,72.332
	c0,15.572,0,31.143,0,46.714c-2.489,0.023-0.844,4.18-3.015,4.521c-2.029-15.833-8.833-33.433-16.575-43.7
	c-15.31-20.303-54.48-25.343-72.332-51.236c-6.947-10.075-6.783-18.663-9.043-30.138c-8.283-42.09-36.244-89.459-90.414-69.318
	C215.134,39.846,227.478,34.107,239.453,28z" id="path-0" style="position: relative;"></path>
<path fill-rule="evenodd" clip-rule="evenodd" fill="#0F5801" d="M158.08,101.838c2.292-36.386,16.523-60.831,54.25-61.783
	c-25.827,15.315-40.718,32.765-40.687,72.333c0.016,20.875,10.853,40.324,9.041,60.276c-1.3,14.324-18.159,18.836-30.138,28.632
	c-15.898,13-25.201,28.439-27.124,54.249c-8.839-20.25-11.107-38.981-1.507-54.249c9.052-14.397,33.382-18.2,39.179-33.153
	c6.259-16.144-4.498-26.527-3.014-48.221C158.08,113.894,158.08,107.866,158.08,101.838z" id="path-1" style="position: relative;"></path>
<path fill-rule="evenodd" clip-rule="evenodd" fill="#0F5801" d="M194.248,214.857c-46.335-2.633-49.796,37.605-57.264,73.84
	c9.125-0.585,16.977,0.102,22.604,3.014c6.025-6.03,10.476-13.636,19.589-16.576c-8.704,7.597-15.356,22.048-9.04,36.166
	c7.324,3.727,14.059,8.041,16.575,16.576c0,3.013,0,6.027,0,9.041c4.089-0.933,11.96,1.914,13.563-1.507
	c8.753-0.288,13.774-4.31,19.589-7.534c0.004,1.512-1.22,1.793-1.507,3.013c-12.531,10.576-36.007,10.205-49.727,19.591
	c9.095-6.11,15.234-17.008,7.534-28.632c-3.743-3.563-8.869-0.015-13.563,0c5.213-31.913-46.879-22.481-49.729,1.507
	c-2.081,17.521,13.41,27.177,19.589,39.181c2.872,5.573,2.546,12.758,6.028,18.082c18.242,27.894,59.702,29.409,96.443,33.152
	c4.574,2.503,19.536,2.503,24.11,0c39.74-4.681,85.796-4.977,100.963-33.152c10.495-19.495,7.473-44.668,10.549-75.346
	c2.506-6.566,2.506-23.572,0-30.138c0.271-23.379-2.332-43.881-16.575-52.743c-6.7,31.475-21.032,55.319-37.674,76.853
	c-1.691,0.317-2.346,1.672-3.014,3.014c-5.653,4.393-10.677,9.415-15.07,15.068c-28.252,20.976-60.821,45.665-108.497,42.194
	c14.909-11.21,36.374-15.865,54.249-24.11c-5.153-22.524,4.611-42.391,21.097-48.222c-8.747,8.457-15.622,26.402-12.056,42.193
	c47.992-21.828,79.439-60.202,97.95-111.511c-19.204-11.441-70.741,1.428-63.291-31.646c1.469,16.615,16.266,19.9,36.166,18.083
	c6.028,0,12.056,0,18.084,0c45.642,0.57,41.655,50.769,46.714,91.921c0,8.038,0,16.075,0,24.111
	c7.934,85.329-56.543,114.525-135.623,114.525c-56.001,0-119.214-17.806-125.073-69.318c-17.192-5.412-26.9-18.308-36.167-31.645
	c-3.264-5.237-4.521-8.251,0-15.07c8.955-15.154,21.167-27.054,42.193-30.137c-2.541-36.356,4.527-72.914,33.153-81.374
	c19.996-5.91,47.683,12.993,63.29-3.014c-22.565-5.563-36.224-20.035-37.672-46.714c-7.479-1.952-2.128,8.923-6.028,10.548
	c-11.708-29.765,12.859-46.708,22.604-64.797c-1.401-6.739-3.924-20.074,3.014-22.604c-0.842,57.436,68.049,23.409,85.893,66.304
	c3.147,7.561,7.354,20.12,1.508,36.167c-3.499-22.14-7.474-40.219-24.111-51.236c-13.328-8.826-35.044-6.493-49.729-12.055
	c-5.825-2.207-8.625-10.097-13.561-7.534c-2.678,15.802-19.513,24.664-19.589,39.18c-0.053,9.669,12.385,27.185,22.604,34.659
	c33.055,24.179,60.556-3.361,72.331-31.646c-5.889,27.766-16.572,50.737-51.234,49.729c-2.037,11.752-19.395,8.434-27.125,10.548
	C207.479,212.152,200.06,216.551,194.248,214.857z" id="path-2" style="position: relative;"></path>
<path fill-rule="evenodd" clip-rule="evenodd" fill="#0F5801" d="M242.467,148.554c3.21-5.303,18.884,0.714,19.591-10.549
	C269.355,149.359,249.806,155.978,242.467,148.554z" id="path-3" style="position: relative;"></path>
<path fill-rule="evenodd" clip-rule="evenodd" fill="#0F5801" d="M106.844,383.633c0.456-6.577,1.567-12.499,4.521-16.577
	c9.154,67.197,79.467,73.234,143.157,85.895c-2.599,4.434-15.483-1.42-18.082,3.015c-9.544,0-19.089,0-28.632,0
	c-47.3-5.442-92.398-13.087-100.964-57.263C106.844,393.679,106.844,388.656,106.844,383.633z" id="path-4" style="position: relative;"></path>
<path fill-rule="evenodd" clip-rule="evenodd" fill="#0F5801" d="M219.864,145.54c6.417,10.25-19.021,15.307-21.097,4.521
	C202.019,147.974,218.317,153.461,219.864,145.54z" id="path-5" style="position: relative;"></path>
</svg>
