<?xml version="1.0" encoding="utf-8"?>
<!-- Generator: Adobe Illustrator 22.1.0, SVG Export Plug-In . SVG Version: 6.00 Build 0)  -->
<svg version="1.1" id="Layer_1" xmlns="http://www.w3.org/2000/svg" xmlns:xlink="http://www.w3.org/1999/xlink" x="0px" y="0px"
	 viewBox="0 0 128 128" style="enable-background:new 0 0 128 128;" xml:space="preserve">
<style type="text/css">
	.st0{fill:#FFAE00;}
	.st1{fill:#FFFFFF;stroke:#FFFFFF;stroke-miterlimit:10;}
</style>
<circle class="st0" cx="63.8" cy="64.2" r="63.1"/>
<g>
	<path class="st1" d="M95.3,35.3l-0.1-2.1l-2.1-0.5c-0.7-0.2-16.2-4.1-29.4-4.1c-13.3,0-28.8,3.9-29.4,4.1l-2.1,0.5l-0.1,2.1
		C32.1,36.5,31,62,33.5,73.5C35.8,84,54.7,94.9,61.2,98.3l1.6,0.9c0.1,0.1,0.9,0.4,1,0.4c0,0,0.9-0.6,1.3-0.9
		C82.6,89.3,92.3,80.8,94,73.5C96.6,62,95.4,36.4,95.3,35.3z M88.4,72.3c-0.5,2.5-4.1,9.5-24.9,20.8c-9.4-5.1-23-14.3-24.4-20.8
		c-2-9-1.5-28.1-1.3-34.5c4.6-1,16.1-3.4,25.9-3.4s21.3,2.3,25.9,3.4C89.9,44.2,90.4,63.3,88.4,72.3z"/>
	<path class="st1" d="M63.9,69c-1.2,0-2.2,0.3-2.8,0.9c-0.6,0.6-1,1.5-1,2.7c0,1.1,0.3,2,1,2.7c0.6,0.6,1.6,1,2.8,1
		c1.1,0,2.1-0.3,2.7-1c0.6-0.6,1-1.5,1-2.6s-0.3-2-1-2.7C66,69.3,65.1,69,63.9,69z"/>
	<polygon class="st1" points="61.4,67.1 66.5,67.1 67.6,46.6 60.4,46.6 	"/>
</g>
</svg>
