<svg xmlns="http://www.w3.org/2000/svg" width="126.2" height="126.2" viewBox="0 0 126.2 126.2">
  <g id="Group_30" data-name="Group 30" transform="translate(-732 -186)">
    <g id="Group_28" data-name="Group 28">
      <g id="Group_27" data-name="Group 27" transform="translate(59 -47)">
        <g id="img-menu-pdt-no" transform="translate(671.7 231.6)">
          <circle id="Ellipse_5" data-name="Ellipse 5" cx="63.1" cy="63.1" r="63.1" transform="translate(1.3 1.4)" fill="#f1f5f8"/>
          <path id="Path_21" data-name="Path 21" d="M38.3,95.069a2.669,2.669,0,0,0,2.592,2.664H76.708A2.608,2.608,0,0,0,79.3,95.069V30.464A2.669,2.669,0,0,0,76.708,27.8H40.892A2.608,2.608,0,0,0,38.3,30.464ZM63.041,30.654a.832.832,0,0,1,.785.761.775.775,0,0,1-.785.761H54.4a.763.763,0,0,1-.785-.761.775.775,0,0,1,.785-.761Zm13.824,4.282V88.409H40.5V34.936ZM58.8,95.45a2.373,2.373,0,0,1-2.2-2.569,2.425,2.425,0,0,1,2.2-2.569A2.373,2.373,0,0,1,61,92.881,2.425,2.425,0,0,1,58.8,95.45Z" transform="translate(4)" fill="#888b8f"/>
        </g>
        <g id="Ellipse_6" data-name="Ellipse 6" transform="translate(723 284)" fill="#f1f5f8" stroke="#888b8f" stroke-width="3">
          <circle cx="25.5" cy="25.5" r="25.5" stroke="none"/>
          <circle cx="25.5" cy="25.5" r="24" fill="none"/>
        </g>
        <g id="Group_29" data-name="Group 29" transform="translate(728.795 291.5)">
          <path id="Path_22" data-name="Path 22" d="M6.211,28.006c0,3.45,5.822,6.153,13.253,6.153s13.253-2.7,13.253-6.153V7.653c0-3.45-5.824-6.153-13.26-6.153S6.205,4.2,6.205,7.653C6.205,11.5,6.211-2.576,6.211,28.006Zm13.247-14.2c3.761,0,9.269-.845,11.953-3.445v4.062c0,.005,0,.009,0,.014,0,2.34-4.8,4.846-11.947,4.846-7.116,0-11.9-2.484-11.944-4.816V10.354C10.215,12.961,15.679,13.806,19.458,13.806ZM7.518,17.132c2.118,2.062,6.609,3.458,11.944,3.458s9.835-1.4,11.95-3.464c0,.073,0-.632,0,4.1a3.448,3.448,0,0,1-1.837,2.521c-2.256,1.456-6.035,2.325-10.11,2.325-7.141,0-11.939-2.5-11.946-4.842V17.132ZM19.465,32.853c-7.146,0-11.947-2.506-11.947-4.847V23.913c2.117,2.063,6.609,3.461,11.946,3.461,3.757,0,9.271-.824,11.947-3.433v4.065C31.411,30.347,26.611,32.853,19.465,32.853ZM19.458,2.806c7.15,0,11.953,2.506,11.953,4.847S26.608,12.5,19.458,12.5c-3.887,0-11.183-1.028-11.947-4.847C7.511,5.312,12.312,2.806,19.458,2.806Z" transform="translate(0)" fill="#888b8f" stroke="#888b8f" stroke-width="1"/>
        </g>
      </g>
    </g>
  </g>
</svg>
