<?xml version="1.0" encoding="utf-8"?>
<!-- Generator: Adobe Illustrator 23.0.1, SVG Export Plug-In . SVG Version: 6.00 Build 0)  -->
<svg version="1.1" id="Layer_1" xmlns="http://www.w3.org/2000/svg" xmlns:xlink="http://www.w3.org/1999/xlink" x="0px" y="0px"
	 viewBox="0 0 490 490" style="enable-background:new 0 0 490 490;" xml:space="preserve">
<style type="text/css">
	.st0{fill:#41A0EC;stroke:#96CFFF;stroke-width:6;stroke-miterlimit:10;}
	.st1{fill:#48AAED;}
</style>
<circle class="st0" cx="243.7" cy="242.1" r="232"/>
<g>
	<path class="st1" d="M277,209.5c-28.3-18-56.7-9.9-72.6,5.6c-15.9,15.9-23.5,44.3-5.6,72.6c2.7,4,6.4,8,10.8,10.8
		c11.6,7.2,22.7,10.3,33.6,10.3c15.5,0,29.5-6.8,39-15.9c15.9-15.9,23.5-44.3,5.6-72.6C284.9,215.9,281.4,212.2,277,209.5z
		 M271.7,282.5c-10.8,10.8-31.5,18.4-54.7,3.7c-2.4-1.6-4.8-3.7-6.4-6.4c-14.8-23.1-7.2-43.9,3.7-54.7c6.4-6.4,16.7-12,28.7-12
		c8,0,16.7,2.4,26,8c2.4,1.6,4.8,3.7,6.4,6.4C290.2,251,283,271.7,271.7,282.5z"/>
	<path class="st1" d="M350.7,156.3h-57.1l-1.6-4.4c-3.1-9.9-12.8-16.7-23.5-16.7h-48.3c-10.8,0-20,6.8-23.5,16.7l-1.6,4.4H137
		c-16.7,0-30.3,13.6-30.3,30.3v132c0,16.7,13.6,30.3,30.3,30.3h213.5c16.7,0,30.3-13.6,30.3-30.3V186.8
		C381.2,169.9,367.6,156.3,350.7,156.3z M366.4,318.4c0,8.8-7.2,15.9-15.9,15.9H137c-8.8,0-15.9-7.2-15.9-15.9V186.8
		c0-8.8,7.2-15.9,15.9-15.9h63.5c3.1,0,6-2,6.8-4.8l3.1-9.1c1.6-4.4,5.2-7.2,9.9-7.2h48.3c4.4,0,8.4,2.7,9.9,7.2l3.1,9.1
		c0.8,2.7,3.7,4.8,6.8,4.8h62.3c8.8,0,15.9,7.2,15.9,15.9C366.4,186.8,366.4,318.4,366.4,318.4z"/>
	<circle class="st1" cx="152.1" cy="190.7" r="8.4"/>
</g>
</svg>
