<?xml version="1.0" encoding="utf-8"?>
<!-- Generator: Adobe Illustrator 22.1.0, SVG Export Plug-In . SVG Version: 6.00 Build 0)  -->
<svg version="1.1" id="Layer_1" xmlns="http://www.w3.org/2000/svg" xmlns:xlink="http://www.w3.org/1999/xlink" x="0px" y="0px"
	 viewBox="0 0 128 128" style="enable-background:new 0 0 128 128;" xml:space="preserve">
<style type="text/css">
	.st0{fill:#FFAE00;}
	.st1{fill:#FFFFFF;}
</style>
<g>
	<g>
		<circle class="st0" cx="64" cy="63.7" r="63.1"/>
	</g>
</g>
<g>
	<g>
		<path class="st1" d="M44.1,100h5.6c0.2,0,0.4-0.1,0.6-0.2h2.1l10.7,4.7c0.4,0.2,0.9,0.2,1.3-0.1l19-11.7c1.2-0.6,1.7-2,1.4-3.2
			c-0.3-1.3-1.5-2.2-2.9-2.2c-0.1,0-0.1,0-0.2,0l-19.2,2.9l-4.1-2.7c-0.2-0.1-0.5-0.2-0.8-0.2h-6.6c0-0.8-0.6-1.4-1.4-1.4h-5.6
			c-0.8,0-1.4,0.6-1.4,1.4v11.3C42.7,99.4,43.3,100,44.1,100C44.1,100,44.1,100,44.1,100z M51.1,90.1h6.2l6.5,4.2
			c0.2,0.2,0.4,0.4,0.5,0.7c0,0.3,0,0.5-0.2,0.7c-0.4,0.4-1,0.6-1.5,0.2l-4-2.6l-1.5,2.4l4,2.6c1.7,1.1,4,0.7,5.3-0.9
			c1.1-1.5,1-3.5-0.2-4.9l16.1-2.4l-0.1,0.1l-18.5,11.4l-10.3-4.6C53.1,97,52.9,97,52.7,97h-1.6V90.1z M45.5,88.7h2.8v8.5h-2.8V88.7
			z"/>
		<path class="st1" d="M63.7,105.4c-0.3,0-0.6-0.1-0.9-0.2l-10.6-4.7h-1.7c-0.3,0.1-0.5,0.2-0.8,0.2h-5.7c-1.2,0-2.1-0.9-2.1-2.1
			V87.3c0-1.2,0.9-2.1,2.1-2.1h5.6c0.9,0,1.7,0.6,2,1.4h6c0,0,0,0,0,0c0.4,0,0.8,0.1,1.1,0.3l3.9,2.5l18.9-2.9c0.1,0,0.2,0,0.3,0
			c1.7,0,3.1,1.1,3.5,2.7c0.4,1.6-0.3,3.2-1.7,4l-19,11.7C64.5,105.3,64.1,105.4,63.7,105.4z M50.2,99.1h2.4l10.9,4.8
			c0.2,0.1,0.5,0.1,0.7,0l19-11.7c0.9-0.5,1.3-1.5,1.1-2.5c-0.3-1-1.1-1.7-2.1-1.7c0,0,0,0,0,0c0,0-0.1,0-0.1,0l-19.4,2.9l-4.4-2.8
			C58,88,57.9,88,57.7,88c0,0,0,0,0,0h-7.3v-0.7c0-0.4-0.3-0.7-0.7-0.7h-5.6c-0.4,0-0.7,0.3-0.7,0.7v11.3c0,0.4,0.3,0.7,0.7,0.7
			l0,0.7l0-0.7h5.6c0.1,0,0.2,0,0.3-0.1L50.2,99.1z M63.7,102.5L53,97.8c-0.1,0-0.2-0.1-0.3-0.1h-2.3v-8.3h7.1l6.6,4.3
			c0.4,0.3,0.7,0.7,0.8,1.1c0.1,0.5,0,0.9-0.3,1.3c-0.6,0.7-1.6,0.9-2.4,0.4l-3.4-2.2l-0.8,1.2l3.4,2.2c1.4,0.9,3.3,0.6,4.3-0.7
			c0.9-1.2,0.8-2.9-0.2-4l-0.9-1l18.8-2.8l-0.8,1.5L63.7,102.5z M51.8,96.3h0.9c0.3,0,0.6,0.1,0.8,0.2l10,4.4l15.5-9.6l-11.8,1.8
			c0.8,1.5,0.6,3.4-0.4,4.8c-1.5,1.9-4.2,2.3-6.2,1l-4.6-3l2.3-3.5l4.6,3c0.2,0.1,0.4,0.1,0.6-0.1c0,0,0.1-0.1,0-0.2
			c0-0.1-0.1-0.2-0.1-0.2l-6.3-4.1h-5.3V96.3z M49,97.9h-4.2V88H49V97.9z M46.2,96.5h1.4v-7.1h-1.4V96.5z"/>
	</g>
	<g>
		<path class="st1" d="M77.3,24.9h-2.1l-10.7-4.7c-0.4-0.2-0.9-0.2-1.3,0.1L44.1,32c-1.2,0.6-1.7,2-1.4,3.2c0.3,1.3,1.5,2.2,2.9,2.2
			c0.1,0,0.1,0,0.2,0L65,34.5l4.1,2.7c0.2,0.1,0.5,0.2,0.8,0.2h6.6c0,0.8,0.6,1.4,1.4,1.4h5.6c0.8,0,1.4-0.6,1.4-1.4V26.1
			c0-0.8-0.6-1.4-1.4-1.4h-5.6C77.7,24.7,77.5,24.8,77.3,24.9z M76.5,34.6h-6.2l-6.5-4.2c-0.2-0.2-0.4-0.4-0.5-0.7
			c0-0.3,0-0.5,0.2-0.7c0.4-0.4,1-0.6,1.5-0.2l4,2.6l1.5-2.4l-4-2.6c-1.7-1.1-4-0.7-5.3,0.9c-1.1,1.5-1,3.5,0.2,4.9l-16.1,2.4
			l0.1-0.1L64,23l10.3,4.6c0.2,0.1,0.4,0.1,0.6,0.1h1.6V34.6z M79.3,27.5h2.8V36h-2.8V27.5z"/>
		<path class="st1" d="M83.6,39.5h-5.6c-0.9,0-1.7-0.6-2-1.4h-6c-0.4,0-0.8-0.1-1.1-0.3l-3.9-2.5l-18.9,2.9c-0.1,0-0.2,0-0.4,0
			c-1.6,0-3.1-1.1-3.5-2.7c-0.4-1.6,0.3-3.2,1.7-4l19-11.7c0.6-0.4,1.3-0.4,2-0.1l10.6,4.7h1.7c0.3-0.1,0.5-0.2,0.8-0.2l5.7,0
			c1.2,0,2.1,0.9,2.1,2.1v11.3C85.7,38.6,84.7,39.5,83.6,39.5z M65.2,33.8l4.4,2.8c0.1,0.1,0.3,0.1,0.4,0.1h7.3v0.7
			c0,0.4,0.3,0.7,0.7,0.7h5.6c0.4,0,0.7-0.3,0.7-0.7V26.1c0-0.4-0.3-0.7-0.7-0.7h-5.6c-0.1,0-0.2,0-0.3,0.1l-0.2,0.1h-2.4l-10.9-4.8
			c-0.2-0.1-0.5-0.1-0.7,0l-19,11.7c-0.9,0.5-1.3,1.5-1.1,2.5c0.3,1,1.2,1.7,2.2,1.7c0,0,0.1,0,0.1,0L65.2,33.8z M82.9,36.7h-4.2
			v-9.9h4.2V36.7z M80,35.3h1.4v-7.1H80V35.3z M44.3,35.4l0.8-1.5L64,22.2l10.7,4.7c0.1,0,0.2,0.1,0.3,0.1h2.3v8.3h-7.1L63.5,31
			c-0.4-0.2-0.7-0.7-0.8-1.1c-0.1-0.5,0-0.9,0.3-1.3c0.6-0.7,1.6-0.9,2.4-0.4l3.5,2.2l0.8-1.2L66.3,27c-1.4-0.9-3.3-0.6-4.3,0.7
			c-0.9,1.2-0.8,2.9,0.2,4l0.9,1L44.3,35.4z M70.5,33.9h5.3v-5.5h-0.9c-0.3,0-0.6-0.1-0.8-0.2l-10-4.4l-15.5,9.6l11.8-1.8
			c-0.8-1.5-0.6-3.4,0.4-4.8c1.5-1.9,4.2-2.4,6.2-1l4.6,3l-2.3,3.5l-4.6-3c-0.2-0.1-0.4-0.1-0.6,0.1c0,0-0.1,0.1,0,0.2
			c0,0.1,0.1,0.2,0.1,0.2L70.5,33.9z"/>
	</g>
	<g>
		<path class="st1" d="M85.3,41.5c11,12.1,10.8,30.7-0.7,42.5l2,2c12.4-12.8,12.7-33.1,0.7-46.3L85.3,41.5z"/>
		<path class="st1" d="M86.7,86.9l-3-2.9l0.5-0.5C95.3,72,95.6,53.7,84.8,41.9l-0.5-0.5l3.1-2.8l0.5,0.5
			c12.3,13.5,11.9,34.2-0.7,47.3L86.7,86.9z M85.7,83.9l1,1c11.5-12.4,11.8-31.6,0.7-44.4l-1,1C97,53.7,96.7,72.1,85.7,83.9z"/>
	</g>
	<g>
		<path class="st1" d="M40.1,40.8l-2-2c-12.7,13.1-12.7,34,0,47.1l2-2C28.5,71.9,28.5,52.8,40.1,40.8z"/>
		<path class="st1" d="M38.1,86.9l-0.5-0.5c-13.1-13.5-13.1-34.6,0-48.1l0.5-0.5l3,2.9l-0.5,0.5c-11.5,11.8-11.5,30.4,0,42.2
			l0.5,0.5L38.1,86.9z M38.1,39.8c-11.9,12.8-11.9,32.3,0,45.1l1-1c-11.3-12.2-11.3-30.9,0-43.1L38.1,39.8z"/>
	</g>
</g>
<g>
	<path class="st1" d="M57,62.6c0,1.7-0.3,3.1-0.9,4.4c-0.6,1.3-1.4,2.2-2.5,2.9c-1.1,0.7-2.4,1-3.8,1c-1.4,0-2.7-0.3-3.8-1
		c-1.1-0.7-2-1.6-2.6-2.9s-0.9-2.7-0.9-4.3v-0.8c0-1.7,0.3-3.1,0.9-4.4c0.6-1.3,1.5-2.2,2.6-2.9c1.1-0.7,2.4-1,3.8-1s2.7,0.3,3.8,1
		c1.1,0.7,1.9,1.7,2.5,2.9c0.6,1.3,0.9,2.7,0.9,4.4V62.6z M53.5,61.8c0-1.8-0.3-3.1-1-4.1c-0.6-0.9-1.5-1.4-2.7-1.4
		c-1.2,0-2.1,0.5-2.7,1.4c-0.6,0.9-1,2.2-1,4v0.8c0,1.7,0.3,3.1,1,4c0.6,1,1.6,1.4,2.7,1.4c1.2,0,2.1-0.5,2.7-1.4
		c0.6-0.9,0.9-2.3,1-4V61.8z"/>
	<path class="st1" d="M63,67.9h7.4v2.8H59.5v-17H63V67.9z"/>
	<path class="st1" d="M72.5,70.7v-17h5.2c1.5,0,2.8,0.3,4,1c1.2,0.7,2.1,1.6,2.8,2.9c0.7,1.2,1,2.6,1,4.2v0.8c0,1.6-0.3,3-1,4.2
		c-0.6,1.2-1.6,2.2-2.7,2.9c-1.2,0.7-2.5,1-4,1H72.5z M75.9,56.6v11.3h1.7c1.4,0,2.4-0.4,3.1-1.3c0.7-0.9,1.1-2.2,1.1-3.8v-0.9
		c0-1.7-0.4-3-1.1-3.9c-0.7-0.9-1.8-1.3-3.1-1.3H75.9z"/>
</g>
</svg>
