<?xml version="1.0" encoding="utf-8"?>
<!-- Generator: Adobe Illustrator 23.0.2, SVG Export Plug-In . SVG Version: 6.00 Build 0)  -->
<svg version="1.1" id="Layer_1" xmlns="http://www.w3.org/2000/svg" xmlns:xlink="http://www.w3.org/1999/xlink" x="0px" y="0px"
	 viewBox="0 0 128 128" style="enable-background:new 0 0 128 128;" xml:space="preserve">
<style type="text/css">
	.st0{fill:#F1F5F8;}
	.st1{fill:#888B8F;}
</style>
<circle class="st0" cx="64.4" cy="64.5" r="63.1"/>
<path class="st1" d="M38.3,98.5c0,1.5,1.5,2.8,3.3,2.8h45.6c1.8,0,3.3-1.2,3.3-2.8V30.6c0-1.5-1.5-2.8-3.3-2.8H41.6
	c-1.8,0-3.3,1.2-3.3,2.8V98.5z M69.8,30.8c0.5,0,1,0.4,1,0.8s-0.4,0.8-1,0.8h-11c-0.5,0-1-0.3-1-0.8c0-0.4,0.4-0.8,1-0.8H69.8z
	 M87.4,35.3v56.2H41.1V35.3L87.4,35.3z M64.4,98.9c-1.6,0-2.8-1.2-2.8-2.7c0-1.5,1.3-2.7,2.8-2.7c1.6,0,2.8,1.2,2.8,2.7
	S65.9,98.9,64.4,98.9z"/>
</svg>
