<?xml version="1.0" encoding="utf-8"?>
<!-- Generator: Adobe Illustrator 23.0.2, SVG Export Plug-In . SVG Version: 6.00 Build 0)  -->
<svg version="1.1" id="Layer_1" xmlns="http://www.w3.org/2000/svg" xmlns:xlink="http://www.w3.org/1999/xlink" x="0px" y="0px"
	 viewBox="0 0 128 128" style="enable-background:new 0 0 128 128;" xml:space="preserve">
<style type="text/css">
	.st0{fill:#F1F5F8;}
	.st1{fill:#888B8F;}
</style>
<circle class="st0" cx="63.8" cy="63.9" r="63.1"/>
<g>
	<g>
		<path class="st1" d="M96.9,85.7v1.6c0,0.2-0.1,0.3-0.2,0.3H95c-1.3,1.2-2.8,2.2-4.4,2.9h6.1c1.7,0,3-1.5,3-3.3v-6
			C99,82.9,98.1,84.4,96.9,85.7z"/>
	</g>
	<path class="st1" d="M96.7,33.8H30.3c-1.7,0-3,1.5-3,3.3v50.3c0,1.8,1.4,3.3,3,3.3h49.2v0.1c0.3,0,0.6-0.1,1-0.1h10.6
		c0.3-0.3,4.2-2.7,4-2.9H82.3V77.1h14.6v0.6V86l2.8-3.9v-5v-2.9V37C99.7,35.2,98.4,33.8,96.7,33.8z M82.3,36.7h14.4
		c0.1,0,0.2,0.1,0.2,0.3v10.2H82.3V36.7z M64.9,36.7h14.6v10.5H64.9V36.7z M64.9,50.2h14.6v10.5H64.9V50.2z M79.5,63.6v10.5H64.9
		V63.6H79.5z M47.5,36.7h14.6v10.5H47.5V36.7z M47.5,50.2h14.6v10.5H47.5V50.2z M47.5,63.6h14.6v10.5H47.5V63.6z M44.7,87.6H30.3
		c-0.1,0-0.2-0.1-0.2-0.3V77.1h14.6V87.6z M44.7,74.2H30.1V63.6h14.6V74.2z M44.7,60.7H30.1V50.2h14.6V60.7z M44.7,47.2H30.1V37
		c0-0.2,0.1-0.3,0.2-0.3h14.4V47.2z M62.1,87.6H47.5V77.1h14.6V87.6z M79.5,87.6H64.9v-5.3v-1v-4.2h14.6V87.6z M82.3,74.2V63.6h14.6
		v10.5H82.3z M82.3,60.7V50.2h14.6v10.5H82.3z"/>
</g>
</svg>
