<?xml version="1.0" encoding="utf-8"?>
<!-- Generator: Adobe Illustrator 23.0.1, SVG Export Plug-In . SVG Version: 6.00 Build 0)  -->
<svg version="1.1" id="Layer_1" xmlns="http://www.w3.org/2000/svg" xmlns:xlink="http://www.w3.org/1999/xlink" x="0px" y="0px"
	 viewBox="0 0 128 128" style="enable-background:new 0 0 128 128;" xml:space="preserve">
<style type="text/css">
	.st0{fill:#474747;}
	.st1{fill:#FFFFFF;}
</style>
<circle class="st0" cx="64" cy="63.9" r="64"/>
<g>
	<path class="st1" d="M86.1,86.5c-5.3,4.9-12.3,7.6-19.8,7.6c-0.2,0-0.4,0-0.6,0c-12.2-0.2-19-4.2-25.8-12.5l-6.3,5
		c-0.1,0.1-0.3,0.1-0.4,0c-0.1-0.1-0.2-0.2-0.2-0.4l1.4-12.7c0-0.4,0-0.9,0.1-1.3l0.3-2.7c0-0.2,0.2-0.3,0.3-0.3l16.7,1.9
		c0.1,0,0.3,0.1,0.3,0.3c0.1,0.1,0,0.3-0.1,0.4l-7.6,6.1c5.7,6.9,11.2,10,21.2,10.2c6.1,0.1,11.9-2,16.2-6c4.3-4,6.8-9.5,6.9-15.5
		c0-1.6,1.4-2.9,3-2.9c0,0,0,0,0.1,0c1.7,0,3,1.4,2.9,3C94.7,74.3,91.6,81.3,86.1,86.5z"/>
	<path class="st1" d="M93.5,58c0,0.2-0.2,0.3-0.3,0.3l-16.7-1.6c-0.1,0-0.3-0.1-0.3-0.3c-0.1-0.1,0-0.3,0.1-0.4l7.2-6
		c-6-7.2-11.5-10.3-21.8-10.3c-12.7,0-22.7,9.7-22.7,22c0,1.7-1.3,3-3,3s-3-1.3-3-3c0-15.7,12.6-28,28.7-28
		c12.5,0,19.4,4.1,26.4,12.5l6.5-5.4c0.1-0.1,0.3-0.1,0.4,0c0.1,0.1,0.2,0.2,0.2,0.4L93.5,58z"/>
</g>
</svg>
