<?xml version="1.0" encoding="utf-8"?>
<!-- Generator: Adobe Illustrator 22.1.0, SVG Export Plug-In . SVG Version: 6.00 Build 0)  -->
<svg version="1.1" id="Layer_1" xmlns="http://www.w3.org/2000/svg" xmlns:xlink="http://www.w3.org/1999/xlink" x="0px" y="0px"
	 viewBox="0 0 128 128" style="enable-background:new 0 0 128 128;" xml:space="preserve">
<style type="text/css">
	.st0{fill:#0AE0AA;}
	.st1{fill:#FFFFFF;}
</style>
<circle class="st0" cx="64" cy="64.3" r="63.1"/>
<g>
	<g>
		<path class="st1" d="M64,105.5c-23.2,0-42-18.8-42-42s18.8-42,42-42s42,18.8,42,42S87.2,105.5,64,105.5z M64,26.2
			c-20.6,0-37.3,16.7-37.3,37.3c0,20.6,16.7,37.3,37.3,37.3s37.3-16.7,37.3-37.3C101.3,42.9,84.6,26.2,64,26.2z M64,93
			c-16.2,0-29.5-13.2-29.5-29.5S47.8,34,64,34s29.5,13.2,29.5,29.5S80.2,93,64,93z M64,38.7c-13.7,0-24.8,11.1-24.8,24.8
			c0,13.7,11.1,24.8,24.8,24.8c13.7,0,24.8-11.1,24.8-24.8C88.8,49.8,77.7,38.7,64,38.7z"/>
	</g>
</g>
<g>
	<path class="st1" d="M56.2,26.9l3.2,7.8l16.7,3.6l6,4.6l4.1,5c0,0,3.4,5.6,3.4,6c0,0.4,1,5.4,1,5.4v10.7l-4,9.1l-11.4,8l-14.4,3.7
		l-4-1.4l-10,10l7.7,2.7l11.4,1l9.8-1.5l9.1-3.7l8-7.3l7.3-10l2.9-11.2l-0.9-15.2L95.6,39L85,30.2l-12.8-5l-12.9-0.5h-3.6L56.2,26.9
		z"/>
</g>
</svg>
