<?xml version="1.0" encoding="utf-8"?>
<!-- Generator: Adobe Illustrator 23.0.2, SVG Export Plug-In . SVG Version: 6.00 Build 0)  -->
<svg version="1.1" id="Layer_1" xmlns="http://www.w3.org/2000/svg" xmlns:xlink="http://www.w3.org/1999/xlink" x="0px" y="0px"
	 viewBox="0 0 128 128" style="enable-background:new 0 0 128 128;" xml:space="preserve">
<style type="text/css">
	.st0{fill:#F1F5F8;}
	.st1{fill:#888B8F;}
</style>
<circle class="st0" cx="64.4" cy="64" r="63.1"/>
<g>
	<g>
		<path class="st1" d="M63.5,28.5c-19.5,0-35.4,15.9-35.4,35.4S44,99.3,63.5,99.3s35.4-15.9,35.4-35.4S83.1,28.5,63.5,28.5z
			 M63.5,96.8c-18.1,0-32.9-14.8-32.9-32.9C30.7,45.8,45.4,31,63.5,31s32.9,14.8,32.9,32.9C96.4,82,81.7,96.8,63.5,96.8z M63.5,51.1
			c1.4,0,2.6-1.2,2.6-2.6c0-1.4-1.2-2.6-2.6-2.6c-1.4,0-2.6,1.2-2.6,2.6C60.9,50,62.1,51.1,63.5,51.1z M63.5,56.7
			c-0.8,0-1.5,0.7-1.5,1.5v22.4c0,0.8,0.7,1.5,1.5,1.5s1.5-0.7,1.5-1.5V58.1C65,57.3,64.4,56.7,63.5,56.7z"/>
		<path class="st1" d="M63.5,99.9c-19.8,0-36-16.1-36-36s16.1-36,36-36s36,16.1,36,36S83.4,99.9,63.5,99.9z M63.5,29.1
			c-19.2,0-34.8,15.6-34.8,34.8s15.6,34.8,34.8,34.8s34.8-15.6,34.8-34.8S82.7,29.1,63.5,29.1z M63.5,97.4
			c-18.5,0-33.5-15-33.5-33.5c0-18.5,15-33.5,33.5-33.5S97,45.4,97,63.9C97,82.4,82,97.4,63.5,97.4z M63.5,31.6
			c-17.8,0-32.3,14.5-32.3,32.3c0,17.8,14.5,32.3,32.3,32.3s32.3-14.5,32.3-32.3C95.8,46.1,81.4,31.6,63.5,31.6z M63.5,82.6
			c-1.1,0-2.1-0.9-2.1-2.1V58.1c0-1.1,0.9-2.1,2.1-2.1c1.1,0,2.1,0.9,2.1,2.1v22.4C65.6,81.7,64.7,82.6,63.5,82.6z M63.5,57.3
			c-0.5,0-0.9,0.4-0.9,0.9v22.4c0,0.5,0.4,0.9,0.9,0.9c0.5,0,0.9-0.4,0.9-0.9V58.1C64.4,57.7,64,57.3,63.5,57.3z M63.5,51.7
			c-1.8,0-3.2-1.4-3.2-3.2c0-1.8,1.4-3.2,3.2-3.2c1.8,0,3.2,1.4,3.2,3.2C66.8,50.3,65.3,51.7,63.5,51.7z M63.5,46.5
			c-1.1,0-2,0.9-2,2c0,1.1,0.9,2,2,2s2-0.9,2-2C65.6,47.4,64.7,46.5,63.5,46.5z"/>
	</g>
</g>
</svg>
