<?xml version="1.0" encoding="utf-8"?>
<!-- Generator: Adobe Illustrator 23.0.1, SVG Export Plug-In . SVG Version: 6.00 Build 0)  -->
<svg version="1.1" id="Layer_1" xmlns="http://www.w3.org/2000/svg" xmlns:xlink="http://www.w3.org/1999/xlink" x="0px" y="0px"
	 viewBox="0 0 128 128" style="enable-background:new 0 0 128 128;" xml:space="preserve">
<style type="text/css">
	.st0{fill:#474747;}
	.st1{fill:#FFFFFF;}
	.st2{fill:#474747;stroke:#FFFFFF;stroke-width:2.3;stroke-miterlimit:10;}
	.st3{fill:#FFFFFF;stroke:#FFFFFF;stroke-width:0.5;stroke-miterlimit:10;}
</style>
<circle class="st0" cx="64" cy="64" r="64"/>
<path class="st1" d="M86.3,43.1H36.5c-1.4,0-2.6,1.2-2.6,2.6v27.8c0,1.4,1.2,2.6,2.6,2.6h49.7c1.4,0,2.6-1.2,2.6-2.6V45.7
	C88.9,44.3,87.7,43.1,86.3,43.1z M86.1,73.2H36.7l0.1-27.3h49.3L86.1,73.2z"/>
<path class="st1" d="M87.8,82H35.1c-0.6,0-1-0.5-1-1v-0.8c0-0.6,0.5-1,1-1h52.7c0.6,0,1,0.5,1,1v0.8C88.9,81.5,88.4,82,87.8,82z"/>
<path class="st2" d="M94.1,81H76.9c-1.1,0-2-0.9-2-2V51.5c0-1.1,0.9-2,2-2h17.3c1.1,0,2,0.9,2,2V79C96.1,80.1,95.2,81,94.1,81z"/>
<path class="st1" d="M88.2,76.9h-5.1c-0.4,0-0.6-0.3-0.6-0.6v-1.1c0-0.4,0.3-0.6,0.6-0.6h5.1c0.4,0,0.6,0.3,0.6,0.6v1.1
	C88.9,76.6,88.6,76.9,88.2,76.9z"/>
<rect x="67.5" y="55.7" class="st0" width="15" height="11.9"/>
<path class="st3" d="M67.4,64.4c-0.7-0.7-1.2-1.7-1.2-2.8v-2.2l1.3,1.3l1.3-1.3L65.3,56l-3.5,3.5l1.3,1.3l1.3-1.3v2.2
	c0,1.5,0.6,3,1.7,4.1c1.1,1.1,2.5,1.7,4.1,1.7h9.7v-1.8h-9.7C69.1,65.6,68.1,65.2,67.4,64.4z"/>
<path class="st3" d="M86.4,63.8v-2.2c0-1.5-0.6-3-1.7-4.1c-1.1-1.1-2.5-1.7-4.1-1.7H71v1.8h9.7c1.1,0,2,0.4,2.8,1.2
	c0.7,0.7,1.2,1.7,1.2,2.8v2.2l-1.3-1.3L82,63.8l3.5,3.5l3.5-3.5l-1.3-1.3L86.4,63.8z"/>
</svg>
