<svg xmlns="http://www.w3.org/2000/svg" width="128" height="128" viewBox="0 0 128 128">
  <g id="Group_9" data-name="Group 9" transform="translate(-519 -273)">
    <circle id="Ellipse_2" data-name="Ellipse 2" cx="64" cy="64" r="64" transform="translate(519 273)" fill="#f1f5f8"/>
    <path id="ic_repeat_24px" d="M16.579,14.474H50.527v8.684L64.106,11.579,50.527,0V8.684H9.79V26.053h6.79ZM50.527,48.685H16.579V40L3,51.58,16.579,63.159V54.475H57.317V37.106h-6.79Z" transform="translate(545.5 300.75)" fill="#888b8f" stroke="#888b8f" stroke-width="1.5"/>
    <g id="Group_7" data-name="Group 7" transform="translate(136.249 -33.667)">
      <g id="Ellipse_3" data-name="Ellipse 3" transform="translate(442.751 368.667)" fill="#f1f5f8" stroke="#888b8f" stroke-width="3">
        <circle cx="20" cy="20" r="20" stroke="none"/>
        <circle cx="20" cy="20" r="18.5" fill="none"/>
      </g>
      <g id="noun_database_1021176" transform="translate(427.592 357.417)">
        <path id="Path_3" data-name="Path 3" d="M35.759,33.378A38.866,38.866,0,0,1,29.3,32.9a7.089,7.089,0,0,1-2.544-.8v3.905h.027c.393,1.168,5.5,1.6,8.973,1.6s8.581-.429,8.973-1.6h.027V32.1a7.1,7.1,0,0,1-2.544.8A38.888,38.888,0,0,1,35.759,33.378Z" transform="translate(0 -6.893)" fill="none" stroke="#888b8f" stroke-width="2"/>
        <path id="Path_4" data-name="Path 4" d="M35.759,50.73a38.866,38.866,0,0,1-6.456-.476,7.089,7.089,0,0,1-2.544-.8v3.9h.027c.393,1.168,5.5,1.6,8.973,1.6s8.581-.429,8.973-1.6h.027v-3.9a7.1,7.1,0,0,1-2.544.8A38.853,38.853,0,0,1,35.759,50.73Z" transform="translate(0 -19.349)" fill="none" stroke="#888b8f" stroke-width="2"/>
        <path id="Path_5" data-name="Path 5" d="M35.759,68.08A38.866,38.866,0,0,1,29.3,67.6a7.089,7.089,0,0,1-2.544-.8v3.905h.027c.393,1.168,5.5,1.6,8.973,1.6s8.581-.429,8.973-1.6h.027V66.8a7.1,7.1,0,0,1-2.544.8A38.888,38.888,0,0,1,35.759,68.08Z" transform="translate(0 -31.805)" fill="none" stroke="#888b8f" stroke-width="2"/>
        <path id="Path_6" data-name="Path 6" d="M44.721,23.952c-.414-.814-4.267-1.452-8.961-1.452s-8.548.638-8.961,1.452a.322.322,0,0,0-.039.145c0,.882,4.029,1.6,9,1.6s9-.715,9-1.6A.322.322,0,0,0,44.721,23.952Z" transform="translate(-0.001)" fill="none" stroke="#888b8f" stroke-width="2"/>
      </g>
    </g>
  </g>
</svg>
