<?xml version="1.0" encoding="utf-8"?>
<!-- Generator: Adobe Illustrator 22.1.0, SVG Export Plug-In . SVG Version: 6.00 Build 0)  -->
<svg version="1.1" id="Layer_1" xmlns="http://www.w3.org/2000/svg" xmlns:xlink="http://www.w3.org/1999/xlink" x="0px" y="0px"
	 viewBox="0 0 128 128" style="enable-background:new 0 0 128 128;" xml:space="preserve">
<style type="text/css">
	.st0{fill:#00B4FF;}
</style>
<g transform="translate(0,-952.36218)">
	<path class="st0" d="M64.4,972.1c-18,0-32.6,13.9-34.1,31.5c-11.6,1.4-20.6,11.2-20.6,23.2c0,12.9,10.5,23.5,23.5,23.5h61
		c15.5,0,28.2-12.6,28.2-28.2c0-14.7-11.4-26.7-25.9-27.9C91.5,981.3,79.1,972.1,64.4,972.1z M64.4,978.3c12.6,0,23.2,8.3,26.8,19.7
		c0.4,1.3,1.6,2.2,3,2.2c12.1,0,21.8,9.8,21.8,21.9c0,12.1-9.8,21.9-21.9,21.9h-61c-9.6,0-17.2-7.6-17.2-17.2
		c0-9.6,7.6-17.2,17.2-17.2c1.7,0,3.1-1.4,3.1-3.1C36.3,990.9,48.8,978.3,64.4,978.3z M65.7,992.3c-1.6,0.2-2.8,1.6-2.8,3.2v31.3
		l-7.5-5.7c-0.6-0.4-1.3-0.7-2-0.6c-1.7,0.1-3.1,1.5-3,3.2c0,1,0.5,1.9,1.3,2.4l12.5,9.4c1.1,0.8,2.6,0.8,3.7,0l12.5-9.4
		c1.4-1,1.7-3,0.7-4.4c-1-1.4-3-1.7-4.4-0.7c0,0,0,0-0.1,0l-7.5,5.7v-31.3c0-1.7-1.3-3.2-3.1-3.2C65.9,992.3,65.8,992.3,65.7,992.3z
		"/>
</g>
</svg>
