<?xml version="1.0" encoding="utf-8"?>
<!-- Generator: Adobe Illustrator 22.1.0, SVG Export Plug-In . SVG Version: 6.00 Build 0)  -->
<svg version="1.1" id="Layer_1" xmlns="http://www.w3.org/2000/svg" xmlns:xlink="http://www.w3.org/1999/xlink" x="0px" y="0px"
	 viewBox="0 0 128 128" style="enable-background:new 0 0 128 128;" xml:space="preserve">
<style type="text/css">
	.st0{fill:#474747;}
	.st1{fill:#FFFFFF;}
</style>
<g>
	<circle class="st0" cx="64" cy="64" r="64"/>
</g>
<g>
	<path class="st1" d="M59.8,87.9H46.1c-1.7,0-3.2-1.5-3.2-3.3V36.8c0-1.8,1.4-3.3,3.2-3.3h35.3c1.7,0,3.2,1.5,3.2,3.3V60
		c1,0.3,2,0.6,3,1V36.8c0-3.5-2.8-6.4-6.2-6.4H46.1c-3.4,0-6.2,2.9-6.2,6.4v47.8c0,3.5,2.8,6.4,6.2,6.4h15
		C60.5,90,60.1,89,59.8,87.9z"/>
	<path class="st1" d="M61.5,91.3H46.1c-3.6,0-6.5-3-6.5-6.7V36.8c0-3.7,2.9-6.7,6.5-6.7h35.3c3.6,0,6.4,3,6.4,6.7v24.6l-0.3-0.1
		c-1-0.4-2-0.7-3-1l-0.2-0.1l0-0.2V36.8c0-1.6-1.4-3.1-2.9-3.1H46.1c-1.6,0-3,1.4-3,3.1v47.8c0,1.6,1.4,3,3,3H60l0.1,0.2
		c0.3,1.1,0.7,2.1,1.3,3L61.5,91.3z M46.1,30.6c-3.3,0-6,2.8-6,6.2v47.8c0,3.4,2.7,6.2,6,6.2h14.6c-0.4-0.8-0.8-1.6-1.1-2.6H46.1
		c-1.9,0-3.5-1.6-3.5-3.5V36.8c0-2,1.5-3.6,3.5-3.6h35.3c1.9,0,3.4,1.6,3.4,3.6v23c0.8,0.2,1.7,0.5,2.5,0.8V36.8
		c0-3.4-2.7-6.2-5.9-6.2H46.1z"/>
</g>
<g>
	<path class="st1" d="M78.4,99.9c-11.5,0-20.8-9.3-20.8-20.8s9.3-20.8,20.8-20.8c11.5,0,20.8,9.3,20.8,20.8S89.9,99.9,78.4,99.9z
		 M78.4,61.3c-9.8,0-17.8,8-17.8,17.8s8,17.8,17.8,17.8c9.8,0,17.8-8,17.8-17.8S88.2,61.3,78.4,61.3z"/>
</g>
<g>
	<path class="st1" d="M50.5,63.9c-3.4,0.1-3.1,3.7,0.3,3.5h12c3.4,0,5.4-3.5,2-3.5H50.7C50.7,63.9,50.6,63.9,50.5,63.9z"/>
</g>
<g>
	<path class="st1" d="M50.5,75.2c-3.4,0.1-3.1,3.7,0.3,3.5h7c3.4,0,3.4-3.5,0-3.5h-7.1C50.7,75.2,50.6,75.2,50.5,75.2z"/>
</g>
<g>
	<path class="st1" d="M87.4,73.5l-3.5-3.5c-0.1-0.1-0.2-0.1-0.3-0.1h-1.3h-7.7h-4.1c-0.7,0-1.2,0.5-1.2,1.2V87
		c0,0.7,0.5,1.2,1.2,1.2H73h11.1h2.3c0.7,0,1.2-0.5,1.2-1.2V73.9C87.6,73.8,87.5,73.6,87.4,73.5z M81.8,70.9v4.1c0,0,0,0,0,0h-1.3
		v-4.1H81.8z M79.6,70.9V75H75c0,0,0,0,0,0v-4.1H79.6z M73.5,87.3v-5.7c0-1.1,0.9-1.9,1.9-1.9h6.2c1.1,0,1.9,0.9,1.9,1.9v5.7H73.5z
		 M86.6,87c0,0.1-0.1,0.3-0.3,0.3h-1.8v-5.7c0-1.6-1.3-2.9-2.9-2.9h-6.2c-1.6,0-2.9,1.3-2.9,2.9v5.7h-2.1c-0.1,0-0.3-0.1-0.3-0.3
		V71.2c0-0.1,0.1-0.3,0.3-0.3h3.6v4.1c0,0.5,0.4,0.9,0.9,0.9h6.8c0.5,0,0.9-0.4,0.9-0.9v-4.1h0.7l3.2,3.2C86.6,74.1,86.6,87,86.6,87
		z M81.9,84.6c0,0.2-0.2,0.4-0.4,0.4h-5.7c-0.2,0-0.4-0.2-0.4-0.4c0-0.2,0.2-0.4,0.4-0.4h5.7C81.7,84.2,81.9,84.4,81.9,84.6z
		 M81.9,82.2c0,0.2-0.2,0.4-0.4,0.4h-5.7c-0.2,0-0.4-0.2-0.4-0.4c0-0.2,0.2-0.4,0.4-0.4h5.7C81.7,81.8,81.9,82,81.9,82.2z"/>
	<path class="st1" d="M86.4,88.6H70.4c-0.9,0-1.6-0.7-1.6-1.6V71.2c0-0.9,0.7-1.6,1.6-1.6h13.1c0.2,0,0.4,0.1,0.6,0.2l3.5,3.5
		c0.1,0.1,0.2,0.3,0.3,0.5L88,87C88,87.9,87.2,88.6,86.4,88.6z M70.4,70.3c-0.5,0-0.8,0.4-0.8,0.8V87c0,0.5,0.4,0.8,0.8,0.8h15.9
		c0.5,0,0.8-0.4,0.8-0.8V73.9c0,0,0,0-0.1-0.1l-3.5-3.5l-1.4,0H70.4z M86.3,87.7h-2.2v-6.1c0-1.4-1.1-2.5-2.5-2.5h-6.2
		c-1.4,0-2.5,1.1-2.5,2.5v6.1h-2.5c-0.4,0-0.7-0.3-0.7-0.7V71.2c0-0.4,0.3-0.7,0.7-0.7h4v4.5c0,0.3,0.3,0.6,0.6,0.6h6.8
		c0.3,0,0.6-0.3,0.6-0.6v-4.5h1.2l3.4,3.4V87C87,87.4,86.7,87.7,86.3,87.7z M70.5,87L70.5,87L70.5,87z M84.9,87h1.3V74.2l-3-3h-0.2
		v3.7c0,0.7-0.6,1.3-1.3,1.3H75c-0.7,0-1.3-0.6-1.3-1.3v-3.7h-3.2V87h1.7v-5.3c0-1.8,1.5-3.2,3.2-3.2h6.2c1.8,0,3.2,1.5,3.2,3.2V87z
		 M84,87.7H73.1v-6.1c0-1.3,1-2.3,2.3-2.3h6.2c1.3,0,2.3,1,2.3,2.3V87.7z M73.9,87h9.4v-5.3c0-0.9-0.7-1.6-1.6-1.6h-6.2
		c-0.9,0-1.6,0.7-1.6,1.6V87z M81.5,85.5h-5.7c-0.5,0-0.8-0.4-0.8-0.8s0.4-0.8,0.8-0.8h5.7c0.5,0,0.8,0.4,0.8,0.8
		C82.3,85.1,81.9,85.5,81.5,85.5z M75.7,84.6C75.7,84.6,75.7,84.6,75.7,84.6c-0.1,0.1,0,0.1,0,0.1h5.7c0,0,0.1,0,0.1-0.1
		c0-0.1-0.1-0.1-0.1-0.1H75.7z M81.5,83.1h-5.7c-0.5,0-0.8-0.4-0.8-0.8s0.4-0.8,0.8-0.8h5.7c0.2,0,0.4,0.1,0.6,0.2
		c0.2,0.2,0.3,0.4,0.3,0.6C82.3,82.7,81.9,83.1,81.5,83.1z M75.7,82.2C75.7,82.2,75.7,82.2,75.7,82.2c-0.1,0.1,0,0.1,0,0.1h5.7
		c0,0,0.1,0,0.1-0.1c0,0,0-0.1,0-0.1L75.7,82.2z M81.8,75.3h-1.6v-4.9h2v4.8L81.8,75.3z M80.9,74.6h0.5v-3.4h-0.5V74.6z M79.9,75.3
		h-5.3l0-0.4v-4.5h5.3V75.3z M75.4,74.6h3.8v-3.4h-3.8V74.6z"/>
</g>
<g>
	<path class="st1" d="M51.8,58.7c1.2,0,2.2-1.3,2.2-2.9c0-0.3,0-0.5-0.1-0.8l6.5-7.3C60.7,48,61,48,61.4,48c0.4,0,0.7-0.1,1-0.3
		l4.4,4.3c0,0.2,0,0.4,0,0.6c0,1.6,1,2.9,2.2,2.9c1.2,0,2.2-1.3,2.2-2.9c0-0.2,0-0.4,0-0.6l6.8-6.5c0.3,0.2,0.7,0.3,1,0.3
		c1.2,0,2.2-1.3,2.2-2.9c0-1.6-1-2.9-2.2-2.9c-1.2,0-2.2,1.3-2.2,2.9c0,0.2,0,0.4,0,0.6L70,50.1c-0.3-0.2-0.7-0.4-1-0.4
		c-0.4,0-0.7,0.1-1,0.3l-4.4-4.3c0-0.2,0-0.4,0-0.6c0-1.6-1-2.9-2.2-2.9c-1.2,0-2.2,1.3-2.2,2.9c0,0.3,0,0.5,0.1,0.8l-6.5,7.3
		c-0.3-0.2-0.6-0.2-0.9-0.2c-1.2,0-2.2,1.3-2.2,2.9C49.6,57.4,50.6,58.7,51.8,58.7z"/>
</g>
</svg>
