<?xml version="1.0" encoding="utf-8"?>
<!-- Generator: Adobe Illustrator 22.1.0, SVG Export Plug-In . SVG Version: 6.00 Build 0)  -->
<svg version="1.1" id="Layer_1" xmlns="http://www.w3.org/2000/svg" xmlns:xlink="http://www.w3.org/1999/xlink" x="0px" y="0px"
	 viewBox="0 0 340 340" style="enable-background:new 0 0 340 340;" xml:space="preserve">
<style type="text/css">
	.st0{fill:#0774CA;}
	.st1{fill:#1095FF;}
	.st2{fill:#31B2F5;}
	.st3{fill:none;stroke:#FF0000;stroke-width:2;stroke-linecap:round;stroke-miterlimit:10;}
</style>
<g>
	<g>
		<circle class="st0" cx="170" cy="170" r="170"/>
	</g>
</g>
<g>
	<g>
		<circle class="st0" cx="168" cy="170" r="152"/>
	</g>
	<g>
		<path class="st1" d="M168,323c-84.4,0-153-68.6-153-153S83.6,17,168,17s153,68.6,153,153S252.3,323,168,323z M168,19
			C84.7,19,17,86.8,17,170s67.7,151,151,151s151-67.7,151-151S251.2,19,168,19z"/>
	</g>
</g>
<g>
	<g>
		<path d="M169.4,131.6c0.1,0.1,0.1,0.2,0.2,0.2C169.7,131.9,169.6,131.8,169.4,131.6z"/>
	</g>
</g>
<g>
	<g>
		<path d="M178.7,131.5C178.6,131.5,178.6,131.5,178.7,131.5C178.6,131.5,178.6,131.5,178.7,131.5z"/>
	</g>
</g>
<g>
	<g>
		<g>
			<path class="st2" d="M137,235c-10.9,0-19.7-8.8-19.7-19.7s8.8-19.7,19.7-19.7c10.9,0,19.7,8.8,19.7,19.7S147.8,235,137,235z
				 M137,201.2c-7.8,0-14.1,6.3-14.1,14.1s6.3,14.1,14.1,14.1c7.8,0,14.1-6.3,14.1-14.1S144.7,201.2,137,201.2z"/>
		</g>
	</g>
	<g>
		<g>
			<path class="st2" d="M204.6,235c-10.9,0-19.7-8.8-19.7-19.7s8.8-19.7,19.7-19.7c10.9,0,19.7,8.8,19.7,19.7S215.5,235,204.6,235z
				 M204.6,201.2c-7.8,0-14.1,6.3-14.1,14.1s6.3,14.1,14.1,14.1c7.8,0,14.1-6.3,14.1-14.1S212.4,201.2,204.6,201.2z"/>
		</g>
	</g>
	<g>
		<g>
			<path class="st2" d="M237.4,181.4H98.6c-3.7,0-6.7,3-6.7,6.7v19.5c0,5.7,4.7,10.4,10.4,10.4h15.2c-0.1-0.9-0.2-1.9-0.2-2.8
				s0.1-1.9,0.2-2.8h-15.2c-2.6,0-4.8-2.1-4.8-4.8v-19.5c0-0.6,0.5-1,1-1h138.8c0.6,0,1,0.5,1,1v19.5c0,2.6-2.1,4.8-4.8,4.8h-9.5
				c0.1,0.9,0.2,1.9,0.2,2.8s-0.1,1.9-0.2,2.8h9.5c5.7,0,10.4-4.7,10.4-10.4v-19.5C244,184.4,241,181.4,237.4,181.4z"/>
		</g>
		<g>
			<path class="st2" d="M156.5,212.4c0.1,0.9,0.2,1.9,0.2,2.8s-0.1,1.9-0.2,2.8h28.6c-0.1-0.9-0.2-1.9-0.2-2.8s0.1-1.9,0.2-2.8
				H156.5z"/>
		</g>
	</g>
	<g>
		<g>
			<path class="st2" d="M165.1,136.3h-39.5c-1.6,0-2.8-1.3-2.8-2.8s1.3-2.8,2.8-2.8h39.5c1.6,0,2.8,1.3,2.8,2.8
				S166.7,136.3,165.1,136.3z"/>
		</g>
	</g>
	<g>
		<g>
			<path class="st2" d="M165.1,156.1h-22.5c-1.6,0-2.8-1.3-2.8-2.8s1.3-2.8,2.8-2.8h22.5c1.6,0,2.8,1.3,2.8,2.8
				S166.7,156.1,165.1,156.1z"/>
		</g>
	</g>
	<g>
		<path class="st2" d="M165.1,171.2h-14.1c-0.6,0-1-0.4-1-1s0.4-1,1-1h14.1c0.6,0,1,0.4,1,1S165.7,171.2,165.1,171.2z"/>
	</g>
	<g>
		<path class="st3" d="M232.8,175.8"/>
	</g>
	<g>
		<path class="st2" d="M218.8,130.7h-25.5v-3c0-9.2-7.5-16.8-16.8-16.8H97.4c-1.6,0-2.8,1.3-2.8,2.8c0,1.6,1.3,2.8,2.8,2.8h79.2
			c6.1,0,11.1,5,11.1,11.1v45.4c0,1.6,1.3,2.8,2.8,2.8s2.8-1.3,2.8-2.8v-36.8h25.5c6.1,0,11.1,5,11.1,11.1v25.6
			c0,1.6,1.3,2.8,2.8,2.8s2.8-1.3,2.8-2.8v-25.6C235.6,138.2,228.1,130.7,218.8,130.7z"/>
	</g>
	<g>
		<g>
			<path class="st2" d="M221.6,170.2H210c-6.1,0-11-4.9-11-11v-11.7c0-1.6,1.3-2.8,2.8-2.8s2.8,1.3,2.8,2.8v11.7
				c0,3,2.4,5.4,5.4,5.4h11.7c1.6,0,2.8,1.3,2.8,2.8S223.2,170.2,221.6,170.2z"/>
		</g>
	</g>
</g>
</svg>
