<?xml version="1.0" encoding="utf-8"?>
<!-- Generator: Adobe Illustrator 22.1.0, SVG Export Plug-In . SVG Version: 6.00 Build 0)  -->
<svg version="1.1" id="Layer_1" xmlns="http://www.w3.org/2000/svg" xmlns:xlink="http://www.w3.org/1999/xlink" x="0px" y="0px"
	 viewBox="0 0 128 128" style="enable-background:new 0 0 128 128;" xml:space="preserve">
<style type="text/css">
	.st0{fill:#00B4FF;}
</style>
<g>
	<polygon class="st0" points="42.8,53.3 52,45.6 42.9,37.8 42.8,43.4 25.2,43.3 25.2,47.6 42.8,47.7 	"/>
</g>
<g>
	<g>
		<path class="st0" d="M60.1,45.5c0,0.7,0,1.4-0.1,2.1c0,0.3-0.1,0.7-0.1,1c0.1-0.8,0-0.2,0,0c0,0.2-0.1,0.5-0.1,0.7
			c-0.3,1.4-0.6,2.7-1.1,4.1c-0.1,0.2-0.5,1.2-0.2,0.5c-0.1,0.3-0.3,0.6-0.4,0.9c-0.3,0.6-0.7,1.3-1,1.9c-0.3,0.6-0.7,1.1-1.1,1.7
			c-0.1,0.2-0.8,1-0.3,0.4c-0.2,0.3-0.5,0.6-0.7,0.9c-0.9,1-1.9,2-2.9,2.9c-0.1,0.1-0.3,0.2-0.4,0.3c0.6-0.5,0.1-0.1,0,0
			c-0.3,0.2-0.5,0.4-0.8,0.6c-0.6,0.4-1.2,0.8-1.8,1.1c-0.6,0.3-1.2,0.6-1.8,0.9c-0.2,0.1-0.3,0.1-0.5,0.2c0.7-0.3,0.2-0.1,0,0
			c-0.4,0.1-0.7,0.3-1.1,0.4c-1.3,0.5-2.7,0.8-4.1,1c-0.2,0-0.8,0.1,0,0c-0.2,0-0.3,0-0.5,0.1c-0.3,0-0.7,0.1-1,0.1
			c-0.8,0.1-1.7,0.1-2.5,0c-0.5,0-0.9-0.1-1.4-0.1c-0.2,0-0.5,0-0.7-0.1c0.6,0.1-0.1,0-0.2,0c-1-0.2-1.9-0.4-2.9-0.6
			c-0.9-0.2-1.7-0.5-2.5-0.9c0.6,0.2-0.1,0-0.2-0.1c-0.2-0.1-0.4-0.2-0.5-0.3c-0.4-0.2-0.8-0.4-1.2-0.6c-0.7-0.4-1.3-0.8-2-1.2
			c-0.3-0.2-0.6-0.5-0.9-0.7c0.5,0.4,0,0-0.1-0.1c-0.2-0.2-0.4-0.3-0.6-0.5c-0.6-0.5-1.1-1.1-1.7-1.6c-0.3-0.3-0.5-0.6-0.8-0.9
			c-0.1-0.1-0.3-0.3-0.4-0.4c-0.1-0.1-0.6-0.8-0.2-0.2c-1-1.3-1.9-2.8-2.6-4.3c-0.1-0.2-0.2-0.4-0.3-0.6c0.2,0.5-0.1-0.1-0.1-0.2
			c-0.2-0.4-0.3-0.8-0.4-1.2c-0.3-0.9-0.5-1.9-0.7-2.8c-0.1-0.4-0.2-0.9-0.2-1.3c0.1,0.6,0-0.1,0-0.2c0-0.2,0-0.5-0.1-0.7
			c-0.1-0.9-0.1-1.8-0.1-2.7c0-0.7,0.1-1.4,0.2-2.1c0.1-0.6-0.1,0.6,0,0c0-0.2,0.1-0.3,0.1-0.5c0.1-0.4,0.1-0.8,0.2-1.2
			c0.3-1.4,0.7-2.7,1.3-4c-0.3,0.8,0.1-0.3,0.2-0.4c0.1-0.3,0.3-0.6,0.4-0.9c0.3-0.6,0.7-1.3,1.1-1.9c0.4-0.6,0.7-1.1,1.1-1.6
			c-0.5,0.7,0.2-0.2,0.3-0.4c0.2-0.3,0.5-0.6,0.8-0.9c0.4-0.5,0.9-0.9,1.4-1.4c0.2-0.2,0.5-0.4,0.7-0.7c0.1-0.1,0.3-0.2,0.4-0.3
			c0.1-0.1,0.2-0.1,0.3-0.2c-0.3,0.2-0.4,0.3-0.1,0.1c1.1-0.8,2.3-1.6,3.5-2.2c0.3-0.2,0.6-0.3,0.9-0.4c0.2-0.1,0.3-0.1,0.5-0.2
			c0.5-0.2-0.6,0.2,0,0c0.7-0.3,1.4-0.5,2.1-0.7c0.6-0.2,1.3-0.4,2-0.5c0.3-0.1,0.7-0.1,1-0.2c0.2,0,0.3-0.1,0.5-0.1
			c0.3,0,0.2,0-0.2,0c0.1,0,0.2,0,0.3,0c1.5-0.2,3-0.2,4.6-0.1c0.4,0,0.9,0.1,1.3,0.1c-0.7-0.1,0,0,0.1,0c0.2,0,0.4,0.1,0.6,0.1
			c0.8,0.2,1.7,0.4,2.5,0.6c0.4,0.1,0.8,0.3,1.2,0.4c0.2,0.1,0.4,0.1,0.6,0.2c0.1,0,0.8,0.3,0.1,0c0.8,0.3,1.5,0.7,2.2,1.1
			c0.7,0.4,1.5,0.9,2.2,1.4c0.2,0.1,0.4,0.3,0.6,0.4c0.6,0.5-0.4-0.3,0.2,0.1c0.3,0.3,0.6,0.5,0.9,0.8c0.6,0.5,1.1,1.1,1.7,1.6
			c0.3,0.3,0.5,0.6,0.8,0.9c0.1,0.1,0.2,0.3,0.4,0.5c0.4,0.5-0.3-0.5,0.1,0.1c0.9,1.3,1.8,2.6,2.4,4c0.1,0.2,0.2,0.4,0.3,0.5
			c0.1,0.1,0.3,0.7,0,0.1c0.2,0.4,0.3,0.7,0.4,1.1c0.3,0.8,0.5,1.5,0.7,2.3c0.1,0.4,0.2,0.8,0.3,1.2c0,0.2,0.1,0.4,0.1,0.7
			c0,0.1,0.1,0.9,0,0.2C60,43.5,60,44.5,60.1,45.5c0,1.4,1.2,2.6,2.6,2.6c1.4,0,2.7-1.2,2.6-2.6c0-7.4-3.1-14.6-8.5-19.6
			c-5.4-5.1-13-7.8-20.4-7.3c-6.2,0.5-11.9,3-16.5,7.2c-4.3,4-7.3,9.5-8.2,15.3c-0.6,3.7-0.4,7.5,0.5,11.1c0.9,3.8,2.8,7.2,5.2,10.2
			c4.6,5.9,11.7,9.3,19.1,9.9c6.1,0.5,12.5-1.3,17.5-4.9c4.9-3.6,8.6-8.6,10.3-14.5c0.7-2.4,1.1-5,1.1-7.5c0-1.4-1.2-2.6-2.6-2.6
			C61.3,42.9,60.1,44.1,60.1,45.5z"/>
	</g>
</g>
<g>
	<g>
		<path class="st0" d="M114.7,74.2c0,2.6,0,5.2,0,7.8c0,1.7,0,3.5,0,5.2c0,0.5,0,1.1,0,1.6c0,0.1,0,0.2,0,0.4c0,0,0,0,0,0.1
			c0,0.1,0,0.1,0,0.2c0,0.3,0,0.2,0-0.2c0,0.1,0,0.2-0.1,0.3c0,0.2-0.1,0.4-0.2,0.6c0.3-0.7,0-0.1-0.1,0.1c-0.1,0.1-0.1,0.2-0.2,0.2
			c0.2-0.3,0.3-0.3,0.1-0.1c-0.1,0.1-0.8,0.6-0.2,0.2c-0.2,0.1-0.3,0.2-0.5,0.3c-0.2,0.1-0.2,0.1,0.2-0.1c-0.1,0-0.2,0.1-0.3,0.1
			c-0.2,0.1-0.9,0.1-0.1,0c-0.1,0-0.2,0-0.4,0c-0.9,0-1.9,0-2.8,0c0.8,0.8,1.6,1.6,2.4,2.4c-0.1-5.1-4.3-9.2-9.4-9.3
			c-2.4,0-4.8,1-6.5,2.7C95,88.5,94,91,93.9,93.4c0.8-0.8,1.6-1.6,2.4-2.4c-2.3,0-4.7,0-7,0c0.8,0.8,1.6,1.6,2.4,2.4
			c0-4.7,0-9.3,0-14c0-6.8,0-13.6,0-20.4c0-0.9,0-1.8,0-2.7c-0.8,0.8-1.6,1.6-2.4,2.4c5.4,0,10.9,0,16.3,0c0.1,0,0.1,0,0.2,0
			c0.2,0,0.3,0,0.5,0c0.2,0,0.7,0.1,0,0c0.4,0.1,0.7,0.2,1.1,0.3c0.1,0,0.6,0.3,0,0c0.1,0.1,0.3,0.1,0.4,0.2
			c0.3,0.1,0.5,0.3,0.8,0.5c-0.6-0.4-0.1-0.1,0,0c0.1,0.1,0.2,0.2,0.3,0.3c0.1,0.1,0.2,0.2,0.3,0.3c0.1,0.1,0.1,0.2,0.2,0.2
			c-0.2-0.3-0.3-0.3-0.1-0.1c0.2,0.3,0.3,0.5,0.5,0.8c0.1,0.1,0.1,0.3,0.2,0.4c-0.3-0.6-0.1-0.1,0,0c0,0.1,0,0.1,0.1,0.2
			c0.2,0.4,0.3,0.9,0.5,1.3c1.2,3.3,2.4,6.5,3.5,9.8c0.2,0.6,0.4,1.2,0.7,1.8c0.5,1.3,1.6,2.1,3,1.7c1.2-0.3,2.2-1.8,1.7-3
			c-0.9-2.5-1.8-5.1-2.8-7.6c-0.5-1.5-1.1-3-1.6-4.5c-0.1-0.3-0.2-0.6-0.3-0.9c-0.5-1.4-1.1-2.5-2-3.6c-1.7-2-4.4-3.1-7-3.1
			c-1,0-2.1,0-3.1,0c-3.6,0-7.2,0-10.8,0c-0.8,0-1.7,0-2.5,0c-1.3,0-2.4,1.1-2.4,2.4c0,4.7,0,9.3,0,14c0,6.8,0,13.6,0,20.4
			c0,0.9,0,1.8,0,2.7c0,1.3,1.1,2.4,2.4,2.4c2.3,0,4.7,0,7,0c1.4,0,2.4-1.1,2.4-2.4c0-0.2,0-0.3,0-0.5c0-0.3,0-0.2,0,0.2
			c0-0.1,0-0.2,0.1-0.3c0.1-0.4,0.2-0.8,0.4-1.2c-0.3,0.7,0,0,0.1-0.1c0.1-0.2,0.2-0.4,0.3-0.5c0.1-0.1,0.1-0.2,0.2-0.3
			c-0.2,0.3-0.3,0.3-0.1,0.1c0.1-0.2,0.3-0.3,0.4-0.5c0.1-0.1,0.3-0.3,0.4-0.4c0.2-0.2,0.2-0.1-0.1,0.1c0.1-0.1,0.2-0.1,0.3-0.2
			c0.3-0.2,0.7-0.4,1.1-0.6c-0.7,0.3,0,0,0.1,0c0.2-0.1,0.4-0.1,0.6-0.2c0.1,0,0.2,0,0.3-0.1c-0.4,0-0.4,0.1-0.2,0
			c0.2,0,0.4,0,0.7,0c0.2,0,0.3,0,0.5,0c0.1,0,0.2,0,0.3,0c-0.4-0.1-0.4-0.1-0.2,0c0.4,0.1,0.8,0.2,1.2,0.3c-0.7-0.3,0,0,0.1,0.1
			c0.2,0.1,0.4,0.2,0.5,0.3c0.1,0.1,0.7,0.5,0.1,0.1c0.2,0.1,0.3,0.3,0.5,0.4c0.1,0.1,0.3,0.3,0.4,0.4c0.1,0.1,0.1,0.2,0.2,0.2
			c-0.2-0.3-0.3-0.3-0.1-0.1c0.2,0.3,0.4,0.7,0.6,1.1c-0.3-0.7,0,0,0,0.1c0.1,0.2,0.1,0.4,0.2,0.6c0,0.2,0.1,0.9,0,0.1
			c0,0.2,0,0.4,0,0.6c0,1.3,1.1,2.4,2.4,2.4c1.9,0,3.8,0.1,5.6-0.6c2.4-1,3.8-3.6,3.8-6.1c0-3.1,0-6.2,0-9.2c0-1.9,0-3.8,0-5.7
			c0-1.3-1.1-2.4-2.4-2.4S114.7,72.9,114.7,74.2z"/>
	</g>
</g>
<g>
	<g>
		<path class="st0" d="M86.9,47.6c0,4.1,0,8.1,0,12.2c0,7.5,0,14.9,0,22.4c0,3.8,0,7.5,0,11.3c0.8-0.8,1.6-1.6,2.4-2.4
			c-4.8,0-9.6,0-14.4,0c-6.5,0-13,0-19.5,0c-0.5,0-1,0-1.6,0c0.8,0.8,1.6,1.6,2.4,2.4c-0.1-5.1-4.3-9.2-9.4-9.3
			c-2.4,0-4.8,1-6.5,2.7c-1.8,1.7-2.8,4.2-2.8,6.6c0.8-0.8,1.6-1.6,2.4-2.4c-1.4,0-2.8,0-4.1,0c-0.7,0-1.4,0-2.1,0
			c-0.2,0-0.9-0.1-0.2,0c-0.2,0-1.2-0.4-0.4-0.1c-0.1-0.1-0.3-0.1-0.4-0.2c-0.1-0.1-0.2-0.1-0.3-0.2c0.3,0.2,0.3,0.3,0.1,0.1
			c-0.2-0.1-0.7-0.9-0.3-0.3c-0.1-0.1-0.2-0.3-0.2-0.4c-0.1-0.1-0.2-0.6,0,0c-0.1-0.1-0.1-0.3-0.1-0.4c0-0.2-0.1-0.7,0,0
			c0-0.1,0-0.2,0-0.3c0-0.2,0-0.5,0-0.7c0-1.2,0-2.4,0-3.7c0-5.6,0-11.3,0-16.9c-1.2,0.7-2.5,1.4-3.7,2.1c6,2.7,12.9,3.1,19.1,0.8
			c5.3-2,9.7-5.6,12.7-10.4c3.3-5.3,4.3-11.7,3.2-17.8c-0.8,1-1.6,2.1-2.4,3.1c5.7,0,11.4,0,17,0c2.1,0,4.2,0,6.3,0
			c0.4,0,0.7,0,1.1,0c0.1,0,0.2,0,0.3,0c-0.8,0,0.1,0,0.3,0.1c0.2,0.1,0.2,0.1-0.2-0.1c0.1,0.1,0.3,0.1,0.4,0.2
			c0.1,0.1,0.2,0.1,0.3,0.2c-0.6-0.4-0.2-0.1,0,0c0.1,0.1,0.3,0.3,0.4,0.4c-0.5-0.6,0,0.1,0.1,0.3c0.1,0.2,0.1,0.2-0.1-0.2
			c0.1,0.1,0.1,0.3,0.1,0.4C86.9,47.4,87,47.5,86.9,47.6C86.9,46.9,86.9,47.4,86.9,47.6c0,1.3,1.1,2.4,2.4,2.4
			c1.3,0,2.5-1.1,2.4-2.4C91.8,44,88.9,41,85.3,41c-0.6,0-1.2,0-1.8,0c-3.3,0-6.5,0-9.8,0c-4.3,0-6.9,0-11.2,0
			c-1.7,0-2.6,1.6-2.4,3.1c0,0.2,0.1,0.4,0.1,0.6c0.1,0.7-0.1-0.5,0,0.2c0.1,0.4,0.1,0.9,0.1,1.3c0.1,0.8,0,1.6,0,2.5
			c0,0.3,0,0.6-0.1,1c0,0.2-0.2,1.3,0,0.5c-0.1,0.7-0.2,1.4-0.4,2c-0.1,0.6-0.3,1.2-0.5,1.8c-0.1,0.3-0.2,0.6-0.3,0.9
			C59,55,59,55.1,58.9,55.3c0,0.1-0.1,0.2-0.1,0.3c0.1-0.3,0.2-0.4,0.1-0.2c-0.5,1.2-1.1,2.3-1.8,3.4c-0.2,0.3-0.3,0.5-0.5,0.8
			c-0.1,0.1-0.2,0.2-0.3,0.4c-0.3,0.4,0.3-0.4,0,0c-0.4,0.5-2.5,1-3,1.5c-0.4,0.4-0.9,0.9-1.3,1.3c-0.2,0.2-0.5,0.4-0.7,0.6
			c-0.1,0.1-0.2,0.2-0.4,0.3c0.6-0.5,0,0-0.1,0.1c-1,0.8-2.1,1.4-3.3,2c-0.3,0.1-0.6,0.3-0.8,0.4c-0.1,0.1-0.6,0.3,0,0
			c-0.1,0.1-0.3,0.1-0.4,0.2c-0.6,0.2-1.3,0.5-1.9,0.7c-1,0.3-2,0.5-3.1,0.7c0.8-0.1-0.1,0-0.3,0c-0.3,0-0.5,0-0.8,0.1
			c-0.6,0-1.3,0.1-1.9,0c-0.7,0-1.4-0.1-2.1-0.1c-0.3,0-0.3,0,0,0c-0.2,0-0.4-0.1-0.6-0.1c-0.4-0.1-0.8-0.2-1.2-0.2
			c-0.7-0.2-1.3-0.3-2-0.6c-0.3-0.1-0.6-0.2-1-0.3c-0.2-0.1-0.4-0.1-0.6-0.2c0.5,0.2-0.1,0-0.2-0.1c-0.8-0.4-1.7-0.5-2.5,0
			C27.5,66.4,27,67.2,27,68c0,5.8,0,11.6,0,17.4c0,1.1,0,2.3,0,3.4c0,2,0.6,3.8,2,5.2c1.2,1.2,2.9,1.8,4.5,1.8c0.5,0,1,0,1.6,0
			c1.6,0,3.2,0,4.8,0c0,0,0.1,0,0.1,0c1.4,0,2.4-1.1,2.4-2.4c0-0.2,0-0.3,0-0.5c0-0.3,0-0.2,0,0.2c0-0.1,0-0.2,0.1-0.3
			c0.1-0.4,0.2-0.8,0.4-1.2c-0.3,0.7,0,0,0.1-0.1c0.1-0.2,0.2-0.4,0.3-0.5c0.1-0.1,0.1-0.2,0.2-0.3c-0.2,0.3-0.3,0.3-0.1,0.1
			c0.1-0.2,0.3-0.3,0.4-0.5c0.1-0.1,0.3-0.3,0.4-0.4c0.2-0.2,0.2-0.1-0.1,0.1c0.1-0.1,0.2-0.1,0.3-0.2c0.3-0.2,0.7-0.4,1.1-0.6
			c-0.7,0.3,0,0,0.1,0c0.2-0.1,0.4-0.1,0.6-0.2c0.1,0,0.2,0,0.3-0.1c-0.4,0-0.4,0.1-0.2,0c0.2,0,0.4,0,0.7,0c0.2,0,0.3,0,0.5,0
			c0.1,0,0.2,0,0.3,0c-0.4-0.1-0.4-0.1-0.2,0c0.4,0.1,0.8,0.2,1.2,0.3c-0.7-0.3,0,0,0.1,0.1c0.2,0.1,0.4,0.2,0.5,0.3
			c0.1,0.1,0.7,0.5,0.1,0.1c0.2,0.1,0.3,0.3,0.5,0.4s0.3,0.3,0.4,0.4c0.1,0.1,0.1,0.2,0.2,0.2c-0.2-0.3-0.3-0.3-0.1-0.1
			c0.2,0.3,0.4,0.7,0.6,1.1c-0.3-0.7,0,0,0,0.1c0.1,0.2,0.1,0.4,0.2,0.6c0,0.2,0.1,0.9,0,0.1c0,0.2,0,0.4,0,0.6
			c0,1.3,1.1,2.4,2.4,2.4c4.8,0,9.6,0,14.4,0c6.5,0,13,0,19.5,0c0.5,0,1,0,1.6,0c1.3,0,2.4-1.1,2.4-2.4c0-4.1,0-8.1,0-12.2
			c0-7.5,0-14.9,0-22.4c0-3.8,0-7.5,0-11.3c0-1.3-1.1-2.4-2.4-2.4S86.9,46.2,86.9,47.6z"/>
	</g>
</g>
<g>
	<g>
		<path class="st0" d="M107.8,93.5c0,0.2-0.1,1.3,0,0.5c0,0.3-0.1,0.6-0.2,0.9c0,0.1-0.1,0.3-0.2,0.4c0.2-0.7,0.1-0.2,0,0
			c-0.2,0.3-0.3,0.6-0.5,0.9c-0.3,0.4,0.4-0.4,0,0c-0.1,0.1-0.2,0.2-0.3,0.3c-0.2,0.2-0.4,0.4-0.7,0.6c0.6-0.5-0.2,0.1-0.4,0.2
			c-0.1,0.1-0.3,0.1-0.4,0.2c-0.1,0-0.2,0.1-0.3,0.1c0.3-0.1,0.4-0.2,0.2-0.1c-0.3,0.1-0.6,0.2-0.9,0.3c-0.2,0-0.7,0.1,0,0
			c-0.2,0-0.3,0-0.5,0c-0.3,0-0.7,0-1,0c-0.6,0,0.6,0.1,0,0c-0.2,0-0.4-0.1-0.6-0.1c-0.2,0-0.3-0.1-0.4-0.1c-0.5-0.2,0.5,0.2,0,0
			c-0.3-0.1-0.5-0.3-0.8-0.4c-0.1-0.1-0.3-0.2-0.4-0.3c0.6,0.4,0.1,0.1,0,0c-0.3-0.2-0.5-0.5-0.7-0.8c-0.4-0.4,0.3,0.5,0,0
			c-0.1-0.1-0.2-0.3-0.2-0.4c-0.2-0.3-0.3-0.5-0.4-0.8c0.3,0.7-0.1-0.2-0.1-0.4c0-0.2-0.1-0.3-0.1-0.5c0-0.3,0-0.2,0,0.2
			c0-0.1,0-0.2,0-0.3c0-0.3,0-0.6,0-0.9c0-0.2,0.1-0.7,0,0c0-0.2,0.1-0.3,0.1-0.5c0.1-0.3,0.2-0.6,0.3-0.9c0.2-0.5-0.2,0.5,0,0
			c0.1-0.2,0.2-0.4,0.3-0.5c0.1-0.1,0.2-0.3,0.2-0.4c0.3-0.5-0.4,0.4,0,0c0.2-0.2,0.4-0.5,0.6-0.7c0.1-0.1,0.2-0.2,0.3-0.3
			c-0.5,0.4-0.1,0.1,0,0c0.3-0.2,0.6-0.4,0.9-0.5c0.5-0.2-0.5,0.2,0,0c0.1-0.1,0.3-0.1,0.4-0.1c0.2-0.1,1.2-0.2,0.4-0.1
			c0.3,0,0.7,0,1,0c0.2,0,0.3,0,0.5,0c0.3,0,0.2,0-0.2,0c0.1,0,0.2,0,0.3,0.1c0.4,0.1,0.7,0.2,1.1,0.3c-0.7-0.2-0.2-0.1,0,0
			c0.2,0.1,0.4,0.2,0.5,0.3c0.1,0.1,0.3,0.2,0.4,0.3c0.2,0.2,0.2,0.1-0.1-0.1c0.1,0.1,0.2,0.1,0.2,0.2c0.3,0.2,0.5,0.5,0.7,0.8
			c0.4,0.4-0.3-0.5,0,0c0.1,0.2,0.2,0.3,0.3,0.5c0.1,0.1,0.1,0.3,0.2,0.4c0.1,0.2,0.1,0.2-0.1-0.2c0,0.1,0.1,0.2,0.1,0.3
			c0.1,0.3,0.2,0.7,0.3,1.1c0.1,0.6-0.1-0.6,0,0C107.8,93.1,107.8,93.3,107.8,93.5c0,1.3,1.1,2.4,2.4,2.4c1.3,0,2.5-1.1,2.4-2.4
			c0-3.3-1.8-6.3-4.5-8c-2.8-1.8-6.5-1.7-9.4-0.2c-2.9,1.6-4.6,4.7-4.8,7.9c-0.2,3.3,1.6,6.3,4.3,8.2c2.8,1.9,6.7,1.9,9.6,0.3
			c3-1.6,4.8-4.9,4.8-8.2c0-1.3-1.1-2.4-2.4-2.4C108.9,91.1,107.8,92.2,107.8,93.5z"/>
	</g>
</g>
<g>
	<g>
		<path class="st0" d="M51.4,93.5c0,0.2-0.1,1.3,0,0.5c0,0.3-0.1,0.6-0.2,0.9c0,0.1-0.1,0.3-0.2,0.4c0.2-0.7,0.1-0.2,0,0
			c-0.2,0.3-0.3,0.6-0.5,0.9c-0.3,0.4,0.4-0.4,0,0c-0.1,0.1-0.2,0.2-0.3,0.3c-0.2,0.2-0.4,0.4-0.7,0.6c0.6-0.5-0.2,0.1-0.4,0.2
			c-0.1,0.1-0.3,0.1-0.4,0.2c-0.1,0-0.2,0.1-0.3,0.1c0.3-0.1,0.4-0.2,0.2-0.1c-0.3,0.1-0.6,0.2-0.9,0.3c-0.2,0-0.7,0.1,0,0
			c-0.2,0-0.3,0-0.5,0c-0.3,0-0.7,0-1,0c-0.6,0,0.6,0.1,0,0c-0.2,0-0.4-0.1-0.6-0.1c-0.2,0-0.3-0.1-0.4-0.1c-0.5-0.2,0.5,0.2,0,0
			c-0.3-0.1-0.5-0.3-0.8-0.4c-0.1-0.1-0.3-0.2-0.4-0.3c0.6,0.4,0.1,0.1,0,0c-0.3-0.2-0.5-0.5-0.7-0.8c-0.4-0.4,0.3,0.5,0,0
			c-0.1-0.1-0.2-0.3-0.2-0.4c-0.2-0.3-0.3-0.5-0.4-0.8c0.3,0.7-0.1-0.2-0.1-0.4c0-0.2-0.1-0.3-0.1-0.5c0-0.3,0-0.2,0,0.2
			c0-0.1,0-0.2,0-0.3c0-0.3,0-0.6,0-0.9c0-0.2,0.1-0.7,0,0c0-0.2,0.1-0.3,0.1-0.5c0.1-0.3,0.2-0.6,0.3-0.9c0.2-0.5-0.2,0.5,0,0
			c0.1-0.2,0.2-0.4,0.3-0.5c0.1-0.1,0.2-0.3,0.2-0.4c0.3-0.5-0.4,0.4,0,0c0.2-0.2,0.4-0.5,0.6-0.7c0.1-0.1,0.2-0.2,0.3-0.3
			c-0.5,0.4-0.1,0.1,0,0c0.3-0.2,0.6-0.4,0.9-0.5c0.5-0.2-0.5,0.2,0,0c0.1-0.1,0.3-0.1,0.4-0.1c0.2-0.1,1.2-0.2,0.4-0.1
			c0.3,0,0.7,0,1,0c0.2,0,0.3,0,0.5,0c0.3,0,0.2,0-0.2,0c0.1,0,0.2,0,0.3,0.1c0.4,0.1,0.7,0.2,1.1,0.3c-0.7-0.2-0.2-0.1,0,0
			c0.2,0.1,0.4,0.2,0.5,0.3c0.1,0.1,0.3,0.2,0.4,0.3c0.2,0.2,0.2,0.1-0.1-0.1c0.1,0.1,0.2,0.1,0.2,0.2c0.3,0.2,0.5,0.5,0.7,0.8
			c0.4,0.4-0.3-0.5,0,0c0.1,0.2,0.2,0.3,0.3,0.5c0.1,0.1,0.1,0.3,0.2,0.4c0.1,0.2,0.1,0.2-0.1-0.2c0,0.1,0.1,0.2,0.1,0.3
			c0.1,0.3,0.2,0.7,0.3,1.1c0.1,0.6-0.1-0.6,0,0C51.4,93.1,51.4,93.3,51.4,93.5c0,1.3,1.1,2.4,2.4,2.4c1.3,0,2.5-1.1,2.4-2.4
			c0-3.3-1.8-6.3-4.5-8c-2.8-1.8-6.5-1.7-9.4-0.2c-2.9,1.6-4.6,4.7-4.8,7.9c-0.2,3.3,1.6,6.3,4.3,8.2c2.8,1.9,6.7,1.9,9.6,0.3
			c3-1.6,4.8-4.9,4.8-8.2c0-1.3-1.1-2.4-2.4-2.4C52.5,91.1,51.4,92.2,51.4,93.5z"/>
	</g>
</g>
<g>
	<g>
		<path class="st0" d="M108.9,71.8c-4,0-5.6,0-9.6,0l0,0c0,0,0-2.3,0-5.9l0,0c1.4,0,0.3,0,1.7,0c0.7,0,1.5,0,2.2,0
			c0.2,0,0.3,0,0.5,0c-0.6,0-0.3,0-0.1,0c-0.6-0.2-0.3-0.1-0.1,0c-0.5-0.3-0.2-0.2-0.1,0c-0.5-0.5-0.1-0.1,0,0.1
			c-0.3-0.6-0.1-0.1,0,0.1c0.1,0.2,0.1,0.4,0.2,0.6c0.3,0.7,0.5,1.5,0.8,2.2c0.6,1.7,1.2,3.3,1.8,5c0.1,0.3,0.2,0.6,0.3,1
			c0.4,1.3,1.7,2.1,3,1.7c1.2-0.3,2.2-1.8,1.7-3c-1-2.7-1.9-5.4-2.9-8.1c-0.1-0.4-0.3-0.8-0.4-1.2c-0.7-1.9-2.4-3.2-4.5-3.2
			c-1.4,0-2.8,0-4.2,0c-0.8,0-1.6,0-2.4,0c-1.3,0-2.4,1.1-2.4,2.4c0,3.6,0,7.2,0,10.7c0,1.3,1.1,2.4,2.4,2.4c4,0,8,0,12.1,0
			c1.3,0,2.4-1.1,2.4-2.4S110.2,71.8,108.9,71.8z"/>
	</g>
</g>
<g>
	<g>
		<path class="st0" d="M78.7,61c-3.6,0-7.3,0-10.9,0c-1.3,0-2.4,1.1-2.4,2.4c0,1.3,1.1,2.4,2.4,2.4c3.6,0,7.3,0,10.9,0
			c1.3,0,2.4-1.1,2.4-2.4C81.1,62.1,80,61,78.7,61L78.7,61z"/>
	</g>
</g>
<g>
	<g>
		<path class="st0" d="M79.2,71.8c-4,0-8,0-12,0c-4.2,0-8.3,0-12.5,0c0,0,0,0,0,0c-1,0-1.9,1.1-1.9,2.4s0.9,2.4,1.9,2.4
			c4,0,8,0,12,0c4.2,0,8.3,0,12.5,0c0,0,0,0,0,0c1,0,1.9-1.1,1.9-2.4S80.2,71.8,79.2,71.8L79.2,71.8z"/>
	</g>
</g>
</svg>
