<?xml version="1.0" encoding="utf-8"?>
<!-- Generator: Adobe Illustrator 23.0.1, SVG Export Plug-In . SVG Version: 6.00 Build 0)  -->
<svg version="1.1" id="Layer_1" xmlns="http://www.w3.org/2000/svg" xmlns:xlink="http://www.w3.org/1999/xlink" x="0px" y="0px"
	 viewBox="0 0 128 128" style="enable-background:new 0 0 128 128;" xml:space="preserve">
<style type="text/css">
	.st0{fill:#FFFFFF;}
</style>
<g>
	<path class="st0" d="M63,99.1c0.1,0.1,0.8,0.4,0.9,0.4l0.1-1.5L64,99.5c0.1-0.1,1-0.6,1.4-0.9c17.6-9.4,27.3-17.9,29-25.3
		c2.6-11.5,1.4-37.1,1.3-38.1l-0.1-2.1l-2.2-0.4c-0.6-0.2-16.1-4.1-29.4-4.1s-28.8,4-29.4,4.1l-2.1,0.5l-0.1,2.1
		c-0.1,1.1-1.3,26.6,1.3,38.1c2.3,10.6,21.2,21.4,27.7,24.8 M88.7,72.2c-0.6,2.6-4.2,9.6-24.9,20.8c-9.5-5-23-14.3-24.4-20.8
		c-2-9-1.5-28-1.3-34.4c4.6-1,16.1-3.4,25.9-3.4s21.3,2.4,25.9,3.4C90,44.1,90.7,63.1,88.7,72.2z"/>
	<polygon class="st0" points="57.9,67.7 50.1,59.7 46.4,63.5 57.9,75 81.4,51.4 77.8,47.9 	"/>
</g>
</svg>
