<?xml version="1.0" encoding="utf-8"?>
<!-- Generator: Adobe Illustrator 22.1.0, SVG Export Plug-In . SVG Version: 6.00 Build 0)  -->
<svg version="1.1" id="Layer_1" xmlns="http://www.w3.org/2000/svg" xmlns:xlink="http://www.w3.org/1999/xlink" x="0px" y="0px"
	 viewBox="0 0 96 96" style="enable-background:new 0 0 96 96;" xml:space="preserve">
<style type="text/css">
	.st0{fill:#DE1766;}
</style>
<path class="st0" d="M39.7,11.1c-1.2-2-3.3-3.2-5.6-3.2c-2.3,0-4.4,1.2-5.6,3.2c-1,1.5-21.4,35.7-21.4,48.8
	c0,14.9,12.1,26.9,26.9,26.9S61,74.7,61,59.9C61,46.7,40.5,12.6,39.7,11.1z M31.6,13c0.5-0.9,1.4-1.4,2.4-1.4s1.9,0.5,2.4,1.4
	c5,8.4,13.2,23.3,17.7,34.9H13.9C18.4,36.3,26.6,21.4,31.6,13z"/>
<path class="st0" d="M85.1,7H66.5c-1,0-1.9,0.8-1.9,1.9s0.8,1.8,1.9,1.8h16.7v11.2H72.1c-1,0-1.9,0.8-1.9,1.9c0,1,0.8,1.9,1.9,1.9
	h11.2v9.3H72.1c-1,0-1.9,0.8-1.9,1.9c0,1,0.8,1.9,1.9,1.9h11.2v7.4h-15c-1,0-1.9,0.8-1.9,1.9c0,1,0.8,1.9,1.9,1.9h14.9v9.3H72.1
	c-1,0-1.9,0.8-1.9,1.9c0,1,0.8,1.9,1.9,1.9h11.2v9H72.1c-1,0-1.9,0.8-1.9,1.9c0,1,0.8,1.9,1.9,1.9h11.2v7.4h-15
	c-1,0-1.9,0.8-1.9,1.9c0,1,0.8,1.9,1.9,1.9H85c1,0,1.9-0.8,1.9-1.9V8.8C87,7.8,86.1,7,85.1,7z"/>
</svg>
