<?xml version="1.0" encoding="utf-8"?>
<!-- Generator: Adobe Illustrator 22.1.0, SVG Export Plug-In . SVG Version: 6.00 Build 0)  -->
<svg version="1.1" id="Layer_1" xmlns="http://www.w3.org/2000/svg" xmlns:xlink="http://www.w3.org/1999/xlink" x="0px" y="0px"
	 viewBox="0 0 96 96" style="enable-background:new 0 0 96 96;" xml:space="preserve">
<style type="text/css">
	.st0{fill:#ED2F2F;stroke:#ED2F2F;stroke-width:3;stroke-miterlimit:10;}
</style>
<g>
	<g>
		<path class="st0" d="M48,91.8c-21.8,0-39.5-17.7-39.5-39.5c0-14.9,8.3-28.5,21.6-35.2c0.5-0.3,1-0.1,1.2,0.4
			c0.3,0.5,0.1,1-0.4,1.2c-12.7,6.6-20.5,19.4-20.5,33.6c0,20.7,16.9,37.6,37.6,37.6s37.6-16.9,37.6-37.6c0-14.2-7.9-27-20.5-33.5
			c-0.5-0.3-0.7-0.8-0.4-1.2c0.3-0.5,0.8-0.7,1.2-0.4C79.2,24,87.5,37.4,87.5,52.4C87.5,74.1,69.8,91.8,48,91.8z"/>
	</g>
	<g>
		<path class="st0" d="M48,53.1c-0.6,0-0.9-0.4-0.9-0.9v-47c0-0.6,0.4-0.9,0.9-0.9s0.9,0.4,0.9,0.9v47C48.9,52.6,48.5,53.1,48,53.1z
			"/>
	</g>
</g>
</svg>
