<?xml version="1.0" encoding="utf-8"?>
<!-- Generator: Adobe Illustrator 22.1.0, SVG Export Plug-In . SVG Version: 6.00 Build 0)  -->
<svg version="1.1" id="Layer_1" xmlns="http://www.w3.org/2000/svg" xmlns:xlink="http://www.w3.org/1999/xlink" x="0px" y="0px"
	 viewBox="0 0 96 96" style="enable-background:new 0 0 96 96;" xml:space="preserve">
<style type="text/css">
	.st0{fill:#8D8D8D;stroke:#ED2224;stroke-width:2;stroke-miterlimit:10;}
	.st1{fill:#F85050;stroke:#F85050;stroke-miterlimit:10;}
</style>
<path class="st0" d="M55.2,13.8"/>
<path class="st0" d="M42.1,13.8"/>
<path class="st1" d="M72.6,13.8h-3.9H57C56.4,10,52.8,7,48.5,7s-8.1,3-8.5,6.8H28.4h-3.9C18.2,13.8,13,18.3,13,24v56.6
	c0,5.6,5.1,10.2,11.4,10.2h48.1c6.3,0,11.4-4.5,11.4-10.2V24C83.9,18.3,78.8,13.8,72.6,13.8z M39.9,17.2H42h1.3l0.4-3
	c0.3-2.2,2.3-3.8,4.8-3.8s4.5,1.6,4.8,3.8l0.4,3h1.6h1.8h7.7V19c0,2.7-3.1,3.3-5.6,3.3H37.8c-2.5,0-5.6-0.6-5.6-3.3v-1.8
	C32.2,17.2,39.9,17.2,39.9,17.2z M80.1,80.5c0,3.7-3.4,6.7-7.5,6.7H24.4c-4.1,0-7.5-3-7.5-6.7V24c0-3.7,3.4-6.7,7.5-6.7h3.9v1.8
	c0,4.6,4.2,6.7,9.5,6.7h21.3c5.2,0,9.5-2.1,9.5-6.7v-1.8h3.9c4.1,0,7.5,3,7.5,6.7v56.5H80.1z"/>
<g>
	<path class="st1" d="M42.4,65.9c-0.5,0-0.9-0.2-1.3-0.4l-10.7-9.6c-0.7-0.6-0.7-1.7,0-2.3c0.7-0.6,1.9-0.6,2.6,0l9.5,8.4L66,42.4
		c0.7-0.6,1.9-0.5,2.6,0.1c0.7,0.6,0.6,1.7-0.1,2.3L43.5,65.4C43.1,65.7,42.7,65.9,42.4,65.9z"/>
</g>
</svg>
