<svg xmlns="http://www.w3.org/2000/svg" width="75.3" height="76.7" viewBox="0 0 75.3 76.7">
  <g id="img-menu-distribution-delivery" transform="translate(-10.4 -10)">
    <path id="Path_425" data-name="Path 425" d="M74.9,71.6H27.6a5.8,5.8,0,0,1-5.8-5.8V23.7A2.8,2.8,0,0,0,19,20.9H11.9a1.5,1.5,0,0,1,0-3H19a5.8,5.8,0,0,1,5.8,5.8V65.8a2.8,2.8,0,0,0,2.8,2.8H74.9a1.5,1.5,0,1,1,0,3Z" fill="#31b2f5"/>
    <path id="Path_426" data-name="Path 426" d="M33,86.7a6.6,6.6,0,1,1,6.6-6.6A6.594,6.594,0,0,1,33,86.7Zm0-10.1a3.5,3.5,0,1,0,3.5,3.5A3.417,3.417,0,0,0,33,76.6Z" fill="#31b2f5"/>
    <path id="Path_427" data-name="Path 427" d="M63.8,86.7a6.6,6.6,0,1,1,6.6-6.6A6.594,6.594,0,0,1,63.8,86.7Zm0-10.1a3.478,3.478,0,0,0-3.5,3.5,3.5,3.5,0,1,0,3.5-3.5Z" fill="#31b2f5"/>
    <g id="Group_578" data-name="Group 578">
      <path id="Path_428" data-name="Path 428" d="M80.4,75.9,85.7,70l-5.3-5.8v4.4H70.3v3H80.4Z" fill="#31b2f5"/>
    </g>
    <g id="Group_579" data-name="Group 579">
      <path id="Path_429" data-name="Path 429" d="M28.1,29.9V63.5a3.7,3.7,0,0,0,3.8,3.6H46.5a3.7,3.7,0,0,0,3.8-3.6V59.1h4.3v4.4a3.7,3.7,0,0,0,3.8,3.6H73a3.7,3.7,0,0,0,3.8-3.6V29.9A10.638,10.638,0,0,0,66.5,19.5V16.4h4a2.348,2.348,0,0,0,2.4-2.3V12.9a2.348,2.348,0,0,0-2.4-2.3H61a2.333,2.333,0,0,0-2.4,2.2H46.3a2.4,2.4,0,0,0-2.4-2.2H34.4A2.348,2.348,0,0,0,32,12.9v1.2a2.348,2.348,0,0,0,2.4,2.3h4v3.1A10.708,10.708,0,0,0,28.1,29.9Zm10.8-9h.5a9.182,9.182,0,0,1,9.4,9v3.5H29.6V29.9A9.223,9.223,0,0,1,38.9,20.9ZM75.1,55.2H56V34.9H75.2V55.2ZM29.6,34.9H48.8V55.2H29.6Zm20.6,2.7h4.3V52.4H50.2Zm4.3-1.4H50.2V32.3h4.3ZM46.4,65.8H31.9a2.242,2.242,0,0,1-2.3-2.2v-7H48.8v7A2.4,2.4,0,0,1,46.4,65.8Zm3.8-8V53.9h4.3v3.9Zm22.6,8H58.3A2.242,2.242,0,0,1,56,63.6v-7H75.2v7A2.4,2.4,0,0,1,72.8,65.8Zm2.3-35.9v3.5H56V29.9a9.182,9.182,0,0,1,9.4-9h.5A9.2,9.2,0,0,1,75.1,29.9Zm-15.3-17a.9.9,0,0,1,.9-.9h9.5a.9.9,0,0,1,.9.9v1.2a.9.9,0,0,1-.9.9H60.7a.9.9,0,0,1-.9-.9ZM33.4,14.1V12.9a.9.9,0,0,1,.9-.9h9.5a.9.9,0,0,1,.9.9v1.2a.9.9,0,0,1-.9.9H34.3A.967.967,0,0,1,33.4,14.1Zm10.5,2.3a2.333,2.333,0,0,0,2.4-2.2H58.4a2.4,2.4,0,0,0,2.4,2.2h4v3.1A10.638,10.638,0,0,0,54.5,29.9v1H50.2v-1A10.638,10.638,0,0,0,39.9,19.5V16.4Z" fill="#31b2f5"/>
      <path id="Path_430" data-name="Path 430" d="M72.8,67.7H58.3A4.247,4.247,0,0,1,54,63.5V59.7H50.8v3.8a4.247,4.247,0,0,1-4.3,4.2H31.9a4.247,4.247,0,0,1-4.3-4.2V29.9A11.086,11.086,0,0,1,37.9,19V17H34.4a2.989,2.989,0,0,1-3-2.9V12.9a2.925,2.925,0,0,1,3-2.9h9.5a2.915,2.915,0,0,1,2.9,2.2H57.9A2.915,2.915,0,0,1,60.8,10h9.5a2.989,2.989,0,0,1,3,2.9v1.2a2.925,2.925,0,0,1-3,2.9H66.8v2A11.086,11.086,0,0,1,77.1,29.9V63.5A4.126,4.126,0,0,1,72.8,67.7ZM49.6,58.6H55v4.9a3.138,3.138,0,0,0,3.2,3.1H72.8A3.138,3.138,0,0,0,76,63.5V29.9a9.946,9.946,0,0,0-9.8-9.8h-.5V15.9h4.6a1.88,1.88,0,0,0,1.9-1.8V12.9a1.817,1.817,0,0,0-1.9-1.8H60.8a1.863,1.863,0,0,0-1.9,1.7v.5H45.8v-.5a1.8,1.8,0,0,0-1.9-1.7H34.4a1.88,1.88,0,0,0-1.9,1.8v1.2a1.817,1.817,0,0,0,1.9,1.8H39v4.2h-.5a10.013,10.013,0,0,0-9.8,9.8V63.5a3.138,3.138,0,0,0,3.2,3.1H46.5a3.138,3.138,0,0,0,3.2-3.1V58.6Zm23.2,7.7H58.3a2.734,2.734,0,0,1-2.8-2.8V56H75.8v7.5A2.971,2.971,0,0,1,72.8,66.3ZM56.5,57.1v6.4a1.752,1.752,0,0,0,1.7,1.7H72.8a1.628,1.628,0,0,0,1.7-1.7V57.1h-18ZM46.4,66.3H31.9a2.734,2.734,0,0,1-2.8-2.8V56H49.4v7.5A2.971,2.971,0,0,1,46.4,66.3ZM30.1,57.1v6.4a1.752,1.752,0,0,0,1.7,1.7H46.4a1.628,1.628,0,0,0,1.7-1.7V57.1h-18Zm25,1.2H49.7v-5h5.4Zm-4.4-1.1H54V54.4H50.8v2.8Zm25-1.5H55.4V34.3H75.7ZM56.5,54.6H74.6V35.4H56.5Zm-7.2,1.1H29V34.3H49.3ZM30.1,54.6H48.2V35.4H30.1Zm25-1.6H49.7V37.1h5.4Zm-4.4-1.1H54V38.2H50.8V51.9Zm4.4-15.1H49.7v-5h5.4Zm-4.4-1.1H54V32.9H50.8v2.8Zm25-1.7H55.4V29.9a9.734,9.734,0,0,1,9.9-9.6h.5a9.734,9.734,0,0,1,9.9,9.6V34ZM56.5,32.9H74.6v-3a8.625,8.625,0,0,0-8.8-8.5h-.5a8.625,8.625,0,0,0-8.8,8.5v3ZM49.3,34H29V29.9a9.734,9.734,0,0,1,9.9-9.6h.5a9.734,9.734,0,0,1,9.9,9.6V34ZM30.1,32.9H48.2v-3a8.625,8.625,0,0,0-8.8-8.5h-.5a8.625,8.625,0,0,0-8.8,8.5v3Zm25-1.4H49.7V30a9.946,9.946,0,0,0-9.8-9.8h-.5V16H44a1.863,1.863,0,0,0,1.9-1.7v-.5H59v.5A1.8,1.8,0,0,0,60.9,16h4.6v4.2H65A10.013,10.013,0,0,0,55.2,30v1.5Zm-4.4-1.1H54V30A11.086,11.086,0,0,1,64.3,19.1V17H60.8a2.915,2.915,0,0,1-2.9-2.2H46.8A3.027,3.027,0,0,1,43.9,17H40.4v2A11.086,11.086,0,0,1,50.7,29.9ZM43.9,15.6H34.4a1.538,1.538,0,0,1-1.5-1.5V12.9a1.538,1.538,0,0,1,1.5-1.5h9.5a1.538,1.538,0,0,1,1.5,1.5v1.2A1.538,1.538,0,0,1,43.9,15.6Zm-9.5-3.1a.43.43,0,0,0-.4.4v1.2a.43.43,0,0,0,.4.4h9.5a.43.43,0,0,0,.4-.4V12.9a.43.43,0,0,0-.4-.4Zm35.9,3.1H60.8a1.538,1.538,0,0,1-1.5-1.5V12.9a1.538,1.538,0,0,1,1.5-1.5h9.5a1.538,1.538,0,0,1,1.5,1.5v1.2A1.538,1.538,0,0,1,70.3,15.6Zm-9.5-3.1a.43.43,0,0,0-.4.4v1.2a.43.43,0,0,0,.4.4h9.5a.43.43,0,0,0,.4-.4V12.9a.43.43,0,0,0-.4-.4Z" fill="#31b2f5"/>
    </g>
    <g id="Group_580" data-name="Group 580">
      <path id="Path_431" data-name="Path 431" d="M39.1,40a4.952,4.952,0,1,0,5.1,5A5.037,5.037,0,0,0,39.1,40Zm0,8.7A3.868,3.868,0,0,1,35.2,45a3.8,3.8,0,0,1,3.9-3.7,3.705,3.705,0,1,1,0,7.4Z" fill="#31b2f5"/>
      <path id="Path_432" data-name="Path 432" d="M39.1,50.5A5.5,5.5,0,1,1,44.8,45,5.594,5.594,0,0,1,39.1,50.5Zm0-9.9A4.4,4.4,0,1,0,43.7,45,4.485,4.485,0,0,0,39.1,40.6Zm0,8.6a4.3,4.3,0,1,1,4.4-4.3A4.232,4.232,0,0,1,39.1,49.2Zm0-7.4A3.2,3.2,0,1,0,42.4,45,3.183,3.183,0,0,0,39.1,41.8Z" fill="#31b2f5"/>
    </g>
    <g id="Group_581" data-name="Group 581">
      <path id="Path_433" data-name="Path 433" d="M65.6,49.9a5,5,0,1,0-5.2-5A5.061,5.061,0,0,0,65.6,49.9Zm0-8.7a3.868,3.868,0,0,1,3.9,3.7,3.74,3.74,0,0,1-3.9,3.7,3.868,3.868,0,0,1-3.9-3.7A3.8,3.8,0,0,1,65.6,41.2Z" fill="#31b2f5"/>
      <path id="Path_434" data-name="Path 434" d="M65.6,50.5A5.594,5.594,0,0,1,59.9,45a5.658,5.658,0,0,1,5.7-5.5A5.594,5.594,0,0,1,71.3,45,5.658,5.658,0,0,1,65.6,50.5Zm0-10a4.4,4.4,0,1,0,4.6,4.4A4.549,4.549,0,0,0,65.6,40.5Zm0,8.8A4.291,4.291,0,0,1,61.2,45a4.354,4.354,0,0,1,4.4-4.3A4.291,4.291,0,0,1,70,45,4.42,4.42,0,0,1,65.6,49.3Zm0-7.5A3.2,3.2,0,1,0,68.9,45,3.244,3.244,0,0,0,65.6,41.8Z" fill="#31b2f5"/>
    </g>
  </g>
</svg>
