<?xml version="1.0" encoding="utf-8"?>
<!-- Generator: Adobe Illustrator 23.0.1, SVG Export Plug-In . SVG Version: 6.00 Build 0)  -->
<svg version="1.1" id="Layer_1" xmlns="http://www.w3.org/2000/svg" xmlns:xlink="http://www.w3.org/1999/xlink" x="0px" y="0px"
	 viewBox="0 0 128 128" style="enable-background:new 0 0 128 128;" xml:space="preserve">
<style type="text/css">
	.st0{fill:#FFFFFF;stroke:#9B9B9B;stroke-miterlimit:10;}
	.st1{fill:#5F584B;}
</style>
<path class="st0" d="M118.8,106.9H10c-3.3,0-5.9-2.7-5.9-5.9V29.6c0-3.3,2.7-5.9,5.9-5.9h108.8c3.3,0,5.9,2.7,5.9,5.9V101
	C124.8,104.2,122.1,106.9,118.8,106.9z"/>
<g>
	<rect x="11" y="29.6" class="st1" width="3.2" height="71.7"/>
	<rect x="35.1" y="29.6" class="st1" width="3.2" height="65.8"/>
	<rect x="17.4" y="29.6" class="st1" width="6.3" height="65.8"/>
	<rect x="25.5" y="29.6" class="st1" width="6.3" height="65.8"/>
	<rect x="49.6" y="29.6" class="st1" width="6.3" height="65.8"/>
	<rect x="65.6" y="29.6" class="st1" width="6.3" height="65.8"/>
	<rect x="81.7" y="29.6" class="st1" width="6.3" height="65.8"/>
	<rect x="105.8" y="29.6" class="st1" width="6.3" height="65.8"/>
	<rect x="43.1" y="29.6" class="st1" width="3.2" height="65.8"/>
	<rect x="75.2" y="29.6" class="st1" width="3.2" height="65.8"/>
	<rect x="91.3" y="29.6" class="st1" width="3.2" height="65.8"/>
	<rect x="99.4" y="29.6" class="st1" width="3.2" height="65.8"/>
	<rect x="59.2" y="29.6" class="st1" width="3.2" height="71.7"/>
	<rect x="115.5" y="29.6" class="st1" width="3.2" height="71.7"/>
</g>
</svg>
