<?xml version="1.0" standalone="no"?>
<!DOCTYPE svg PUBLIC "-//W3C//DTD SVG 20010904//EN"
 "http://www.w3.org/TR/2001/REC-SVG-20010904/DTD/svg10.dtd">
<svg version="1.0" xmlns="http://www.w3.org/2000/svg"
 width="144.000000pt" height="144.000000pt" viewBox="0 0 144.000000 144.000000"
 preserveAspectRatio="xMidYMid meet">
<metadata>
Created by potrace 1.10, written by Peter Selinger 2001-2011
</metadata>
<g transform="translate(0.000000,144.000000) scale(0.100000,-0.100000)"
fill="#000000" stroke="none">
<path d="M174 1411 c-89 -40 -165 -144 -163 -220 l1 -36 15 48 c8 26 18 45 24
42 5 -3 6 1 3 9 -3 9 -1 16 5 16 6 0 11 6 11 13 0 7 9 19 20 27 11 8 20 20 20
26 0 18 70 58 99 57 15 -1 20 1 11 5 -9 3 2 10 30 18 l45 12 -40 1 c-22 0 -58
-8 -81 -18z"/>
<path d="M1190 1416 c29 -8 40 -15 30 -19 -11 -5 -9 -6 5 -4 27 2 85 -23 85
-38 0 -6 10 -17 23 -24 27 -14 60 -69 50 -83 -3 -7 -1 -8 5 -4 7 4 14 -4 17
-21 4 -15 10 -37 15 -48 7 -16 9 -13 9 16 2 108 -133 240 -244 238 l-40 -1 45
-12z"/>
<path d="M877 1280 c-19 -22 -42 -40 -51 -40 -9 0 -16 -4 -16 -9 0 -11 -100
-52 -152 -61 -28 -6 -37 -5 -29 3 35 35 -10 20 -85 -29 -47 -31 -23 -31 107 2
161 41 202 64 254 147 25 39 13 33 -28 -13z"/>
<path d="M921 1292 c-1 -21 -102 -122 -142 -143 -20 -10 -86 -33 -145 -50
-134 -39 -206 -72 -254 -115 -72 -65 -116 -216 -99 -338 8 -64 27 -116 40
-116 5 0 8 -3 7 -7 -5 -14 80 -158 101 -173 12 -8 21 -18 21 -23 0 -11 33 -42
102 -98 31 -26 54 -50 50 -54 -4 -5 -2 -5 4 -2 6 3 26 -4 45 -16 19 -13 50
-31 70 -41 35 -18 36 -18 79 4 24 12 66 41 94 64 94 79 236 228 236 249 0 5 8
21 19 35 40 58 64 144 65 232 1 75 -2 90 -26 130 -15 25 -38 57 -52 71 -14 15
-22 30 -18 35 4 4 2 4 -5 0 -7 -4 -21 -1 -32 6 -16 10 -23 10 -32 1 -9 -9 -8
-19 7 -40 10 -15 17 -32 15 -38 -1 -5 1 -7 5 -2 10 9 34 -47 34 -79 0 -13 5
-24 10 -24 6 0 10 -20 10 -45 0 -25 -4 -45 -10 -45 -5 0 -10 -9 -10 -21 0 -29
-55 -139 -87 -174 -16 -17 -44 -48 -62 -70 -19 -22 -39 -39 -44 -37 -5 1 -6
-2 -2 -8 3 -5 2 -10 -3 -10 -5 0 -20 -10 -33 -23 -45 -43 -107 -87 -122 -87
-22 0 -67 21 -67 32 0 4 -5 8 -10 8 -6 0 -22 7 -36 17 -19 12 -22 18 -12 24 9
6 7 9 -9 9 -12 0 -25 4 -28 10 -3 6 5 10 19 10 14 0 28 5 31 10 4 6 -13 10
-45 10 -32 0 -49 4 -45 10 3 5 37 10 75 10 38 0 72 5 75 11 4 6 13 8 21 5 7
-3 11 0 8 8 -4 12 48 66 63 66 5 0 8 5 8 11 0 15 72 57 133 76 28 9 52 21 52
25 0 5 -14 26 -31 48 -24 30 -32 51 -36 99 -4 39 -2 61 5 61 5 0 9 8 8 17 -1
11 15 25 44 39 50 25 39 32 -15 10 -79 -33 -87 -159 -15 -236 17 -18 30 -34
30 -35 0 -2 -14 -7 -32 -10 -70 -16 -119 -46 -182 -112 l-65 -68 -76 -3 c-50
-3 -75 -1 -75 7 0 6 14 11 31 11 45 0 66 14 144 94 59 62 78 75 121 85 l51 12
-19 38 c-24 49 -26 142 -4 176 18 27 64 54 111 66 27 6 28 7 5 8 -41 1 -108
-35 -130 -71 -24 -39 -25 -87 -5 -154 15 -50 10 -63 -23 -64 -19 0 -71 -39
-106 -78 -19 -22 -32 -29 -36 -22 -5 9 -9 9 -14 1 -4 -6 -2 -11 3 -11 6 0 11
-4 11 -10 0 -15 -84 -60 -114 -60 -15 0 -29 -7 -32 -15 -7 -16 -5 -18 -56 43
-9 11 -14 23 -11 26 4 3 1 6 -6 6 -8 0 -11 7 -7 15 3 8 1 14 -5 12 -17 -3 -59
86 -68 143 -5 31 -5 67 1 87 5 19 7 41 4 48 -5 13 11 65 32 103 7 12 9 22 4
22 -17 0 -42 -49 -58 -112 -20 -79 -13 -156 21 -233 54 -123 200 -284 309
-341 l53 -27 58 39 c118 78 244 225 303 352 48 105 29 240 -44 307 -15 14 -24
28 -20 32 10 10 95 -76 119 -122 31 -56 29 -178 -2 -255 -52 -126 -189 -283
-343 -393 -77 -55 -65 -56 -184 24 -196 132 -308 289 -329 464 -8 69 17 157
65 228 21 31 35 57 30 57 -5 0 -11 -4 -15 -9 -3 -6 -14 -9 -26 -8 -18 1 -17 4
10 29 17 15 35 28 40 28 6 0 11 4 11 8 0 16 129 73 195 85 11 2 27 6 35 9 8 3
43 14 78 23 34 10 62 22 62 27 0 5 8 8 18 6 9 -2 16 3 15 10 -2 6 1 12 7 12
16 0 13 -6 -42 -97 -29 -47 -61 -88 -70 -91 -10 -2 -16 -8 -13 -12 9 -15 -30
-5 -49 13 -11 9 -24 17 -29 17 -4 0 -15 7 -23 15 -45 44 -68 -5 -61 -130 5
-103 26 -164 76 -224 37 -44 101 -93 71 -55 -8 10 -32 39 -52 63 -53 61 -79
151 -77 259 2 88 10 99 45 61 28 -31 73 -51 100 -45 33 9 94 89 135 180 19 42
38 76 43 76 4 0 6 -6 3 -12 -2 -7 -12 -40 -22 -73 -22 -79 -71 -170 -107 -201
-37 -30 -79 -31 -126 -2 l-35 22 6 -72 c3 -39 17 -98 30 -130 24 -60 64 -120
81 -121 5 -1 3 6 -4 14 -6 8 -8 20 -4 26 4 7 3 9 -4 5 -6 -3 -16 3 -22 14 -6
11 -7 20 -3 20 4 0 3 4 -3 8 -15 11 -53 147 -47 171 5 19 7 19 34 6 26 -14 33
-14 66 0 41 17 57 32 94 87 14 21 29 35 34 30 5 -4 5 -2 1 5 -3 6 0 27 8 45
21 51 36 102 36 125 0 31 -11 54 -22 47 -5 -3 2 13 17 36 14 23 24 47 21 53
-3 8 -5 8 -5 -1z m-551 -388 c0 -3 -10 -18 -21 -32 -12 -15 -19 -20 -15 -12 3
8 9 23 12 33 6 16 24 25 24 11z"/>
<path d="M550 1208 c0 -3 -13 -9 -30 -13 -16 -4 -30 -10 -30 -15 0 -4 -16 -15
-36 -25 -19 -9 -64 -44 -98 -78 -111 -109 -155 -244 -127 -389 14 -72 45 -148
60 -148 5 0 4 12 -4 27 -8 16 -22 61 -31 102 -32 145 -1 262 98 367 70 74 133
119 204 145 77 29 87 39 36 36 -23 -1 -42 -5 -42 -9z"/>
<path d="M925 920 c-3 -5 3 -10 14 -10 12 0 21 5 21 10 0 6 -6 10 -14 10 -8 0
-18 -4 -21 -10z"/>
<path d="M950 820 c0 -5 7 -7 15 -4 8 4 15 8 15 10 0 2 -7 4 -15 4 -8 0 -15
-4 -15 -10z"/>
<path d="M821 674 c0 -11 3 -14 6 -6 3 7 2 16 -1 19 -3 4 -6 -2 -5 -13z"/>
<path d="M790 620 c0 -5 5 -10 10 -10 6 0 10 5 10 10 0 6 -4 10 -10 10 -5 0
-10 -4 -10 -10z"/>
<path d="M709 543 c-13 -16 -12 -17 4 -4 16 13 21 21 13 21 -2 0 -10 -8 -17
-17z"/>
<path d="M840 499 c0 -5 5 -7 10 -4 6 3 10 8 10 11 0 2 -4 4 -10 4 -5 0 -10
-5 -10 -11z"/>
<path d="M645 480 c-3 -6 1 -7 9 -4 18 7 21 14 7 14 -6 0 -13 -4 -16 -10z"/>
<path d="M570 460 c0 -5 9 -10 19 -10 11 0 23 5 26 10 4 6 -5 10 -19 10 -14 0
-26 -4 -26 -10z"/>
<path d="M750 419 c0 -5 5 -7 10 -4 6 3 10 8 10 11 0 2 -4 4 -10 4 -5 0 -10
-5 -10 -11z"/>
<path d="M678 363 c7 -3 16 -2 19 1 4 3 -2 6 -13 5 -11 0 -14 -3 -6 -6z"/>
<path d="M11 255 c-2 -114 129 -245 243 -245 30 0 37 3 26 10 -8 5 -27 10 -42
10 -16 0 -28 4 -28 10 0 5 -3 9 -7 8 -15 -4 -53 14 -53 24 0 6 -3 9 -6 6 -7
-8 -74 66 -74 81 0 7 -4 10 -9 7 -14 -9 -20 31 -7 44 8 10 7 11 -4 8 -11 -4
-18 7 -27 36 l-11 41 -1 -40z"/>
<path d="M1416 255 c-13 -63 -34 -96 -93 -152 -51 -49 -65 -57 -85 -54 -5 0
-8 -4 -8 -9 0 -6 -12 -10 -27 -10 -16 0 -35 -5 -43 -10 -11 -7 -4 -10 26 -10
116 0 252 139 242 248 l-4 37 -8 -40z"/>
</g>
</svg>
