<svg xmlns="http://www.w3.org/2000/svg" width="128" height="128" viewBox="0 0 128 128">
  <g id="Group_8" data-name="Group 8" transform="translate(-519 -273)">
    <circle id="Ellipse_2" data-name="Ellipse 2" cx="64" cy="64" r="64" transform="translate(519 273)" fill="#f1f5f8"/>
    <g id="Group_7" data-name="Group 7" transform="translate(136.249 -33.667)">
      <path id="Subtraction_1" data-name="Subtraction 1" d="M45,68H1a1,1,0,0,1-1-1V18.047a1,1,0,0,1,1-1H45a1,1,0,0,1,1,1V67A1,1,0,0,1,45,68ZM32.916,25.653V57.892h5.52V25.653Zm-11.96,0V57.892h5.52V25.653Zm-10.938,0V57.892h4.6V25.653ZM45.5,11.833H.5a.5.5,0,0,1-.5-.5v-6.7a.5.5,0,0,1,.5-.5h9.843V0h25.3V4.137H45.5a.5.5,0,0,1,.5.5v6.7A.5.5,0,0,1,45.5,11.833Z" transform="translate(423.751 332.667)" fill="#888b8f"/>
      <g id="Ellipse_3" data-name="Ellipse 3" transform="translate(442.751 368.667)" fill="#f1f5f8" stroke="#888b8f" stroke-width="3">
        <circle cx="20" cy="20" r="20" stroke="none"/>
        <circle cx="20" cy="20" r="18.5" fill="none"/>
      </g>
      <g id="noun_database_1021176" transform="translate(427.592 357.417)">
        <path id="Path_3" data-name="Path 3" d="M35.359,33.378A35.523,35.523,0,0,1,29.19,32.9a6.567,6.567,0,0,1-2.431-.8v3.905h.026c.375,1.168,5.252,1.6,8.574,1.6s8.2-.429,8.574-1.6h.026V32.1a6.572,6.572,0,0,1-2.431.8A35.543,35.543,0,0,1,35.359,33.378Z" transform="translate(0 -6.814)" fill="none" stroke="#888b8f" stroke-width="2"/>
        <path id="Path_4" data-name="Path 4" d="M35.359,50.73a35.523,35.523,0,0,1-6.169-.476,6.567,6.567,0,0,1-2.431-.8v3.9h.026c.375,1.168,5.252,1.6,8.574,1.6s8.2-.429,8.574-1.6h.026v-3.9a6.573,6.573,0,0,1-2.431.8A35.511,35.511,0,0,1,35.359,50.73Z" transform="translate(0 -19.128)" fill="none" stroke="#888b8f" stroke-width="2"/>
        <path id="Path_5" data-name="Path 5" d="M35.359,68.08A35.523,35.523,0,0,1,29.19,67.6a6.567,6.567,0,0,1-2.431-.8v3.905h.026c.375,1.168,5.252,1.6,8.574,1.6s8.2-.429,8.574-1.6h.026V66.8a6.572,6.572,0,0,1-2.431.8A35.543,35.543,0,0,1,35.359,68.08Z" transform="translate(0 -31.441)" fill="none" stroke="#888b8f" stroke-width="2"/>
        <path id="Path_6" data-name="Path 6" d="M43.923,23.952c-.4-.814-4.077-1.452-8.563-1.452s-8.168.638-8.563,1.452a.334.334,0,0,0-.037.145c0,.882,3.85,1.6,8.6,1.6s8.6-.715,8.6-1.6A.334.334,0,0,0,43.923,23.952Z" transform="translate(-0.001)" fill="none" stroke="#888b8f" stroke-width="2"/>
      </g>
    </g>
  </g>
</svg>
