<?xml version="1.0" encoding="utf-8"?>
<!-- Generator: Adobe Illustrator 23.0.1, SVG Export Plug-In . SVG Version: 6.00 Build 0)  -->
<svg version="1.1" id="Layer_1" xmlns="http://www.w3.org/2000/svg" xmlns:xlink="http://www.w3.org/1999/xlink" x="0px" y="0px"
	 viewBox="0 0 490 490" style="enable-background:new 0 0 490 490;" xml:space="preserve">
<style type="text/css">
	.st0{fill:#41A0EC;stroke:#96CFFF;stroke-width:6;stroke-miterlimit:10;}
	.st1{fill:#FFFFFF;}
	.st2{fill:#5F584B;}
	.st3{fill:#FFFFFF;stroke:#5F584B;stroke-width:7;stroke-miterlimit:10;}
</style>
<circle class="st0" cx="245.9" cy="245.4" r="232"/>
<path class="st1" d="M385.9,350.9h-276c-8.3,0-15-6.8-15-15v-181c0-8.3,6.8-15,15-15h276c8.3,0,15,6.8,15,15v181
	C400.9,344.1,394.1,350.9,385.9,350.9z"/>
<g>
	<rect x="110.3" y="154.8" class="st2" width="8" height="182"/>
	<rect x="171.4" y="154.8" class="st2" width="8" height="167"/>
	<rect x="126.6" y="154.8" class="st2" width="16" height="167"/>
	<rect x="147" y="154.8" class="st2" width="16" height="167"/>
	<rect x="208.2" y="154.8" class="st2" width="16" height="167"/>
	<rect x="248.9" y="154.8" class="st2" width="16" height="167"/>
	<rect x="289.7" y="154.8" class="st2" width="16" height="167"/>
	<rect x="350.9" y="154.8" class="st2" width="16" height="167"/>
	<rect x="191.8" y="154.8" class="st2" width="8" height="167"/>
	<rect x="273.3" y="154.8" class="st2" width="8" height="167"/>
	<rect x="314.1" y="154.8" class="st2" width="8" height="167"/>
	<rect x="334.5" y="154.8" class="st2" width="8" height="167"/>
	<rect x="232.6" y="154.8" class="st2" width="8" height="182"/>
	<rect x="375.3" y="154.8" class="st2" width="8" height="182"/>
</g>
<g>
	<circle class="st3" cx="248.9" cy="241" r="66.1"/>
</g>
<g>
	<g>
		<path class="st2" d="M258.1,231.9c-7.9-5-15.8-2.8-20.2,1.5c-4.4,4.4-6.6,12.3-1.5,20.2c0.8,1.1,1.8,2.2,3,3
			c3.2,2,6.3,2.9,9.3,2.9c4.3,0,8.3-1.9,10.9-4.4c4.4-4.4,6.6-12.3,1.5-20.2C260.4,233.6,259.3,232.6,258.1,231.9z M256.7,252.1
			c-3,3-8.7,5.1-15.2,1l0,0c-0.6-0.5-1.4-1-1.8-1.8c-4.1-6.4-2-12.2,1-15.2c1.8-1.8,4.6-3.4,8-3.4c2.2,0,4.6,0.6,7.2,2.2
			c0.6,0.5,1.4,1,1.8,1.8C261.8,243.4,259.8,249.2,256.7,252.1z"/>
		<path class="st2" d="M248.7,260.3c-3.3,0-6.6-1-9.8-3c-1.2-0.7-2.2-1.8-3.2-3.2c-5.3-8.3-3-16.7,1.7-21.2
			c4.6-4.6,13.1-6.8,21.2-1.7l0,0c1.3,0.8,2.4,1.9,3.2,3.2c5.2,8.3,3,16.6-1.7,21.2C257,258.6,252.8,260.3,248.7,260.3z
			 M248.7,229.8c-4.2,0-7.9,1.9-10.3,4.2c-4.2,4.2-6.2,11.7-1.4,19.2c0.8,1.2,1.8,2.1,2.7,2.7c3,1.8,5.9,2.7,8.9,2.7
			c3.8,0,7.5-1.5,10.3-4.2c4.2-4.2,6.2-11.7,1.4-19.2c-0.7-1.1-1.6-2-2.7-2.7C254.6,230.6,251.5,229.8,248.7,229.8z M248.7,256.2
			c-2.3,0-5-0.7-7.7-2.4c-0.6-0.4-1.4-1-2-2.1c-4.3-6.8-2.1-13,1.1-16.2c2.2-2.2,5.4-3.6,8.6-3.6c2.5,0,5,0.8,7.6,2.3
			c0.6,0.4,1.4,1,2.1,2.1c4.4,7,2.2,13.1-1.1,16.3C255.3,254.7,252.3,256.2,248.7,256.2z M248.7,233.6c-2.7,0-5.4,1.1-7.5,3.1
			c-2.8,2.8-4.7,8.2-0.9,14.2c0.3,0.6,0.8,1,1.5,1.5c6,3.8,11.4,1.9,14.2-0.9l0,0c2.8-2.7,4.7-8.1,0.9-14.3c-0.3-0.6-0.8-1-1.5-1.5
			C253.1,234.3,250.9,233.6,248.7,233.6z"/>
	</g>
	<g>
		<path class="st2" d="M278.6,217h-15.9l-0.5-1.2c-0.9-2.8-3.5-4.6-6.6-4.6h-13.5c-3,0-5.5,1.9-6.6,4.6l-0.5,1.2H219
			c-4.6,0-8.4,3.8-8.4,8.4v36.8c0,4.6,3.8,8.4,8.4,8.4h59.4c4.6,0,8.4-3.8,8.4-8.4v-36.8C287,220.9,283.3,217,278.6,217z
			 M282.9,262.2c0,2.4-2,4.4-4.4,4.4h-59.4c-2.4,0-4.4-2-4.4-4.4v-36.6c0-2.4,2-4.4,4.4-4.4h17.6c0.9,0,1.7-0.6,1.9-1.4l0.9-2.6
			c0.5-1.2,1.4-2,2.8-2h13.5c1.2,0,2.3,0.8,2.8,2l0.9,2.6c0.2,0.8,1,1.4,1.9,1.4h17.3c2.4,0,4.4,2,4.4,4.4
			C282.9,225.5,282.9,262.2,282.9,262.2z"/>
		<path class="st2" d="M278.5,271.5h-59.4c-5.1,0-9.2-4.2-9.2-9.2v-36.8c0-5.1,4.2-9.2,9.2-9.2h15.6l0.2-0.7c1.1-3.1,4-5.2,7.3-5.2
			h13.5c3.4,0,6.3,2.1,7.3,5.2l0.2,0.6h15.3c2.5,0,4.8,1,6.6,2.7c1.7,1.8,2.6,4.1,2.6,6.5v36.7C287.8,267.4,283.6,271.5,278.5,271.5
			z M219.1,217.8c-4.2,0-7.6,3.4-7.6,7.6v36.8c0,4.2,3.4,7.6,7.6,7.6h59.4c4.2,0,7.6-3.4,7.6-7.6v-36.8c0.1-2-0.7-3.9-2.1-5.4
			c-1.4-1.4-3.4-2.2-5.4-2.2h-16.4l-0.6-1.8c-0.8-2.5-3.1-4.2-5.8-4.2h-13.5c-2.6,0-4.9,1.6-5.8,4.2l-0.6,1.8H219.1z M278.5,267.4
			h-59.4c-2.9,0-5.2-2.3-5.2-5.2v-36.6c0-2.9,2.3-5.2,5.2-5.2h17.6c0.6,0,1-0.3,1.1-0.7l0.9-2.6c0.6-1.6,1.9-2.6,3.5-2.6h13.5
			c1.6,0,3,1,3.5,2.6l0.9,2.6c0.2,0.5,0.6,0.8,1.1,0.8h17.3c2.9,0,5.2,2.3,5.2,5.2v0.8c-0.1,4.3-0.1,26.8-0.1,35.8h-0.8h0.8
			C283.8,265,281.4,267.4,278.5,267.4z M219.1,221.8c-2,0-3.6,1.6-3.6,3.6v36.6c0,2,1.6,3.6,3.6,3.6h59.4c2,0,3.6-1.6,3.6-3.6
			c0,0,0-9.1,0-18.3c0-4.6,0-9.1,0-12.6c0-3.3,0-4.9,0.2-5.7h-0.1c0-2-1.6-3.6-3.6-3.6h-17.3c-1.3,0-2.3-0.8-2.6-1.9l-0.9-2.5
			c-0.3-0.9-1.1-1.4-2-1.4h-13.5c-1,0-1.7,0.6-2,1.4l-0.9,2.6c-0.3,1.1-1.4,1.8-2.6,1.8H219.1z"/>
	</g>
	<g>
		<circle class="st2" cx="223.3" cy="226.7" r="2.3"/>
		<path class="st2" d="M223.3,229.8c-1.8,0-3.1-1.4-3.1-3.1c0-1.8,1.4-3.1,3.1-3.1c1.8,0,3.1,1.4,3.1,3.1
			C226.5,228.3,225.1,229.8,223.3,229.8z M223.3,225.1c-0.9,0-1.5,0.7-1.5,1.5c0,0.9,0.7,1.5,1.5,1.5c0.9,0,1.5-0.7,1.5-1.5
			C224.9,225.8,224.2,225.1,223.3,225.1z"/>
	</g>
</g>
</svg>
