<?xml version="1.0" encoding="utf-8"?>
<!-- Generator: Adobe Illustrator 22.1.0, SVG Export Plug-In . SVG Version: 6.00 Build 0)  -->
<svg version="1.1" id="Layer_1" xmlns="http://www.w3.org/2000/svg" xmlns:xlink="http://www.w3.org/1999/xlink" x="0px" y="0px"
	 viewBox="0 0 128 128" style="enable-background:new 0 0 128 128;" xml:space="preserve">
<style type="text/css">
	.st0{fill:#0B82E1;}
</style>
<g>
	<g>
		<path class="st0" d="M62.9,116.2c29.2,0,52.9-23.7,52.9-52.9S92.1,10.4,62.9,10.4S10,34.1,10,63.3S33.7,116.2,62.9,116.2z
			 M62.9,123.8c-33.4,0-60.5-27.1-60.5-60.5S29.5,2.8,62.9,2.8s60.5,27.1,60.5,60.5S96.3,123.8,62.9,123.8z"/>
	</g>
</g>
<path class="st0" d="M70.2,84.3c0,4.1-3.3,7.4-7.4,7.4s-7.4-3.3-7.4-7.4s3.3-7.4,7.4-7.4S70.2,80.2,70.2,84.3z M70.2,42.3
	c0,2.5-1.9,12-5.6,28.7c-0.4,1.9-3.2,1.9-3.6,0c-3.7-16.6-5.6-26.2-5.6-28.7c0-3.7,3.3-7.4,7.4-7.4S70.3,38.6,70.2,42.3z"/>
</svg>
