<?xml version="1.0" encoding="utf-8"?>
<!-- Generator: Adobe Illustrator 23.0.1, SVG Export Plug-In . SVG Version: 6.00 Build 0)  -->
<svg version="1.1" id="Layer_1" xmlns="http://www.w3.org/2000/svg" xmlns:xlink="http://www.w3.org/1999/xlink" x="0px" y="0px"
	 viewBox="0 0 128 128" style="enable-background:new 0 0 128 128;" xml:space="preserve">
<style type="text/css">
	.st0{fill:#F6B300;}
	.st1{fill:#FFFFFF;}
</style>
<g>
	<path class="st0" d="M105.5,90H17.1c-4.1,0-7.5-3.3-7.5-7.5V48.8c0-4.1,3.3-7.5,7.5-7.5h88.5c4.1,0,7.5,3.3,7.5,7.5v33.8
		C113,86.7,109.7,90,105.5,90z"/>
</g>
<g>
	<path class="st0" d="M99.8,84.8h-77c-4.1,0-7.5-3.3-7.5-7.5V54.9c0-4.1,3.3-7.5,7.5-7.5h77c4.1,0,7.5,3.3,7.5,7.5v22.5
		C107.2,81.5,103.9,84.8,99.8,84.8z"/>
	<path class="st1" d="M100.1,85.8H22.5c-4.4,0-8-3.6-8-8V54.5c0-4.4,3.6-8,8-8h77.7c4.4,0,8,3.6,8,8v23.2
		C108.2,82.1,104.6,85.8,100.1,85.8z M22.5,48.4c-3.4,0-6.1,2.8-6.1,6.1v23.2c0,3.4,2.8,6.1,6.1,6.1h77.7c3.4,0,6.1-2.8,6.1-6.1
		V54.5c0-3.4-2.8-6.1-6.1-6.1H22.5z"/>
</g>
<g>
	<path class="st1" d="M35.7,74.1v-17H38l5.2,8.6c1.2,2,2.2,3.8,2.9,5.5l0,0C46,69,46,66.9,46,64.2v-7.1h2v17h-2.1l-5.2-8.6
		c-1.1-1.9-2.2-3.8-3.1-5.7l-0.1,0c0.1,2.1,0.2,4.2,0.2,7v7.3H35.7z"/>
	<path class="st1" d="M60.1,66.1h-6.4v6.1h7.1v1.8h-9.2v-17h8.8V59h-6.7v5.4h6.4V66.1z"/>
	<path class="st1" d="M66.5,74.1l-4.2-17h2.2l1.9,8.6c0.5,2.1,0.9,4.2,1.2,5.9h0c0.3-1.7,0.8-3.7,1.3-5.9l2.2-8.6h2.2l2,8.6
		c0.5,2,0.9,4,1.1,5.8h0c0.3-1.9,0.8-3.8,1.3-5.9l2.2-8.6h2.2l-4.6,17h-2.2l-2.1-8.9c-0.5-2.2-0.8-3.8-1.1-5.6h0
		c-0.3,1.7-0.7,3.4-1.3,5.6l-2.3,8.9H66.5z"/>
</g>
<g>
	<polygon class="st0" points="120,51.6 110.2,49.6 111.9,59.5 105.1,52.2 100.7,61.2 99.5,51.2 90.7,55.9 95.6,47.2 85.6,45.8 
		94.7,41.6 87.5,34.7 97.3,36.6 95.6,26.7 102.4,34.1 106.8,25.1 108,35 116.8,30.3 111.9,39 121.8,40.4 112.8,44.6 	"/>
	<path class="st1" d="M100.2,64.5l-1.4-11.8l-10.5,5.6L94,47.9l-11.7-1.6l10.7-5l-8.5-8.2l11.6,2.3l-2.1-11.7l8.1,8.7l5.2-10.7
		l1.4,11.8l10.5-5.6l-5.8,10.4l11.7,1.6l-10.7,5l8.5,8.2l-11.6-2.3l2.1,11.7l-8.1-8.7L100.2,64.5z M100.3,49.7l1,8.1l3.6-7.3l5.6,6
		l-1.4-8l8,1.6l-5.9-5.7l7.4-3.4l-8.1-1.1l4-7.1l-7.2,3.8l-1-8.1l-3.6,7.3l-5.6-6l1.4,8l-8-1.6l5.9,5.7L89,45.3l8.1,1.1l-4,7.1
		L100.3,49.7z"/>
</g>
</svg>
