<?xml version="1.0" encoding="utf-8"?>
<!-- Generator: Adobe Illustrator 22.1.0, SVG Export Plug-In . SVG Version: 6.00 Build 0)  -->
<svg version="1.1" id="Layer_1" xmlns="http://www.w3.org/2000/svg" xmlns:xlink="http://www.w3.org/1999/xlink" x="0px" y="0px"
	 viewBox="0 0 128 128" style="enable-background:new 0 0 128 128;" xml:space="preserve">
<style type="text/css">
	.st0{fill:#474747;}
	.st1{fill:none;}
	.st2{fill:#FFFFFF;}
</style>
<circle class="st0" cx="64" cy="64" r="64"/>
<path class="st1" d="M89.5,43.7H74.7c-0.7,0-1.4-0.5-1.6-1.2l-0.7-2.2c-0.3-1-1.3-1.7-2.3-1.7H58.4c-1.1,0-2,0.7-2.3,1.7l-0.7,2.2
	c-0.2,0.7-0.9,1.2-1.6,1.2H38.5c-2.1,0-3.8,1.7-3.8,3.8V79c0,2.1,1.7,3.8,3.8,3.8h51c2.1,0,3.8-1.7,3.8-3.8V47.5
	C93.3,45.4,91.6,43.7,89.5,43.7z M73.1,72.9c-2.2,2.2-5.6,3.8-9.3,3.8c-2.5,0-5.3-0.7-8-2.5c-1-0.6-1.9-1.5-2.5-2.5
	C49,65,50.9,58.1,54.7,54.4S65.2,48.7,72,53c1,0.6,1.9,1.5,2.5,2.5C78.8,62.3,76.9,69.1,73.1,72.9z"/>
<path class="st1" d="M70.1,55.9c-2.2-1.4-4.3-1.9-6.2-1.9c-2.9,0-5.3,1.3-6.9,2.8c-2.6,2.6-4.4,7.6-0.9,13c0.4,0.6,0.9,1.1,1.5,1.5
	l0,0c5.5,3.5,10.5,1.7,13.1-0.9c2.6-2.6,4.4-7.6,0.9-13.1C71.2,56.8,70.7,56.3,70.1,55.9z"/>
<g>
	<g>
		<path class="st2" d="M29.3,42.9c0-1.8,1.5-3.3,3.3-3.3h8.3v-3.3h-8.3c-3.6,0-6.6,3-6.6,6.6v8.3h3.3V42.9z M29.3,89.2v-8.3H26v8.3
			c0,3.6,3,6.6,6.6,6.6h8.3v-3.3h-8.3C30.8,92.5,29.3,91,29.3,89.2z M98.7,89.2c0,1.8-1.5,3.3-3.3,3.3h-8.3v3.3h8.3
			c3.6,0,6.6-3,6.6-6.6v-8.3h-3.3V89.2z M95.4,36.3h-8.3v3.3h8.3c1.8,0,3.3,1.5,3.3,3.3v8.3h3.3v-8.3C102,39.3,99,36.3,95.4,36.3z
			 M29.3,66.1c0,0.9,0.7,1.7,1.7,1.7H97c0.9,0,1.7-0.7,1.7-1.7c0-0.9-0.7-1.7-1.7-1.7H31C30,64.4,29.3,65.1,29.3,66.1z M55.7,46.2
			h-3.3v14.9h3.3V46.2z M35.9,46.2v14.9h3.3V46.2H35.9z M62.3,46.2H59v14.9h3.3V46.2z M78.9,46.2h-3.3v14.9h3.3V46.2z M85.5,46.2
			h-3.3v14.9h3.3V46.2z M88.8,46.2v14.9h3.3V46.2H88.8z M49.1,46.2h-6.6v14.9h6.6V46.2z M72.3,46.2h-6.6v14.9h6.6V46.2z M52.4,85.9
			h3.3V71h-3.3V85.9z M39.2,85.9V71h-3.3v14.9H39.2z M59,85.9h3.3V71H59V85.9z M75.6,85.9h3.3V71h-3.3V85.9z M82.2,85.9h3.3V71h-3.3
			V85.9z M92.1,85.9V71h-3.3v14.9H92.1z M42.5,85.9h6.6V71h-6.6V85.9z M65.7,85.9h6.6V71h-6.6V85.9z"/>
	</g>
</g>
</svg>
