<?xml version="1.0" encoding="utf-8"?>
<!-- Generator: Adobe Illustrator 22.1.0, SVG Export Plug-In . SVG Version: 6.00 Build 0)  -->
<svg version="1.1" id="Layer_1" xmlns="http://www.w3.org/2000/svg" xmlns:xlink="http://www.w3.org/1999/xlink" x="0px" y="0px"
	 viewBox="0 0 128 128" style="enable-background:new 0 0 128 128;" xml:space="preserve">
<style type="text/css">
	.st0{fill:#F86A74;}
</style>
<g>
	<path class="st0" d="M63.5,117.4c29.2,0,52.9-23.7,52.9-52.9S92.7,11.6,63.5,11.6S10.6,35.3,10.6,64.5S34.3,117.4,63.5,117.4z
		 M63.5,125C30.1,125,3,97.9,3,64.5S30.1,4,63.5,4S124,31.1,124,64.5S96.9,125,63.5,125z"/>
</g>
<path class="st0" d="M107.2,28.3c1.2,1.5,1,3.7-0.4,5l-81,67.7c-1.5,1.2-3.7,1-5-0.4l0,0c-1.2-1.5-1-3.7,0.4-5l81-67.7
	C103.8,26.6,106,26.8,107.2,28.3L107.2,28.3z"/>
</svg>
