<?xml version="1.0" encoding="utf-8"?>
<!-- Generator: Adobe Illustrator 22.1.0, SVG Export Plug-In . SVG Version: 6.00 Build 0)  -->
<svg version="1.1" id="Layer_1" xmlns="http://www.w3.org/2000/svg" xmlns:xlink="http://www.w3.org/1999/xlink" x="0px" y="0px"
	 viewBox="0 0 128 128" style="enable-background:new 0 0 128 128;" xml:space="preserve">
<style type="text/css">
	.st0{fill:#0AE0AA;}
	.st1{fill:#FFFFFF;}
</style>
<circle class="st0" cx="64" cy="64.3" r="63.1"/>
<g>
	<path class="st1" d="M106.9,62.3c-0.5-11.5-5.5-22.1-14-29.8c-17.5-16-44.8-14.8-60.7,2.8c-7.7,8.5-11.7,19.5-11.2,31
		c0.5,11.5,5.5,22.1,14,29.8c8,7.3,18.2,11.2,28.9,11.2c0.7,0,1.3,0,2,0c11.5-0.5,22.1-5.5,29.8-14
		C103.5,84.8,107.5,73.8,106.9,62.3z M92.2,90c-6.9,7.5-16.3,11.9-26.5,12.4c-10.2,0.4-20-3.1-27.5-10C30.7,85.6,26.3,76.2,25.8,66
		c-0.5-10.2,3.1-20,10-27.5c7.5-8.2,17.9-12.4,28.2-12.4c9.2,0,18.4,3.3,25.7,10c7.5,6.9,11.9,16.3,12.4,26.5S99.1,82.5,92.2,90z"/>
	<path class="st1" d="M84.3,42c-5.9-5.4-13.7-8.2-21.7-7.9c-8,0.4-15.5,3.8-20.9,9.8c-11.2,12.3-10.3,31.4,1.9,42.6v0
		c5.6,5.1,12.8,7.9,20.3,7.9c0.5,0,0.9,0,1.4,0c8-0.4,15.5-3.8,20.9-9.8C97.5,72.3,96.6,53.2,84.3,42z M82.7,81.4
		c-4.6,5-10.8,7.9-17.6,8.2c-6.8,0.3-13.3-2-18.3-6.6v0c-10.3-9.4-11.1-25.5-1.6-35.8c4.6-5,10.8-7.9,17.6-8.2c0.4,0,0.8,0,1.2,0
		c6.3,0,12.4,2.3,17.1,6.6C91.4,55,92.1,71,82.7,81.4z"/>
</g>
</svg>
