<?xml version="1.0" encoding="utf-8"?>
<!-- Generator: Adobe Illustrator 21.1.0, SVG Export Plug-In . SVG Version: 6.00 Build 0)  -->
<svg version="1.1" id="Layer_1" xmlns="http://www.w3.org/2000/svg" xmlns:xlink="http://www.w3.org/1999/xlink" x="0px" y="0px"
	 viewBox="0 0 96 96" style="enable-background:new 0 0 96 96;" xml:space="preserve">
<style type="text/css">
	.st0{fill:#67CADA;}
	.st1{fill:none;stroke:#ED2224;stroke-width:2;stroke-linecap:round;stroke-miterlimit:10;}
</style>
<g>
	<g>
		<path class="st0" d="M48.3,92.3c-1,0-1.8-0.8-1.8-1.8c0-1,0.8-1.8,1.8-1.8c2.8,0,5.5-0.3,8.2-0.8c1-0.2,1.9,0.4,2.1,1.4
			s-0.4,1.9-1.4,2.1C54.3,92,51.3,92.3,48.3,92.3z"/>
	</g>
</g>
<g>
	<g>
		<path class="st0" d="M56.8,89.6"/>
	</g>
</g>
<g>
	<g>
		<path class="st0" d="M64.1,87.5"/>
	</g>
</g>
<g>
	<g>
		<path class="st0" d="M64.1,89.3c-0.7,0-1.4-0.4-1.7-1.1c-0.4-0.9,0.1-2,1-2.3c1.3-0.5,2.6-1.1,3.9-1.8c0.8-0.4,1.6-0.9,2.4-1.4
			c0.8-0.5,2-0.3,2.5,0.6c0.5,0.8,0.3,2-0.6,2.5c-0.9,0.5-1.8,1.1-2.7,1.5c-1.4,0.7-2.8,1.4-4.3,2C64.5,89.2,64.3,89.3,64.1,89.3z"
			/>
	</g>
</g>
<g>
	<g>
		<path class="st0" d="M76.4,81.6c-0.5,0-1-0.2-1.3-0.6c-0.7-0.7-0.6-1.9,0.1-2.5c8.7-7.7,13.6-18.8,13.6-30.3
			c0-12.8-5.8-24.5-16-32.3c-0.8-0.6-0.9-1.7-0.3-2.5c0.6-0.8,1.7-0.9,2.5-0.3c11.1,8.4,17.4,21.3,17.4,35.2
			c0,12.6-5.4,24.6-14.8,33C77.3,81.4,76.9,81.6,76.4,81.6z"/>
	</g>
</g>
<g>
	<g>
		<path class="st0" d="M41.6,8c-0.9,0-1.6-0.6-1.8-1.5c-0.2-1,0.5-1.9,1.5-2.1c2.3-0.4,4.6-0.5,7-0.5c1,0,1.8,0.8,1.8,1.8
			s-0.8,1.8-1.8,1.8c-2.1,0-4.3,0.2-6.4,0.5C41.8,8,41.7,8,41.6,8z"/>
	</g>
</g>
<g>
	<g>
		<path class="st0" d="M27,13.2c-0.6,0-1.2-0.3-1.6-0.9c-0.5-0.9-0.2-2,0.7-2.5C28,8.7,32,7.1,33.2,6.6c0.9-0.4,2,0.1,2.3,1
			c0.4,0.9-0.1,2-1,2.3c-2.2,0.9-5.3,2.2-6.6,3C27.7,13.1,27.4,13.2,27,13.2z"/>
	</g>
</g>
<g>
	<g>
		<path class="st1" d="M22.5,14.4"/>
	</g>
</g>
<g>
	<g>
		<path class="st0" d="M20.1,81.6c-0.4,0-0.9-0.1-1.2-0.5C9.4,72.7,4,60.7,4,48.1c0-12.9,5.6-25.2,15.4-33.6
			c0.8-0.7,1.9-0.6,2.5,0.2c0.6,0.8,0.6,1.9-0.2,2.5c-9,7.7-14.2,19-14.2,30.8c0,11.6,5,22.6,13.6,30.3c0.7,0.7,0.8,1.8,0.1,2.5
			C21.1,81.4,20.6,81.6,20.1,81.6z"/>
	</g>
</g>
<g>
	<g>
		<path class="st0" d="M72.6,27.3c-1,0-1.8-0.8-1.8-1.8V12.9c0-1,0.8-1.8,1.8-1.8h12.6c1,0,1.8,0.8,1.8,1.8s-0.8,1.8-1.8,1.8H74.4
			v10.8C74.4,26.5,73.6,27.3,72.6,27.3z"/>
	</g>
</g>
<g>
	<g>
		<path class="st0" d="M22.1,83.3H9.5c-1,0-1.8-0.8-1.8-1.8s0.8-1.8,1.8-1.8h10.8V68.8c0-1,0.8-1.8,1.8-1.8s1.8,0.8,1.8,1.8v12.6
			C23.9,82.5,23.1,83.3,22.1,83.3z"/>
	</g>
</g>
<g>
	<g>
		<g>
			<path class="st0" d="M51.9,73.6h-7.1c-0.9,0-1.6-0.3-2.1-0.8c-0.6-0.6-0.8-1.3-0.8-1.8l-0.7-4.7c-0.4-0.1-0.7-0.3-1-0.4l-3.5,2.6
				c-1.1,1-2.9,1-4-0.1c-2.7-2.5-4.5-4.3-5.4-5.5c-0.4-0.5-0.6-1.1-0.6-1.9c0-0.8,0.3-1.3,0.5-1.7c0.1-0.2,0.3-0.5,0.7-1
				c0.4-0.5,0.7-0.9,0.9-1.1l0.2-0.2c0.2-0.1,0.4-0.4,0.8-1c0-0.1,0.1-0.1,0.1-0.2c-0.2-0.4-0.4-0.9-0.6-1.4l-4.6-0.7
				c-1.2-0.1-1.7-0.7-2-1.1c-0.3-0.5-0.5-1.1-0.5-1.8v-7c0-0.8,0.2-1.4,0.6-1.8c0.3-0.4,0.7-0.7,1.2-1l0.5-0.2l4.9-0.7
				c0.2-0.4,0.3-0.7,0.5-1.1c-0.9-1.1-1.8-2.3-2.7-3.4c-0.5-0.7-0.8-1.3-0.8-1.9c0-0.6,0.2-1.2,0.7-1.9c0.6-0.9,1.7-2.2,3.4-3.6
				c2.3-2.3,3.3-2.8,4.2-2.8c0.7,0,1.4,0.3,2,0.8l3.5,2.7c0.3-0.1,0.7-0.3,1-0.4c0.3-2.1,0.5-3.8,0.8-5c0.2-1.3,1.3-2.3,2.9-2.3h7.1
				c0.9,0,1.5,0.3,2,0.7c0.6,0.6,0.8,1.3,0.9,1.8l0.7,4.7c0.4,0.1,0.7,0.3,1,0.4l3.5-2.6c1.1-1,2.9-1,4,0.1c3.6,3.3,4.8,4.8,5.3,5.5
				c0.3,0.4,0.7,0.9,0.7,1.9c0,0.8-0.3,1.3-0.5,1.7c-0.1,0.2-0.3,0.5-0.7,1l-1,1.3c-0.1,0.1-0.4,0.4-0.8,1c-0.1,0.1-0.1,0.2-0.2,0.2
				c0.2,0.4,0.4,0.9,0.6,1.3l4.6,0.7c1.2,0.1,1.8,0.7,2,1.1c0.3,0.5,0.5,1.1,0.5,1.8v7c0,0.8-0.2,1.4-0.6,1.9c-0.4,0.6-1,0.9-1.5,1
				L72.1,54l-4.8,0.7c-0.2,0.4-0.3,0.7-0.5,1.1c1.1,1.3,2,2.5,2.7,3.4c0.5,0.5,0.8,1.2,0.8,2c0,0.7-0.3,1.4-0.8,2
				c-0.6,0.8-1.7,1.9-3.2,3.5c-2.6,2.4-3.5,2.8-4.3,2.8c-0.7,0-1.4-0.3-2-0.8l-3.5-2.7c-0.3,0.1-0.7,0.3-1,0.4
				c-0.3,2.1-0.5,3.8-0.8,5C54.6,72.7,53.5,73.6,51.9,73.6z M51.3,70.6C51.2,70.7,51.2,70.7,51.3,70.6
				C51.2,70.7,51.2,70.7,51.3,70.6z M45.4,70l6,0c0.3-1.3,0.5-3.1,0.7-5.2l0.1-1.1l1.1-0.4c1.5-0.5,2.2-0.8,2.5-1l1.1-0.7l5.1,4
				c0.3-0.3,0.9-0.7,1.8-1.5c1.1-1.2,2.1-2.2,2.6-2.9c-0.8-1.1-1.9-2.4-3.2-4l-0.7-0.9l0.6-1.1c0.3-0.6,0.8-1.5,1.2-2.7l0.4-0.9
				l6.2-0.9l0-6l-6.3-1l-0.3-1.1c-0.3-0.9-0.7-1.8-1.2-2.7l-0.7-1.2l1-1c0.1-0.1,0.3-0.4,0.6-0.8c0.4-0.6,0.8-1.1,1.1-1.5l0.8-1.1
				c0.2-0.2,0.3-0.4,0.4-0.5c-0.4-0.6-1.6-1.9-4.3-4.4l-5,3.8l-1-0.5c-0.4-0.2-1.1-0.5-2.7-1l-1-0.3l-1-6.4l-6,0
				c-0.3,1.3-0.5,3.1-0.7,5.2l-0.1,1.1l-1.1,0.4c-1.5,0.5-2.2,0.8-2.5,1l-1.1,0.7l-5.1-4c-0.3,0.3-0.9,0.7-1.7,1.6
				c-1.5,1.4-2.3,2.3-2.7,2.8c1.1,1.3,2.2,2.7,3.2,4.1l0.7,1l-0.6,1c-0.5,0.8-0.9,1.7-1.2,2.6l-0.4,1l-6.2,0.9l0,6l6.3,1l0.3,1.1
				c0.3,1.1,0.7,2,1.2,2.7l0.6,1L33.5,57c-0.2,0.2-0.4,0.6-0.8,1.2c-0.4,0.6-0.8,1-1.1,1.4c-0.2,0.3-0.5,0.7-0.8,1.1
				c-0.2,0.2-0.3,0.4-0.4,0.5c0.6,0.7,1.8,2,4.4,4.4l5-3.8l1,0.5c0.5,0.3,1.4,0.6,2.7,1l1,0.3L45.4,70z M35.1,65.9
				C35.1,65.9,35.1,65.9,35.1,65.9C35.1,65.9,35.1,65.9,35.1,65.9z M61.6,65.9L61.6,65.9L61.6,65.9z M30,61.6l-0.1,0.1
				C29.9,61.7,30,61.7,30,61.6z M66.8,33.1c0,0-0.1,0.1-0.1,0.1L66.8,33.1z M35.1,29L35.1,29L35.1,29z M61.6,28.9
				C61.6,28.9,61.6,28.9,61.6,28.9C61.6,28.9,61.6,28.9,61.6,28.9z M45.5,24.1C45.5,24.2,45.4,24.2,45.5,24.1
				C45.4,24.2,45.5,24.2,45.5,24.1z M48.3,57.4c-2.7,0-5.1-1-7-2.8c-1.9-2-2.9-4.4-2.9-7.1s1-5.1,2.8-7c2-1.9,4.4-2.9,7.1-2.9
				c2.7,0,5.1,1,7,2.8c1.9,2,2.9,4.4,2.9,7.1s-1,5.1-2.8,7C53.4,56.4,51,57.4,48.3,57.4z M48.3,41.1c-1.8,0-3.2,0.6-4.5,1.8
				c-1.2,1.2-1.8,2.7-1.8,4.5c0,1.8,0.6,3.2,1.8,4.5c1.2,1.2,2.7,1.8,4.5,1.8c1.8,0,3.2-0.6,4.5-1.8c1.2-1.2,1.8-2.7,1.8-4.5
				c0-1.8-0.6-3.2-1.8-4.5C51.6,41.7,50.1,41.1,48.3,41.1z"/>
		</g>
	</g>
</g>
</svg>
