<?xml version="1.0" encoding="utf-8"?>
<!-- Generator: Adobe Illustrator 23.0.2, SVG Export Plug-In . SVG Version: 6.00 Build 0)  -->
<svg version="1.1" id="Layer_1" xmlns="http://www.w3.org/2000/svg" xmlns:xlink="http://www.w3.org/1999/xlink" x="0px" y="0px"
	 viewBox="0 0 128 128" style="enable-background:new 0 0 128 128;" xml:space="preserve">
<style type="text/css">
	.st0{fill:#F1F5F8;}
	.st1{fill:#888B8F;}
</style>
<circle class="st0" cx="64.4" cy="64" r="63.1"/>
<g>
	<path class="st1" d="M81.1,89.5c1.2,0,2.2-1,2.2-2.2c-0.1-23.3-18.9-42.1-42.2-42.2c-1.2,0-2.2,1-2.2,2.2s1,2.2,2.2,2.2
		c20.9,0.1,37.8,17,37.8,37.8C78.9,88.6,79.9,89.5,81.1,89.5z"/>
	<path class="st1" d="M40.2,60.2c-1.2,0-2.2,1-2.2,2.2s1,2.2,2.2,2.2c13.1,0,23.6,10.6,23.6,23.6c0,1.2,1,2.2,2.2,2.2
		c1.2,0,2.2-1,2.2-2.2C68.3,72.7,55.7,60.2,40.2,60.2z"/>
	<path class="st1" d="M41.9,98.2c6.4,0,11.7-5.2,11.7-11.7s-5.2-11.7-11.7-11.7s-11.7,5.2-11.7,11.7l0,0
		C30.2,93,35.5,98.2,41.9,98.2z M41.9,79.3c4,0,7.3,3.2,7.3,7.3c0,4-3.2,7.3-7.3,7.3s-7.3-3.2-7.3-7.3
		C34.6,82.6,37.9,79.3,41.9,79.3z"/>
	<path class="st1" d="M98.6,86.6c0-31.3-25.4-56.7-56.7-56.7l0,0c-1.2,0-2.2,1-2.2,2.2c0,1.2,1,2.2,2.2,2.2
		c28.9,0,52.3,23.4,52.3,52.3l0,0c0,1.2,1,2.2,2.2,2.2S98.6,87.8,98.6,86.6z"/>
</g>
</svg>
