<?xml version="1.0" encoding="utf-8"?>
<!-- Generator: Adobe Illustrator 22.1.0, SVG Export Plug-In . SVG Version: 6.00 Build 0)  -->
<svg version="1.1" id="Layer_1" xmlns="http://www.w3.org/2000/svg" xmlns:xlink="http://www.w3.org/1999/xlink" x="0px" y="0px"
	 viewBox="0 0 128 128" style="enable-background:new 0 0 128 128;" xml:space="preserve">
<style type="text/css">
	.st0{fill:#F86A74;}
</style>
<g>
	<g>
		<path class="st0" d="M63.9,116.9c29.2,0,52.9-23.7,52.9-52.9S93.1,11.1,63.9,11.1S11,34.8,11,64S34.7,116.9,63.9,116.9z
			 M63.9,124.5C30.5,124.5,3.4,97.4,3.4,64S30.5,3.5,63.9,3.5s60.5,27.1,60.5,60.5S97.3,124.5,63.9,124.5z"/>
	</g>
</g>
<g>
	<path class="st0" d="M84.8,39.1L39,84.9l4,4l45.8-45.8L84.8,39.1z"/>
	<path class="st0" d="M43,89.6l-4.7-4.7l46.5-46.5l4.7,4.7L43,89.6z M39.7,84.9l3.3,3.3l45.1-45.1l-3.3-3.3L39.7,84.9z"/>
</g>
<g>
	<path class="st0" d="M42.8,38.9l-4,4L85,89l4-4L42.8,38.9z"/>
	<path class="st0" d="M85,89.8L38.1,42.9l4.7-4.7l46.9,46.9L85,89.8z M39.6,42.9L85,88.3l3.3-3.3L42.8,39.6L39.6,42.9z"/>
</g>
</svg>
