<?xml version="1.0" encoding="utf-8"?>
<!-- Generator: Adobe Illustrator 23.0.1, SVG Export Plug-In . SVG Version: 6.00 Build 0)  -->
<svg version="1.1" id="Layer_1" xmlns="http://www.w3.org/2000/svg" xmlns:xlink="http://www.w3.org/1999/xlink" x="0px" y="0px"
	 viewBox="0 0 128 128" style="enable-background:new 0 0 128 128;" xml:space="preserve">
<style type="text/css">
	.st0{fill:#474747;}
	.st1{fill:#FFFFFF;}
</style>
<circle class="st0" cx="64" cy="64" r="64"/>
<path class="st1" d="M84.5,77.7c-0.7-0.5-1.7-0.3-2.2,0.4l-4.6,6.5l-2.1-2.1c-0.6-0.6-1.6-0.6-2.2,0c-0.6,0.6-0.6,1.6,0,2.2l3.4,3.4
	c0.3,0.3,0.7,0.5,1.1,0.5c0,0,0.1,0,0.1,0c0.5,0,0.9-0.3,1.1-0.6l5.7-7.9C85.3,79.2,85.2,78.2,84.5,77.7z"/>
<path class="st1" d="M46.3,34.8c-2.9,0-5.3,2.4-5.3,5.3v46.5c0,2.9,2.4,5.3,5.3,5.3h24.1c0.1,0,0.3,0,0.4-0.1c2.1,2,5,3.2,8.1,3.2
	c6.6,0,12-5.4,12-12c0-3.5-1.5-6.7-3.9-8.9v-34c0-2.9-2.4-5.3-5.3-5.3 M87.9,83c0,4.9-4,8.9-8.9,8.9c-4.9,0-8.9-4-8.9-8.9
	c0-4.9,4-8.9,8.9-8.9C83.9,74,87.9,78,87.9,83z M75.9,37.2H52.2 M79.2,37.9h2.6c1.2,0,2.2,1,2.2,2.2V72c-1.5-0.7-3.2-1.1-5-1.1
	c-6.6,0-12,5.4-12,12c0,2.1,0.5,4.1,1.5,5.8H46.3c-1.2,0-2.2-1-2.2-2.2V40.1h0c0-1.2,1-2.2,2.2-2.2h2.6"/>
<path class="st1" d="M51.9,48.5h26.5c0.9,0,1.6-0.7,1.6-1.6s-0.7-1.6-1.6-1.6H51.9c-0.9,0-1.6,0.7-1.6,1.6S51.1,48.5,51.9,48.5z"/>
<path class="st1" d="M51.9,59.9h26.5c0.9,0,1.6-0.7,1.6-1.6c0-0.9-0.7-1.6-1.6-1.6H51.9c-0.9,0-1.6,0.7-1.6,1.6
	C50.4,59.2,51.1,59.9,51.9,59.9z"/>
<path class="st1" d="M51.9,71.2h15.2c0.9,0,1.6-0.7,1.6-1.6s-0.7-1.6-1.6-1.6H51.9c-0.9,0-1.6,0.7-1.6,1.6S51.1,71.2,51.9,71.2z"/>
<path class="st1" d="M51.9,81h15.2c0.9,0,1.6-0.7,1.6-1.6s-0.7-1.6-1.6-1.6H51.9c-0.9,0-1.6,0.7-1.6,1.6C50.4,80.3,51.1,81,51.9,81z
	"/>
<path class="st1" d="M64,34.7"/>
</svg>
