<?xml version="1.0" encoding="utf-8"?>
<!-- Generator: Adobe Illustrator 23.0.1, SVG Export Plug-In . SVG Version: 6.00 Build 0)  -->
<svg version="1.1" id="Layer_1" xmlns="http://www.w3.org/2000/svg" xmlns:xlink="http://www.w3.org/1999/xlink" x="0px" y="0px"
	 viewBox="0 0 128 128" style="enable-background:new 0 0 128 128;" xml:space="preserve">
<style type="text/css">
	.st0{fill:#FFFFFF;}
</style>
<g>
	<g>
		<path class="st0" d="M64,110.1c-11.9,0-23.7-4.5-32.7-13.5c-8.7-8.7-13.6-20.4-13.6-32.7c0-12.4,4.8-24,13.6-32.7
			C40,22.4,51.6,17.6,64,17.6c12.4,0,24,4.8,32.7,13.6l0,0c18.1,18.1,18.1,47.4,0,65.5C87.7,105.6,75.9,110.1,64,110.1z M64,20.1
			c-11.7,0-22.7,4.6-31,12.8c-8.3,8.3-12.8,19.3-12.8,31s4.6,22.7,12.8,31c17.1,17.1,44.9,17.1,61.9,0C112,77.8,112,50,95,32.9
			C86.7,24.6,75.7,20.1,64,20.1z M64,95.9c-8.6,0-16.6-3.3-22.7-9.4l0,0l0,0c-6.1-6.1-9.4-14.1-9.4-22.7c0-8.6,3.3-16.6,9.4-22.7
			c12.5-12.5,32.8-12.5,45.3,0c12.5,12.5,12.5,32.8,0,45.3C80.6,92.6,72.6,95.9,64,95.9z M64,34.3c-7.6,0-15.1,2.9-20.9,8.6
			c-5.6,5.6-8.7,13-8.7,20.9c0,7.9,3.1,15.3,8.7,20.9l0,0c5.6,5.6,13,8.7,20.9,8.7s15.3-3.1,20.9-8.7c11.5-11.5,11.5-30.3,0-41.8
			C79.1,37.2,71.6,34.3,64,34.3z"/>
	</g>
</g>
<g>
	<path class="st0" d="M84.1,23.5l-1.4,14.5L94,53.4l1.1,8.5l-0.7,7.3c0,0-1.7,7.3-2.1,7.6c-0.3,0.3-3.5,5.1-3.5,5.1l-8.6,8.6
		l-10.5,4.1l-16.2-1l-14-10.3L37.6,79H21.5l4,8.4l8.3,10l9.1,6.7l10.3,4.3l12.3,0.6l13.9-2.2l11.4-6.7l11.5-12.9l6.8-17.7L107.6,54
		l-6.3-14.3l-10-10.8l-2.9-2.9L84.1,23.5z"/>
</g>
</svg>
