<?xml version="1.0" encoding="utf-8"?>
<!-- Generator: Adobe Illustrator 22.1.0, SVG Export Plug-In . SVG Version: 6.00 Build 0)  -->
<svg version="1.1" id="Layer_1" xmlns="http://www.w3.org/2000/svg" xmlns:xlink="http://www.w3.org/1999/xlink" x="0px" y="0px"
	 viewBox="0 0 340 340" style="enable-background:new 0 0 340 340;" xml:space="preserve">
<style type="text/css">
	.st0{fill:#0774CA;}
	.st1{fill:#1095FF;}
	.st2{fill:#31B2F5;}
</style>
<g>
	<g>
		<g>
			<circle class="st0" cx="170" cy="170" r="170"/>
		</g>
	</g>
</g>
<g>
	<g>
		<g>
			<circle class="st0" cx="168" cy="170" r="152"/>
		</g>
	</g>
	<g>
		<g>
			<path class="st1" d="M168,323c-84.4,0-153-68.6-153-153S83.6,17,168,17s153,68.6,153,153S252.3,323,168,323z M168,19
				C84.7,19,17,86.8,17,170s67.7,151,151,151s151-67.7,151-151S251.2,19,168,19z"/>
		</g>
	</g>
</g>
<g>
	<g>
		<g>
			<path d="M165.4,135.6c0.1,0.1,0.1,0.2,0.2,0.2C165.7,135.9,165.6,135.8,165.4,135.6z"/>
		</g>
	</g>
</g>
<g>
	<g>
		<g>
			<path d="M174.7,135.5C174.6,135.5,174.6,135.5,174.7,135.5C174.6,135.5,174.6,135.5,174.7,135.5z"/>
		</g>
	</g>
</g>
<path class="st2" d="M223.4,128.9v92.5c0,5.4-4.4,9.8-9.8,9.8h-87.1c-5.4,0-9.8-4.4-9.8-9.8V107.1c0-5.4,4.4-9.8,9.8-9.8h66.4"/>
<g>
	<g>
		<path class="st0" d="M223.3,127.4l-29.9-30.1c-0.3-0.3-0.8-0.5-1.1-0.5h-66.6c-5.3,0-9.7,4.4-9.7,9.8v115.8c0,5.4,4.4,9.8,9.7,9.8
			h88.5c5.3,0,9.7-4.4,9.7-9.8v-93.4C224,128.4,224,128.1,223.3,127.4L223.3,127.4z M193.9,102.2l24.7,24.9h-24.7V102.2z
			 M220.8,222.3c0,3.6-2.9,6.6-6.6,6.6h-88.5c-3.6,0-6.6-3-6.6-6.6V106.6c0-3.6,2.9-6.6,6.6-6.6h65v28.7c0,0.9,0.7,1.6,1.6,1.6h28.5
			L220.8,222.3L220.8,222.3z"/>
	</g>
	<g>
		<path class="st0" d="M127.4,110.5H180c0.9,0,1.6-0.7,1.6-1.6s-0.7-1.6-1.6-1.6h-52.6c-0.9,0-1.6,0.7-1.6,1.6
			S126.5,110.5,127.4,110.5z"/>
	</g>
	<g>
		<path class="st0" d="M127.4,121.8H180c0.9,0,1.6-0.7,1.6-1.6c0-0.9-0.7-1.6-1.6-1.6h-52.6c-0.9,0-1.6,0.7-1.6,1.6
			C125.8,121.1,126.5,121.8,127.4,121.8z"/>
	</g>
	<g>
		<path class="st0" d="M187.2,139.7c0-0.9-0.7-1.6-1.6-1.6h-10.8c-0.9,0-1.6,0.7-1.6,1.6v33h-6.5v-20.1c0-0.9-0.7-1.6-1.6-1.6h-10.8
			c-0.9,0-1.6,0.7-1.6,1.6v20.1h-6.5v-33c0-0.9-0.7-1.6-1.6-1.6h-10.8c-0.9,0-1.6,0.7-1.6,1.6v33h-6c-0.9,0-1.6,0.7-1.6,1.6
			c0,0.9,0.7,1.6,1.6,1.6c30.4,0,54.2,0,87.3,0c0.9,0,1.6-0.7,1.6-1.6c0-0.9-0.7-1.6-1.6-1.6h-6v-26.5c0-0.9-0.7-1.6-1.6-1.6h-10.8
			c-0.9,0-1.6,0.7-1.6,1.6v26.5h-6.5L187.2,139.7L187.2,139.7z M143.2,172.7h-7.7v-31.4h7.7V172.7z M163.6,172.7h-7.7v-18.5h7.7
			V172.7z M184,172.7h-7.7v-31.4h7.7V172.7z M196.8,147.8h7.7v25h-7.7V147.8z"/>
	</g>
	<g>
		<path class="st0" d="M143.6,186c-8.7,1.3-15.4,8.8-15.4,18c0,10,8.1,18.2,18,18.2c9,0,16.6-6.8,17.8-15.6h-20.4V186z"/>
	</g>
	<g>
		<path class="st0" d="M148.7,183.3v18h17.8C165.4,191.9,158,184.5,148.7,183.3z"/>
	</g>
	<g>
		<path class="st0" d="M213.6,186.5h-24.1c-0.9,0-1.6,0.7-1.6,1.6s0.7,1.6,1.6,1.6h24.1c0.9,0,1.6-0.7,1.6-1.6
			S214.5,186.5,213.6,186.5z"/>
	</g>
	<g>
		<path class="st0" d="M213.6,197.3h-24.1c-0.9,0-1.6,0.7-1.6,1.6c0,0.9,0.7,1.6,1.6,1.6h24.1c0.9,0,1.6-0.7,1.6-1.6
			S214.5,197.3,213.6,197.3z"/>
	</g>
	<g>
		<path class="st0" d="M213.6,208h-24.1c-0.9,0-1.6,0.7-1.6,1.6c0,0.9,0.7,1.6,1.6,1.6h24.1c0.9,0,1.6-0.7,1.6-1.6
			C215.2,208.7,214.5,208,213.6,208z"/>
	</g>
	<g>
		<path class="st0" d="M213.6,218.7h-24.1c-0.9,0-1.6,0.7-1.6,1.6c0,0.9,0.7,1.6,1.6,1.6h24.1c0.9,0,1.6-0.7,1.6-1.6
			C215.2,219.4,214.5,218.7,213.6,218.7z"/>
	</g>
	<g>
		<ellipse class="st0" cx="182" cy="188.1" rx="2.3" ry="2.3"/>
	</g>
	<g>
		<ellipse class="st0" cx="182" cy="198.8" rx="2.3" ry="2.3"/>
	</g>
	<g>
		<ellipse class="st0" cx="182" cy="209.6" rx="2.3" ry="2.3"/>
	</g>
	<g>
		<ellipse class="st0" cx="182" cy="220.3" rx="2.3" ry="2.3"/>
	</g>
</g>
</svg>
