<?xml version="1.0" encoding="utf-8"?>
<!-- Generator: Adobe Illustrator 22.1.0, SVG Export Plug-In . SVG Version: 6.00 Build 0)  -->
<svg version="1.1" id="Layer_1" xmlns="http://www.w3.org/2000/svg" xmlns:xlink="http://www.w3.org/1999/xlink" x="0px" y="0px"
	 viewBox="0 0 96 96" style="enable-background:new 0 0 96 96;" xml:space="preserve">
<style type="text/css">
	.st0{fill:#31B2F5;}
	.st1{fill:none;stroke:#FF0000;stroke-width:2;stroke-linecap:round;stroke-miterlimit:10;}
</style>
<g>
	<g>
		<path class="st0" d="M31,82.8c-6,0-10.8-4.8-10.8-10.8c0-6,4.8-10.8,10.8-10.8S41.8,66,41.8,72C41.8,77.9,37,82.8,31,82.8z
			 M31,64.3c-4.3,0-7.7,3.5-7.7,7.7s3.5,7.7,7.7,7.7s7.7-3.5,7.7-7.7S35.3,64.3,31,64.3z"/>
		<path class="st0" d="M31,83.3c-6.2,0-11.3-5.1-11.3-11.3S24.8,60.7,31,60.7S42.3,65.8,42.3,72S37.3,83.3,31,83.3z M31,61.7
			c-5.7,0-10.3,4.6-10.3,10.3S25.3,82.3,31,82.3S41.3,77.7,41.3,72S36.7,61.7,31,61.7z M31,80.2c-4.5,0-8.2-3.7-8.2-8.2
			c0-4.5,3.7-8.2,8.2-8.2s8.2,3.7,8.2,8.2C39.2,76.5,35.6,80.2,31,80.2z M31,64.8c-4,0-7.2,3.2-7.2,7.2c0,4,3.2,7.2,7.2,7.2
			s7.2-3.2,7.2-7.2C38.2,68,35,64.8,31,64.8z"/>
	</g>
</g>
<g>
	<g>
		<path class="st0" d="M68.1,82.8c-6,0-10.8-4.8-10.8-10.8c0-6,4.8-10.8,10.8-10.8c6,0,10.8,4.8,10.8,10.8
			C78.9,77.9,74,82.8,68.1,82.8z M68.1,64.3c-4.3,0-7.7,3.5-7.7,7.7s3.5,7.7,7.7,7.7s7.7-3.5,7.7-7.7S72.3,64.3,68.1,64.3z"/>
		<path class="st0" d="M68.1,83.3c-6.2,0-11.3-5.1-11.3-11.3s5.1-11.3,11.3-11.3S79.4,65.8,79.4,72S74.3,83.3,68.1,83.3z M68.1,61.7
			c-5.7,0-10.3,4.6-10.3,10.3s4.6,10.3,10.3,10.3S78.4,77.7,78.4,72S73.8,61.7,68.1,61.7z M68.1,80.2c-4.5,0-8.2-3.7-8.2-8.2
			c0-4.5,3.7-8.2,8.2-8.2c4.5,0,8.2,3.7,8.2,8.2C76.3,76.5,72.6,80.2,68.1,80.2z M68.1,64.8c-4,0-7.2,3.2-7.2,7.2
			c0,4,3.2,7.2,7.2,7.2c4,0,7.2-3.2,7.2-7.2C75.3,68,72.1,64.8,68.1,64.8z"/>
	</g>
</g>
<g>
	<g>
		<path class="st0" d="M86,53.5H10c-2,0-3.7,1.6-3.7,3.7v10.7c0,3.1,2.6,5.7,5.7,5.7h8.3c-0.1-0.5-0.1-1-0.1-1.5s0.1-1,0.1-1.5H12
			c-1.4,0-2.6-1.2-2.6-2.6V57.1c0-0.3,0.3-0.6,0.6-0.6h76c0.3,0,0.6,0.3,0.6,0.6v10.7c0,1.4-1.2,2.6-2.6,2.6h-5.2
			c0.1,0.5,0.1,1,0.1,1.5s-0.1,1-0.1,1.5H84c3.1,0,5.7-2.6,5.7-5.7V57.1C89.7,55.1,88,53.5,86,53.5z"/>
		<path class="st0" d="M84,74h-5.8l0.1-0.6c0.1-0.6,0.1-1,0.1-1.5s0-0.9-0.1-1.5l-0.1-0.6H84c1.2,0,2.1-0.9,2.1-2.1V57.1L10,57
			L9.9,67.8c0,1.2,0.9,2.1,2.1,2.1h8.9l-0.1,0.6c-0.1,0.6-0.1,1-0.1,1.5s0,0.9,0.1,1.5l0.1,0.6H12c-3.4,0-6.2-2.8-6.2-6.2V57.1
			c0-2.3,1.9-4.2,4.2-4.2h76c2.3,0,4.2,1.9,4.2,4.2v10.7C90.2,71.2,87.4,74,84,74z M79.3,73H84c2.9,0,5.2-2.3,5.2-5.2V57.1
			c0-1.7-1.4-3.2-3.2-3.2H10c-1.7,0-3.2,1.4-3.2,3.2v10.7c0,2.9,2.3,5.2,5.2,5.2h7.7c0-0.4-0.1-0.7-0.1-1s0-0.7,0.1-1H12
			c-1.7,0-3.1-1.4-3.1-3.1V57.1c0-0.6,0.5-1.1,1.1-1.1h76c0.6,0,1.1,0.5,1.1,1.1v10.7c0,1.7-1.4,3.1-3.1,3.1h-4.7
			c0,0.4,0.1,0.7,0.1,1S79.4,72.7,79.3,73z"/>
	</g>
	<g>
		<path class="st0" d="M41.7,70.4c0.1,0.5,0.1,1,0.1,1.5s-0.1,1-0.1,1.5h15.7c-0.1-0.5-0.1-1-0.1-1.5s0.1-1,0.1-1.5H41.7z"/>
		<path class="st0" d="M58,74H41.1l0.1-0.6c0.1-0.6,0.1-1,0.1-1.5s0-0.9-0.1-1.5l-0.1-0.6H58l-0.1,0.6c-0.1,0.6-0.1,1-0.1,1.5
			s0,0.9,0.1,1.5L58,74z M42.3,73h14.6c0-0.4-0.1-0.7-0.1-1s0-0.7,0.1-1H42.3c0,0.4,0.1,0.7,0.1,1S42.3,72.7,42.3,73z"/>
	</g>
</g>
<g>
	<g>
		<path class="st0" d="M46.5,28.8H24.9c-0.9,0-1.5-0.7-1.5-1.5s0.7-1.5,1.5-1.5h21.6c0.9,0,1.5,0.7,1.5,1.5S47.3,28.8,46.5,28.8z"/>
		<path class="st0" d="M46.5,29.3H24.9c-1.1,0-2-0.9-2-2s0.9-2,2-2h21.6c1.1,0,2,0.9,2,2S47.6,29.3,46.5,29.3z M24.9,26.2
			c-0.6,0-1,0.5-1,1c0,0.6,0.5,1,1,1h21.6c0.6,0,1-0.5,1-1c0-0.6-0.5-1-1-1H24.9z"/>
	</g>
</g>
<g>
	<g>
		<path class="st0" d="M46.5,39.6H34.1c-0.9,0-1.5-0.7-1.5-1.5s0.7-1.5,1.5-1.5h12.3c0.9,0,1.5,0.7,1.5,1.5S47.3,39.6,46.5,39.6z"/>
		<path class="st0" d="M46.5,40.1H34.1c-1.1,0-2-0.9-2-2s0.9-2,2-2h12.3c1.1,0,2,0.9,2,2S47.6,40.1,46.5,40.1z M34.1,37
			c-0.6,0-1,0.5-1,1c0,0.6,0.5,1,1,1h12.3c0.6,0,1-0.5,1-1c0-0.6-0.5-1-1-1H34.1z"/>
	</g>
</g>
<g>
	<path class="st0" d="M46.5,48.8h-7.7c-0.8,0-1.5-0.7-1.5-1.5s0.7-1.5,1.5-1.5h7.7c0.8,0,1.5,0.7,1.5,1.5S47.3,48.8,46.5,48.8z"/>
</g>
<g>
	<path class="st1" d="M83.5,50.4"/>
</g>
<g>
	<path class="st0" d="M75.9,25.7h-14v-1.6c0-5.1-4.1-9.2-9.2-9.2H9.3c-0.9,0-1.5,0.7-1.5,1.5c0,0.9,0.7,1.5,1.5,1.5h43.4
		c3.4,0,6.1,2.7,6.1,6.1v24.9c0,0.9,0.7,1.5,1.5,1.5c0.9,0,1.5-0.7,1.5-1.5V28.8h14c3.4,0,6.1,2.7,6.1,6.1v14c0,0.9,0.7,1.5,1.5,1.5
		c0.9,0,1.5-0.7,1.5-1.5v-14C85.1,29.8,80.9,25.7,75.9,25.7z"/>
	<path class="st0" d="M83.5,51c-1.1,0-2-0.9-2-2v-14c0-3.1-2.5-5.6-5.6-5.6H62.4v19.6c0,1.1-0.9,2-2,2s-2-0.9-2-2V24.1
		c0-3.1-2.5-5.6-5.6-5.6H9.3c-1.1,0-2-0.9-2-2s0.9-2,2-2h43.4c5.3,0,9.7,4.3,9.7,9.7v1.1h13.5c5.3,0,9.7,4.3,9.7,9.7v14
		C85.6,50,84.6,51,83.5,51z M61.4,28.3h14.5c3.6,0,6.6,3,6.6,6.6v14c0,0.6,0.5,1,1,1s1-0.5,1-1v-14c0-4.8-3.9-8.7-8.7-8.7H61.4v-2.1
		c0-4.8-3.9-8.7-8.7-8.7H9.3c-0.6,0-1,0.5-1,1c0,0.6,0.5,1,1,1h43.4c3.6,0,6.6,3,6.6,6.6v24.9c0,0.6,0.5,1,1,1s1-0.5,1-1V28.3z"/>
</g>
<g>
	<g>
		<path class="st0" d="M77.4,47.3H71c-3.3,0-6-2.7-6-6v-6.4c0-0.9,0.7-1.5,1.5-1.5s1.5,0.7,1.5,1.5v6.4c0,1.6,1.3,2.9,2.9,2.9h6.4
			c0.9,0,1.5,0.7,1.5,1.5S78.3,47.3,77.4,47.3z"/>
		<path class="st0" d="M77.4,47.8H71c-3.6,0-6.5-2.9-6.5-6.5v-6.4c0-1.1,0.9-2,2-2s2,0.9,2,2v6.4c0,1.3,1.1,2.4,2.4,2.4h6.4
			c1.1,0,2,0.9,2,2S78.5,47.8,77.4,47.8z M66.5,33.8c-0.6,0-1,0.5-1,1v6.4c0,3,2.5,5.5,5.5,5.5h6.4c0.6,0,1-0.5,1-1c0-0.6-0.5-1-1-1
			H71c-1.9,0-3.4-1.5-3.4-3.4v-6.4C67.6,34.3,67.1,33.8,66.5,33.8z"/>
	</g>
</g>
</svg>
